%TF.GenerationSoftware,KiCad,Pcbnew,5.1.10-88a1d61d58~88~ubuntu20.04.1*%
%TF.CreationDate,2021-10-16T20:43:53-04:00*%
%TF.ProjectId,Spaceship-Badge-555,53706163-6573-4686-9970-2d4261646765,rev?*%
%TF.SameCoordinates,Original*%
%TF.FileFunction,Legend,Bot*%
%TF.FilePolarity,Positive*%
%FSLAX46Y46*%
G04 Gerber Fmt 4.6, Leading zero omitted, Abs format (unit mm)*
G04 Created by KiCad (PCBNEW 5.1.10-88a1d61d58~88~ubuntu20.04.1) date 2021-10-16 20:43:53*
%MOMM*%
%LPD*%
G01*
G04 APERTURE LIST*
%ADD10C,0.150000*%
%ADD11C,0.120000*%
%ADD12C,0.250000*%
%ADD13C,0.010000*%
G04 APERTURE END LIST*
D10*
X176820438Y-96311980D02*
X177391866Y-96311980D01*
X177106152Y-96311980D02*
X177106152Y-95311980D01*
X177201390Y-95454838D01*
X177296628Y-95550076D01*
X177391866Y-95597695D01*
X175963295Y-95645314D02*
X175963295Y-96311980D01*
X176391866Y-95645314D02*
X176391866Y-96169123D01*
X176344247Y-96264361D01*
X176249009Y-96311980D01*
X176106152Y-96311980D01*
X176010914Y-96264361D01*
X175963295Y-96216742D01*
X175153771Y-95788171D02*
X175487104Y-95788171D01*
X175487104Y-96311980D02*
X175487104Y-95311980D01*
X175010914Y-95311980D01*
X170215108Y-89179660D02*
X170786537Y-89179660D01*
X170500822Y-89179660D02*
X170500822Y-88179660D01*
X170596060Y-88322518D01*
X170691299Y-88417756D01*
X170786537Y-88465375D01*
X169596060Y-88179660D02*
X169500822Y-88179660D01*
X169405584Y-88227280D01*
X169357965Y-88274899D01*
X169310346Y-88370137D01*
X169262727Y-88560613D01*
X169262727Y-88798708D01*
X169310346Y-88989184D01*
X169357965Y-89084422D01*
X169405584Y-89132041D01*
X169500822Y-89179660D01*
X169596060Y-89179660D01*
X169691299Y-89132041D01*
X169738918Y-89084422D01*
X169786537Y-88989184D01*
X169834156Y-88798708D01*
X169834156Y-88560613D01*
X169786537Y-88370137D01*
X169738918Y-88274899D01*
X169691299Y-88227280D01*
X169596060Y-88179660D01*
X168834156Y-88512994D02*
X168834156Y-89179660D01*
X168834156Y-88608232D02*
X168786537Y-88560613D01*
X168691299Y-88512994D01*
X168548441Y-88512994D01*
X168453203Y-88560613D01*
X168405584Y-88655851D01*
X168405584Y-89179660D01*
X167596060Y-88655851D02*
X167929394Y-88655851D01*
X167929394Y-89179660D02*
X167929394Y-88179660D01*
X167453203Y-88179660D01*
D11*
X154752040Y-105618280D02*
X154752040Y-107629960D01*
D10*
X233707794Y-107123980D02*
X234183984Y-107123980D01*
X234231603Y-107600171D01*
X234183984Y-107552552D01*
X234088746Y-107504933D01*
X233850651Y-107504933D01*
X233755413Y-107552552D01*
X233707794Y-107600171D01*
X233660175Y-107695409D01*
X233660175Y-107933504D01*
X233707794Y-108028742D01*
X233755413Y-108076361D01*
X233850651Y-108123980D01*
X234088746Y-108123980D01*
X234183984Y-108076361D01*
X234231603Y-108028742D01*
X232755413Y-107123980D02*
X233231603Y-107123980D01*
X233279222Y-107600171D01*
X233231603Y-107552552D01*
X233136365Y-107504933D01*
X232898270Y-107504933D01*
X232803032Y-107552552D01*
X232755413Y-107600171D01*
X232707794Y-107695409D01*
X232707794Y-107933504D01*
X232755413Y-108028742D01*
X232803032Y-108076361D01*
X232898270Y-108123980D01*
X233136365Y-108123980D01*
X233231603Y-108076361D01*
X233279222Y-108028742D01*
X231803032Y-107123980D02*
X232279222Y-107123980D01*
X232326841Y-107600171D01*
X232279222Y-107552552D01*
X232183984Y-107504933D01*
X231945889Y-107504933D01*
X231850651Y-107552552D01*
X231803032Y-107600171D01*
X231755413Y-107695409D01*
X231755413Y-107933504D01*
X231803032Y-108028742D01*
X231850651Y-108076361D01*
X231945889Y-108123980D01*
X232183984Y-108123980D01*
X232279222Y-108076361D01*
X232326841Y-108028742D01*
X230612556Y-108076361D02*
X230469699Y-108123980D01*
X230231603Y-108123980D01*
X230136365Y-108076361D01*
X230088746Y-108028742D01*
X230041127Y-107933504D01*
X230041127Y-107838266D01*
X230088746Y-107743028D01*
X230136365Y-107695409D01*
X230231603Y-107647790D01*
X230422080Y-107600171D01*
X230517318Y-107552552D01*
X230564937Y-107504933D01*
X230612556Y-107409695D01*
X230612556Y-107314457D01*
X230564937Y-107219219D01*
X230517318Y-107171600D01*
X230422080Y-107123980D01*
X230183984Y-107123980D01*
X230041127Y-107171600D01*
X229612556Y-107457314D02*
X229612556Y-108457314D01*
X229612556Y-107504933D02*
X229517318Y-107457314D01*
X229326841Y-107457314D01*
X229231603Y-107504933D01*
X229183984Y-107552552D01*
X229136365Y-107647790D01*
X229136365Y-107933504D01*
X229183984Y-108028742D01*
X229231603Y-108076361D01*
X229326841Y-108123980D01*
X229517318Y-108123980D01*
X229612556Y-108076361D01*
X228279222Y-108123980D02*
X228279222Y-107600171D01*
X228326841Y-107504933D01*
X228422080Y-107457314D01*
X228612556Y-107457314D01*
X228707794Y-107504933D01*
X228279222Y-108076361D02*
X228374460Y-108123980D01*
X228612556Y-108123980D01*
X228707794Y-108076361D01*
X228755413Y-107981123D01*
X228755413Y-107885885D01*
X228707794Y-107790647D01*
X228612556Y-107743028D01*
X228374460Y-107743028D01*
X228279222Y-107695409D01*
X227374460Y-108076361D02*
X227469699Y-108123980D01*
X227660175Y-108123980D01*
X227755413Y-108076361D01*
X227803032Y-108028742D01*
X227850651Y-107933504D01*
X227850651Y-107647790D01*
X227803032Y-107552552D01*
X227755413Y-107504933D01*
X227660175Y-107457314D01*
X227469699Y-107457314D01*
X227374460Y-107504933D01*
X226564937Y-108076361D02*
X226660175Y-108123980D01*
X226850651Y-108123980D01*
X226945889Y-108076361D01*
X226993508Y-107981123D01*
X226993508Y-107600171D01*
X226945889Y-107504933D01*
X226850651Y-107457314D01*
X226660175Y-107457314D01*
X226564937Y-107504933D01*
X226517318Y-107600171D01*
X226517318Y-107695409D01*
X226993508Y-107790647D01*
X226136365Y-108076361D02*
X226041127Y-108123980D01*
X225850651Y-108123980D01*
X225755413Y-108076361D01*
X225707794Y-107981123D01*
X225707794Y-107933504D01*
X225755413Y-107838266D01*
X225850651Y-107790647D01*
X225993508Y-107790647D01*
X226088746Y-107743028D01*
X226136365Y-107647790D01*
X226136365Y-107600171D01*
X226088746Y-107504933D01*
X225993508Y-107457314D01*
X225850651Y-107457314D01*
X225755413Y-107504933D01*
X225279222Y-108123980D02*
X225279222Y-107123980D01*
X224850651Y-108123980D02*
X224850651Y-107600171D01*
X224898270Y-107504933D01*
X224993508Y-107457314D01*
X225136365Y-107457314D01*
X225231603Y-107504933D01*
X225279222Y-107552552D01*
X224374460Y-108123980D02*
X224374460Y-107457314D01*
X224374460Y-107123980D02*
X224422080Y-107171600D01*
X224374460Y-107219219D01*
X224326841Y-107171600D01*
X224374460Y-107123980D01*
X224374460Y-107219219D01*
X223898270Y-107457314D02*
X223898270Y-108457314D01*
X223898270Y-107504933D02*
X223803032Y-107457314D01*
X223612556Y-107457314D01*
X223517318Y-107504933D01*
X223469699Y-107552552D01*
X223422080Y-107647790D01*
X223422080Y-107933504D01*
X223469699Y-108028742D01*
X223517318Y-108076361D01*
X223612556Y-108123980D01*
X223803032Y-108123980D01*
X223898270Y-108076361D01*
X221898270Y-107600171D02*
X221755413Y-107647790D01*
X221707794Y-107695409D01*
X221660175Y-107790647D01*
X221660175Y-107933504D01*
X221707794Y-108028742D01*
X221755413Y-108076361D01*
X221850651Y-108123980D01*
X222231603Y-108123980D01*
X222231603Y-107123980D01*
X221898270Y-107123980D01*
X221803032Y-107171600D01*
X221755413Y-107219219D01*
X221707794Y-107314457D01*
X221707794Y-107409695D01*
X221755413Y-107504933D01*
X221803032Y-107552552D01*
X221898270Y-107600171D01*
X222231603Y-107600171D01*
X220803032Y-108123980D02*
X220803032Y-107600171D01*
X220850651Y-107504933D01*
X220945889Y-107457314D01*
X221136365Y-107457314D01*
X221231603Y-107504933D01*
X220803032Y-108076361D02*
X220898270Y-108123980D01*
X221136365Y-108123980D01*
X221231603Y-108076361D01*
X221279222Y-107981123D01*
X221279222Y-107885885D01*
X221231603Y-107790647D01*
X221136365Y-107743028D01*
X220898270Y-107743028D01*
X220803032Y-107695409D01*
X219898270Y-108123980D02*
X219898270Y-107123980D01*
X219898270Y-108076361D02*
X219993508Y-108123980D01*
X220183984Y-108123980D01*
X220279222Y-108076361D01*
X220326841Y-108028742D01*
X220374460Y-107933504D01*
X220374460Y-107647790D01*
X220326841Y-107552552D01*
X220279222Y-107504933D01*
X220183984Y-107457314D01*
X219993508Y-107457314D01*
X219898270Y-107504933D01*
X218993508Y-107457314D02*
X218993508Y-108266838D01*
X219041127Y-108362076D01*
X219088746Y-108409695D01*
X219183984Y-108457314D01*
X219326841Y-108457314D01*
X219422080Y-108409695D01*
X218993508Y-108076361D02*
X219088746Y-108123980D01*
X219279222Y-108123980D01*
X219374460Y-108076361D01*
X219422080Y-108028742D01*
X219469699Y-107933504D01*
X219469699Y-107647790D01*
X219422080Y-107552552D01*
X219374460Y-107504933D01*
X219279222Y-107457314D01*
X219088746Y-107457314D01*
X218993508Y-107504933D01*
X218136365Y-108076361D02*
X218231603Y-108123980D01*
X218422080Y-108123980D01*
X218517318Y-108076361D01*
X218564937Y-107981123D01*
X218564937Y-107600171D01*
X218517318Y-107504933D01*
X218422080Y-107457314D01*
X218231603Y-107457314D01*
X218136365Y-107504933D01*
X218088746Y-107600171D01*
X218088746Y-107695409D01*
X218564937Y-107790647D01*
X216993508Y-107457314D02*
X216755413Y-108123980D01*
X216517318Y-107457314D01*
X215612556Y-108123980D02*
X216183984Y-108123980D01*
X215898270Y-108123980D02*
X215898270Y-107123980D01*
X215993508Y-107266838D01*
X216088746Y-107362076D01*
X216183984Y-107409695D01*
X229755413Y-109250171D02*
X229612556Y-109297790D01*
X229564937Y-109345409D01*
X229517318Y-109440647D01*
X229517318Y-109583504D01*
X229564937Y-109678742D01*
X229612556Y-109726361D01*
X229707794Y-109773980D01*
X230088746Y-109773980D01*
X230088746Y-108773980D01*
X229755413Y-108773980D01*
X229660175Y-108821600D01*
X229612556Y-108869219D01*
X229564937Y-108964457D01*
X229564937Y-109059695D01*
X229612556Y-109154933D01*
X229660175Y-109202552D01*
X229755413Y-109250171D01*
X230088746Y-109250171D01*
X229183984Y-109107314D02*
X228945889Y-109773980D01*
X228707794Y-109107314D02*
X228945889Y-109773980D01*
X229041127Y-110012076D01*
X229088746Y-110059695D01*
X229183984Y-110107314D01*
X227564937Y-109773980D02*
X227564937Y-108773980D01*
X227183984Y-108773980D01*
X227088746Y-108821600D01*
X227041127Y-108869219D01*
X226993508Y-108964457D01*
X226993508Y-109107314D01*
X227041127Y-109202552D01*
X227088746Y-109250171D01*
X227183984Y-109297790D01*
X227564937Y-109297790D01*
X226136365Y-109773980D02*
X226136365Y-109250171D01*
X226183984Y-109154933D01*
X226279222Y-109107314D01*
X226469699Y-109107314D01*
X226564937Y-109154933D01*
X226136365Y-109726361D02*
X226231603Y-109773980D01*
X226469699Y-109773980D01*
X226564937Y-109726361D01*
X226612556Y-109631123D01*
X226612556Y-109535885D01*
X226564937Y-109440647D01*
X226469699Y-109393028D01*
X226231603Y-109393028D01*
X226136365Y-109345409D01*
X225231603Y-109107314D02*
X225231603Y-109773980D01*
X225660175Y-109107314D02*
X225660175Y-109631123D01*
X225612556Y-109726361D01*
X225517318Y-109773980D01*
X225374460Y-109773980D01*
X225279222Y-109726361D01*
X225231603Y-109678742D01*
X224612556Y-109773980D02*
X224707794Y-109726361D01*
X224755413Y-109631123D01*
X224755413Y-108773980D01*
X223469699Y-109773980D02*
X223469699Y-108773980D01*
X223088746Y-108773980D01*
X222993508Y-108821600D01*
X222945889Y-108869219D01*
X222898270Y-108964457D01*
X222898270Y-109107314D01*
X222945889Y-109202552D01*
X222993508Y-109250171D01*
X223088746Y-109297790D01*
X223469699Y-109297790D01*
X222041127Y-109773980D02*
X222041127Y-109250171D01*
X222088746Y-109154933D01*
X222183984Y-109107314D01*
X222374460Y-109107314D01*
X222469699Y-109154933D01*
X222041127Y-109726361D02*
X222136365Y-109773980D01*
X222374460Y-109773980D01*
X222469699Y-109726361D01*
X222517318Y-109631123D01*
X222517318Y-109535885D01*
X222469699Y-109440647D01*
X222374460Y-109393028D01*
X222136365Y-109393028D01*
X222041127Y-109345409D01*
X221136365Y-109107314D02*
X221136365Y-109916838D01*
X221183984Y-110012076D01*
X221231603Y-110059695D01*
X221326841Y-110107314D01*
X221469699Y-110107314D01*
X221564937Y-110059695D01*
X221136365Y-109726361D02*
X221231603Y-109773980D01*
X221422080Y-109773980D01*
X221517318Y-109726361D01*
X221564937Y-109678742D01*
X221612556Y-109583504D01*
X221612556Y-109297790D01*
X221564937Y-109202552D01*
X221517318Y-109154933D01*
X221422080Y-109107314D01*
X221231603Y-109107314D01*
X221136365Y-109154933D01*
X220279222Y-109726361D02*
X220374460Y-109773980D01*
X220564937Y-109773980D01*
X220660175Y-109726361D01*
X220707794Y-109631123D01*
X220707794Y-109250171D01*
X220660175Y-109154933D01*
X220564937Y-109107314D01*
X220374460Y-109107314D01*
X220279222Y-109154933D01*
X220231603Y-109250171D01*
X220231603Y-109345409D01*
X220707794Y-109440647D01*
X219660175Y-109773980D02*
X219755413Y-109726361D01*
X219803032Y-109631123D01*
X219803032Y-108773980D01*
X233993508Y-111423980D02*
X233993508Y-110423980D01*
X233564937Y-111423980D02*
X233564937Y-110900171D01*
X233612556Y-110804933D01*
X233707794Y-110757314D01*
X233850651Y-110757314D01*
X233945889Y-110804933D01*
X233993508Y-110852552D01*
X233231603Y-110757314D02*
X232850651Y-110757314D01*
X233088746Y-110423980D02*
X233088746Y-111281123D01*
X233041127Y-111376361D01*
X232945889Y-111423980D01*
X232850651Y-111423980D01*
X232660175Y-110757314D02*
X232279222Y-110757314D01*
X232517318Y-110423980D02*
X232517318Y-111281123D01*
X232469699Y-111376361D01*
X232374460Y-111423980D01*
X232279222Y-111423980D01*
X231945889Y-110757314D02*
X231945889Y-111757314D01*
X231945889Y-110804933D02*
X231850651Y-110757314D01*
X231660175Y-110757314D01*
X231564937Y-110804933D01*
X231517318Y-110852552D01*
X231469699Y-110947790D01*
X231469699Y-111233504D01*
X231517318Y-111328742D01*
X231564937Y-111376361D01*
X231660175Y-111423980D01*
X231850651Y-111423980D01*
X231945889Y-111376361D01*
X231088746Y-111376361D02*
X230993508Y-111423980D01*
X230803032Y-111423980D01*
X230707794Y-111376361D01*
X230660175Y-111281123D01*
X230660175Y-111233504D01*
X230707794Y-111138266D01*
X230803032Y-111090647D01*
X230945889Y-111090647D01*
X231041127Y-111043028D01*
X231088746Y-110947790D01*
X231088746Y-110900171D01*
X231041127Y-110804933D01*
X230945889Y-110757314D01*
X230803032Y-110757314D01*
X230707794Y-110804933D01*
X230231603Y-111328742D02*
X230183984Y-111376361D01*
X230231603Y-111423980D01*
X230279222Y-111376361D01*
X230231603Y-111328742D01*
X230231603Y-111423980D01*
X230231603Y-110804933D02*
X230183984Y-110852552D01*
X230231603Y-110900171D01*
X230279222Y-110852552D01*
X230231603Y-110804933D01*
X230231603Y-110900171D01*
X229041127Y-110376361D02*
X229898270Y-111662076D01*
X227993508Y-110376361D02*
X228850651Y-111662076D01*
X227803032Y-110757314D02*
X227422080Y-110757314D01*
X227660175Y-110423980D02*
X227660175Y-111281123D01*
X227612556Y-111376361D01*
X227517318Y-111423980D01*
X227422080Y-111423980D01*
X227183984Y-110757314D02*
X226993508Y-111423980D01*
X226803032Y-110947790D01*
X226612556Y-111423980D01*
X226422080Y-110757314D01*
X225898270Y-111423980D02*
X225993508Y-111376361D01*
X226041127Y-111328742D01*
X226088746Y-111233504D01*
X226088746Y-110947790D01*
X226041127Y-110852552D01*
X225993508Y-110804933D01*
X225898270Y-110757314D01*
X225755413Y-110757314D01*
X225660175Y-110804933D01*
X225612556Y-110852552D01*
X225564937Y-110947790D01*
X225564937Y-111233504D01*
X225612556Y-111328742D01*
X225660175Y-111376361D01*
X225755413Y-111423980D01*
X225898270Y-111423980D01*
X225136365Y-111423980D02*
X225136365Y-110423980D01*
X225136365Y-110804933D02*
X225041127Y-110757314D01*
X224850651Y-110757314D01*
X224755413Y-110804933D01*
X224707794Y-110852552D01*
X224660175Y-110947790D01*
X224660175Y-111233504D01*
X224707794Y-111328742D01*
X224755413Y-111376361D01*
X224850651Y-111423980D01*
X225041127Y-111423980D01*
X225136365Y-111376361D01*
X224231603Y-111423980D02*
X224231603Y-110757314D01*
X224231603Y-110423980D02*
X224279222Y-110471600D01*
X224231603Y-110519219D01*
X224183984Y-110471600D01*
X224231603Y-110423980D01*
X224231603Y-110519219D01*
X223898270Y-110757314D02*
X223517318Y-110757314D01*
X223755413Y-110423980D02*
X223755413Y-111281123D01*
X223707794Y-111376361D01*
X223612556Y-111423980D01*
X223517318Y-111423980D01*
X223326841Y-110757314D02*
X222945889Y-110757314D01*
X223183984Y-110423980D02*
X223183984Y-111281123D01*
X223136365Y-111376361D01*
X223041127Y-111423980D01*
X222945889Y-111423980D01*
X222612556Y-111423980D02*
X222612556Y-110757314D01*
X222612556Y-110423980D02*
X222660175Y-110471600D01*
X222612556Y-110519219D01*
X222564937Y-110471600D01*
X222612556Y-110423980D01*
X222612556Y-110519219D01*
X222136365Y-110757314D02*
X222136365Y-111423980D01*
X222136365Y-110852552D02*
X222088746Y-110804933D01*
X221993508Y-110757314D01*
X221850651Y-110757314D01*
X221755413Y-110804933D01*
X221707794Y-110900171D01*
X221707794Y-111423980D01*
X221231603Y-111423980D02*
X221231603Y-110423980D01*
X221136365Y-111043028D02*
X220850651Y-111423980D01*
X220850651Y-110757314D02*
X221231603Y-111138266D01*
X220041127Y-111376361D02*
X220136365Y-111423980D01*
X220326841Y-111423980D01*
X220422080Y-111376361D01*
X220469699Y-111281123D01*
X220469699Y-110900171D01*
X220422080Y-110804933D01*
X220326841Y-110757314D01*
X220136365Y-110757314D01*
X220041127Y-110804933D01*
X219993508Y-110900171D01*
X219993508Y-110995409D01*
X220469699Y-111090647D01*
X219564937Y-111423980D02*
X219564937Y-110757314D01*
X219564937Y-110947790D02*
X219517318Y-110852552D01*
X219469699Y-110804933D01*
X219374460Y-110757314D01*
X219279222Y-110757314D01*
X218945889Y-111328742D02*
X218898270Y-111376361D01*
X218945889Y-111423980D01*
X218993508Y-111376361D01*
X218945889Y-111328742D01*
X218945889Y-111423980D01*
X218041127Y-111376361D02*
X218136365Y-111423980D01*
X218326841Y-111423980D01*
X218422080Y-111376361D01*
X218469699Y-111328742D01*
X218517318Y-111233504D01*
X218517318Y-110947790D01*
X218469699Y-110852552D01*
X218422080Y-110804933D01*
X218326841Y-110757314D01*
X218136365Y-110757314D01*
X218041127Y-110804933D01*
X217469699Y-111423980D02*
X217564937Y-111376361D01*
X217612556Y-111328742D01*
X217660175Y-111233504D01*
X217660175Y-110947790D01*
X217612556Y-110852552D01*
X217564937Y-110804933D01*
X217469699Y-110757314D01*
X217326841Y-110757314D01*
X217231603Y-110804933D01*
X217183984Y-110852552D01*
X217136365Y-110947790D01*
X217136365Y-111233504D01*
X217183984Y-111328742D01*
X217231603Y-111376361D01*
X217326841Y-111423980D01*
X217469699Y-111423980D01*
X216707794Y-111423980D02*
X216707794Y-110757314D01*
X216707794Y-110852552D02*
X216660175Y-110804933D01*
X216564937Y-110757314D01*
X216422080Y-110757314D01*
X216326841Y-110804933D01*
X216279222Y-110900171D01*
X216279222Y-111423980D01*
X216279222Y-110900171D02*
X216231603Y-110804933D01*
X216136365Y-110757314D01*
X215993508Y-110757314D01*
X215898270Y-110804933D01*
X215850651Y-110900171D01*
X215850651Y-111423980D01*
X181109832Y-108599742D02*
X181157451Y-108647361D01*
X181300308Y-108694980D01*
X181395546Y-108694980D01*
X181538403Y-108647361D01*
X181633641Y-108552123D01*
X181681260Y-108456885D01*
X181728880Y-108266409D01*
X181728880Y-108123552D01*
X181681260Y-107933076D01*
X181633641Y-107837838D01*
X181538403Y-107742600D01*
X181395546Y-107694980D01*
X181300308Y-107694980D01*
X181157451Y-107742600D01*
X181109832Y-107790219D01*
X180109832Y-108694980D02*
X180443165Y-108218790D01*
X180681260Y-108694980D02*
X180681260Y-107694980D01*
X180300308Y-107694980D01*
X180205070Y-107742600D01*
X180157451Y-107790219D01*
X180109832Y-107885457D01*
X180109832Y-108028314D01*
X180157451Y-108123552D01*
X180205070Y-108171171D01*
X180300308Y-108218790D01*
X180681260Y-108218790D01*
X179728880Y-107790219D02*
X179681260Y-107742600D01*
X179586022Y-107694980D01*
X179347927Y-107694980D01*
X179252689Y-107742600D01*
X179205070Y-107790219D01*
X179157451Y-107885457D01*
X179157451Y-107980695D01*
X179205070Y-108123552D01*
X179776499Y-108694980D01*
X179157451Y-108694980D01*
X178538403Y-107694980D02*
X178443165Y-107694980D01*
X178347927Y-107742600D01*
X178300308Y-107790219D01*
X178252689Y-107885457D01*
X178205070Y-108075933D01*
X178205070Y-108314028D01*
X178252689Y-108504504D01*
X178300308Y-108599742D01*
X178347927Y-108647361D01*
X178443165Y-108694980D01*
X178538403Y-108694980D01*
X178633641Y-108647361D01*
X178681260Y-108599742D01*
X178728880Y-108504504D01*
X178776499Y-108314028D01*
X178776499Y-108075933D01*
X178728880Y-107885457D01*
X178681260Y-107790219D01*
X178633641Y-107742600D01*
X178538403Y-107694980D01*
X177871737Y-107694980D02*
X177252689Y-107694980D01*
X177586022Y-108075933D01*
X177443165Y-108075933D01*
X177347927Y-108123552D01*
X177300308Y-108171171D01*
X177252689Y-108266409D01*
X177252689Y-108504504D01*
X177300308Y-108599742D01*
X177347927Y-108647361D01*
X177443165Y-108694980D01*
X177728880Y-108694980D01*
X177824118Y-108647361D01*
X177871737Y-108599742D01*
X176871737Y-107790219D02*
X176824118Y-107742600D01*
X176728880Y-107694980D01*
X176490784Y-107694980D01*
X176395546Y-107742600D01*
X176347927Y-107790219D01*
X176300308Y-107885457D01*
X176300308Y-107980695D01*
X176347927Y-108123552D01*
X176919356Y-108694980D01*
X176300308Y-108694980D01*
X175205070Y-107694980D02*
X174586022Y-107694980D01*
X174919356Y-108075933D01*
X174776499Y-108075933D01*
X174681260Y-108123552D01*
X174633641Y-108171171D01*
X174586022Y-108266409D01*
X174586022Y-108504504D01*
X174633641Y-108599742D01*
X174681260Y-108647361D01*
X174776499Y-108694980D01*
X175062213Y-108694980D01*
X175157451Y-108647361D01*
X175205070Y-108599742D01*
X174300308Y-107694980D02*
X173966975Y-108694980D01*
X173633641Y-107694980D01*
X180490784Y-109821171D02*
X180347927Y-109868790D01*
X180300308Y-109916409D01*
X180252689Y-110011647D01*
X180252689Y-110154504D01*
X180300308Y-110249742D01*
X180347927Y-110297361D01*
X180443165Y-110344980D01*
X180824118Y-110344980D01*
X180824118Y-109344980D01*
X180490784Y-109344980D01*
X180395546Y-109392600D01*
X180347927Y-109440219D01*
X180300308Y-109535457D01*
X180300308Y-109630695D01*
X180347927Y-109725933D01*
X180395546Y-109773552D01*
X180490784Y-109821171D01*
X180824118Y-109821171D01*
X179395546Y-110344980D02*
X179395546Y-109821171D01*
X179443165Y-109725933D01*
X179538403Y-109678314D01*
X179728880Y-109678314D01*
X179824118Y-109725933D01*
X179395546Y-110297361D02*
X179490784Y-110344980D01*
X179728880Y-110344980D01*
X179824118Y-110297361D01*
X179871737Y-110202123D01*
X179871737Y-110106885D01*
X179824118Y-110011647D01*
X179728880Y-109964028D01*
X179490784Y-109964028D01*
X179395546Y-109916409D01*
X179062213Y-109678314D02*
X178681260Y-109678314D01*
X178919356Y-109344980D02*
X178919356Y-110202123D01*
X178871737Y-110297361D01*
X178776499Y-110344980D01*
X178681260Y-110344980D01*
X178490784Y-109678314D02*
X178109832Y-109678314D01*
X178347927Y-109344980D02*
X178347927Y-110202123D01*
X178300308Y-110297361D01*
X178205070Y-110344980D01*
X178109832Y-110344980D01*
X177395546Y-110297361D02*
X177490784Y-110344980D01*
X177681260Y-110344980D01*
X177776499Y-110297361D01*
X177824118Y-110202123D01*
X177824118Y-109821171D01*
X177776499Y-109725933D01*
X177681260Y-109678314D01*
X177490784Y-109678314D01*
X177395546Y-109725933D01*
X177347927Y-109821171D01*
X177347927Y-109916409D01*
X177824118Y-110011647D01*
X176919356Y-110344980D02*
X176919356Y-109678314D01*
X176919356Y-109868790D02*
X176871737Y-109773552D01*
X176824118Y-109725933D01*
X176728880Y-109678314D01*
X176633641Y-109678314D01*
X176300308Y-110344980D02*
X176300308Y-109678314D01*
X176300308Y-109344980D02*
X176347927Y-109392600D01*
X176300308Y-109440219D01*
X176252689Y-109392600D01*
X176300308Y-109344980D01*
X176300308Y-109440219D01*
X175443165Y-110297361D02*
X175538403Y-110344980D01*
X175728880Y-110344980D01*
X175824118Y-110297361D01*
X175871737Y-110202123D01*
X175871737Y-109821171D01*
X175824118Y-109725933D01*
X175728880Y-109678314D01*
X175538403Y-109678314D01*
X175443165Y-109725933D01*
X175395546Y-109821171D01*
X175395546Y-109916409D01*
X175871737Y-110011647D01*
X175014594Y-110297361D02*
X174919356Y-110344980D01*
X174728880Y-110344980D01*
X174633641Y-110297361D01*
X174586022Y-110202123D01*
X174586022Y-110154504D01*
X174633641Y-110059266D01*
X174728880Y-110011647D01*
X174871737Y-110011647D01*
X174966975Y-109964028D01*
X175014594Y-109868790D01*
X175014594Y-109821171D01*
X174966975Y-109725933D01*
X174871737Y-109678314D01*
X174728880Y-109678314D01*
X174633641Y-109725933D01*
X153441352Y-100167748D02*
X152679447Y-100167748D01*
X153060400Y-100548700D02*
X153060400Y-99786796D01*
D12*
X220087800Y-89331800D02*
G75*
G03*
X220087800Y-89331800I-200000J0D01*
G01*
X163181640Y-97769680D02*
G75*
G03*
X163181640Y-97769680I-200000J0D01*
G01*
D10*
X205064312Y-100894188D02*
X204302407Y-100894188D01*
X204683360Y-101275140D02*
X204683360Y-100513236D01*
X172316020Y-120320820D02*
X172125544Y-120320820D01*
X172030306Y-120368440D01*
X171935068Y-120463678D01*
X171887449Y-120654154D01*
X171887449Y-120987487D01*
X171935068Y-121177963D01*
X172030306Y-121273201D01*
X172125544Y-121320820D01*
X172316020Y-121320820D01*
X172411259Y-121273201D01*
X172506497Y-121177963D01*
X172554116Y-120987487D01*
X172554116Y-120654154D01*
X172506497Y-120463678D01*
X172411259Y-120368440D01*
X172316020Y-120320820D01*
X171125544Y-120797011D02*
X171458878Y-120797011D01*
X171458878Y-121320820D02*
X171458878Y-120320820D01*
X170982687Y-120320820D01*
X170268401Y-120797011D02*
X170601735Y-120797011D01*
X170601735Y-121320820D02*
X170601735Y-120320820D01*
X170125544Y-120320820D01*
X157372607Y-114219740D02*
X157182131Y-114219740D01*
X157086893Y-114267360D01*
X156991655Y-114362598D01*
X156944036Y-114553074D01*
X156944036Y-114886407D01*
X156991655Y-115076883D01*
X157086893Y-115172121D01*
X157182131Y-115219740D01*
X157372607Y-115219740D01*
X157467845Y-115172121D01*
X157563083Y-115076883D01*
X157610702Y-114886407D01*
X157610702Y-114553074D01*
X157563083Y-114362598D01*
X157467845Y-114267360D01*
X157372607Y-114219740D01*
X156515464Y-115219740D02*
X156515464Y-114219740D01*
X155944036Y-115219740D01*
X155944036Y-114219740D01*
X238709247Y-101214228D02*
X239471152Y-101214228D01*
X239090200Y-101595180D02*
X239090200Y-100833276D01*
X227152247Y-101417428D02*
X227914152Y-101417428D01*
X227533200Y-101798380D02*
X227533200Y-101036476D01*
X215392047Y-101087228D02*
X216153952Y-101087228D01*
X215773000Y-101468180D02*
X215773000Y-100706276D01*
X192786047Y-101087228D02*
X193547952Y-101087228D01*
X193167000Y-101468180D02*
X193167000Y-100706276D01*
X181762447Y-100934828D02*
X182524352Y-100934828D01*
X182143400Y-101315780D02*
X182143400Y-100553876D01*
X169722847Y-100807828D02*
X170484752Y-100807828D01*
X170103800Y-101188780D02*
X170103800Y-100426876D01*
X158292847Y-101315828D02*
X159054752Y-101315828D01*
X158673800Y-101696780D02*
X158673800Y-100934876D01*
D11*
%TO.C,SW2*%
X170679165Y-117073459D02*
X172201567Y-113305384D01*
X172201567Y-113305384D02*
X160897341Y-108738180D01*
X160897341Y-108738180D02*
X157852539Y-116274330D01*
X157852539Y-116274330D02*
X169156764Y-120841534D01*
X169156764Y-120841534D02*
X170679165Y-117073459D01*
X168663779Y-114789857D02*
G75*
G03*
X168663779Y-114789857I-3636726J0D01*
G01*
X167298898Y-114789857D02*
G75*
G03*
X167298898Y-114789857I-2271845J0D01*
G01*
%TO.C,D1*%
X155153800Y-107624120D02*
X155153800Y-105624120D01*
X155153800Y-105624120D02*
X159053800Y-105624120D01*
X155153800Y-107624120D02*
X159053800Y-107624120D01*
%TO.C,RV1*%
X196884090Y-71658480D02*
G75*
G03*
X196884090Y-71658480I-359210J0D01*
G01*
X201858880Y-78516480D02*
X191190880Y-78516480D01*
X191190880Y-78516480D02*
X191190880Y-81056480D01*
X191190880Y-81056480D02*
X201858880Y-81056480D01*
X201858880Y-81056480D02*
X201858880Y-78516480D01*
%TO.C,SW1*%
X161884600Y-117728388D02*
X161789450Y-117963892D01*
X164710656Y-118870189D02*
X161884600Y-117728388D01*
X164615506Y-119105693D02*
X164710656Y-118870189D01*
X165314014Y-117941432D02*
G75*
G03*
X165314014Y-117941432I-254000J0D01*
G01*
X162532461Y-116817612D02*
G75*
G03*
X162532461Y-116817612I-253999J0D01*
G01*
X166744531Y-117226397D02*
X165793030Y-119581444D01*
X165793030Y-119581444D02*
X160611927Y-117488142D01*
X160611927Y-117488142D02*
X161563427Y-115133095D01*
X161546945Y-115173891D02*
X166728048Y-117267193D01*
D13*
%TO.C,REF\u002A\u002A*%
G36*
X229831856Y-117718518D02*
G01*
X229776399Y-117746168D01*
X229727452Y-117797080D01*
X229713971Y-117815938D01*
X229699286Y-117840615D01*
X229689758Y-117867416D01*
X229684307Y-117903187D01*
X229681853Y-117954769D01*
X229681314Y-118022867D01*
X229683748Y-118116188D01*
X229692206Y-118186257D01*
X229708426Y-118238531D01*
X229734146Y-118278469D01*
X229771103Y-118311529D01*
X229773818Y-118313486D01*
X229810240Y-118333508D01*
X229854098Y-118343415D01*
X229909876Y-118345857D01*
X230000552Y-118345857D01*
X230000590Y-118433883D01*
X230001434Y-118482908D01*
X230006576Y-118511665D01*
X230020013Y-118528911D01*
X230045742Y-118543408D01*
X230051921Y-118546369D01*
X230080836Y-118560248D01*
X230103224Y-118569014D01*
X230119871Y-118569771D01*
X230131564Y-118559623D01*
X230139090Y-118535673D01*
X230143234Y-118495026D01*
X230144785Y-118434786D01*
X230144529Y-118352055D01*
X230143251Y-118243939D01*
X230142852Y-118211600D01*
X230141415Y-118100124D01*
X230140128Y-118027203D01*
X230000629Y-118027203D01*
X229999845Y-118089099D01*
X229996360Y-118129597D01*
X229988476Y-118156308D01*
X229974495Y-118176844D01*
X229965003Y-118186860D01*
X229926196Y-118216167D01*
X229891837Y-118218552D01*
X229856384Y-118194350D01*
X229855486Y-118193457D01*
X229841061Y-118174753D01*
X229832287Y-118149332D01*
X229827861Y-118110184D01*
X229826482Y-118050297D01*
X229826457Y-118037030D01*
X229829788Y-117954501D01*
X229840631Y-117897291D01*
X229860260Y-117862366D01*
X229889950Y-117846694D01*
X229907109Y-117845114D01*
X229947834Y-117852526D01*
X229975768Y-117876930D01*
X229992583Y-117921580D01*
X229999950Y-117989730D01*
X230000629Y-118027203D01*
X230140128Y-118027203D01*
X230139892Y-118013845D01*
X230137923Y-117948933D01*
X230135150Y-117901558D01*
X230131212Y-117867890D01*
X230125751Y-117844098D01*
X230118408Y-117826353D01*
X230108823Y-117810824D01*
X230104713Y-117804981D01*
X230050195Y-117749785D01*
X229981264Y-117718490D01*
X229901528Y-117709765D01*
X229831856Y-117718518D01*
G37*
X229831856Y-117718518D02*
X229776399Y-117746168D01*
X229727452Y-117797080D01*
X229713971Y-117815938D01*
X229699286Y-117840615D01*
X229689758Y-117867416D01*
X229684307Y-117903187D01*
X229681853Y-117954769D01*
X229681314Y-118022867D01*
X229683748Y-118116188D01*
X229692206Y-118186257D01*
X229708426Y-118238531D01*
X229734146Y-118278469D01*
X229771103Y-118311529D01*
X229773818Y-118313486D01*
X229810240Y-118333508D01*
X229854098Y-118343415D01*
X229909876Y-118345857D01*
X230000552Y-118345857D01*
X230000590Y-118433883D01*
X230001434Y-118482908D01*
X230006576Y-118511665D01*
X230020013Y-118528911D01*
X230045742Y-118543408D01*
X230051921Y-118546369D01*
X230080836Y-118560248D01*
X230103224Y-118569014D01*
X230119871Y-118569771D01*
X230131564Y-118559623D01*
X230139090Y-118535673D01*
X230143234Y-118495026D01*
X230144785Y-118434786D01*
X230144529Y-118352055D01*
X230143251Y-118243939D01*
X230142852Y-118211600D01*
X230141415Y-118100124D01*
X230140128Y-118027203D01*
X230000629Y-118027203D01*
X229999845Y-118089099D01*
X229996360Y-118129597D01*
X229988476Y-118156308D01*
X229974495Y-118176844D01*
X229965003Y-118186860D01*
X229926196Y-118216167D01*
X229891837Y-118218552D01*
X229856384Y-118194350D01*
X229855486Y-118193457D01*
X229841061Y-118174753D01*
X229832287Y-118149332D01*
X229827861Y-118110184D01*
X229826482Y-118050297D01*
X229826457Y-118037030D01*
X229829788Y-117954501D01*
X229840631Y-117897291D01*
X229860260Y-117862366D01*
X229889950Y-117846694D01*
X229907109Y-117845114D01*
X229947834Y-117852526D01*
X229975768Y-117876930D01*
X229992583Y-117921580D01*
X229999950Y-117989730D01*
X230000629Y-118027203D01*
X230140128Y-118027203D01*
X230139892Y-118013845D01*
X230137923Y-117948933D01*
X230135150Y-117901558D01*
X230131212Y-117867890D01*
X230125751Y-117844098D01*
X230118408Y-117826353D01*
X230108823Y-117810824D01*
X230104713Y-117804981D01*
X230050195Y-117749785D01*
X229981264Y-117718490D01*
X229901528Y-117709765D01*
X229831856Y-117718518D01*
G36*
X228715507Y-117726380D02*
G01*
X228668928Y-117753323D01*
X228636543Y-117780066D01*
X228612858Y-117808084D01*
X228596541Y-117842348D01*
X228586261Y-117887827D01*
X228580686Y-117949492D01*
X228578484Y-118032311D01*
X228578229Y-118091846D01*
X228578229Y-118310991D01*
X228639914Y-118338644D01*
X228701600Y-118366297D01*
X228708857Y-118126270D01*
X228711856Y-118036628D01*
X228715002Y-117971562D01*
X228718899Y-117926626D01*
X228724153Y-117897370D01*
X228731369Y-117879348D01*
X228741150Y-117868111D01*
X228744288Y-117865679D01*
X228791839Y-117846683D01*
X228839903Y-117854200D01*
X228868514Y-117874143D01*
X228880153Y-117888275D01*
X228888209Y-117906820D01*
X228893329Y-117934934D01*
X228896159Y-117977773D01*
X228897344Y-118040495D01*
X228897543Y-118105861D01*
X228897582Y-118187868D01*
X228898986Y-118245916D01*
X228903686Y-118285065D01*
X228913613Y-118310380D01*
X228930697Y-118326923D01*
X228956868Y-118339756D01*
X228991825Y-118353091D01*
X229030004Y-118367607D01*
X229025459Y-118109989D01*
X229023629Y-118017119D01*
X229021488Y-117948489D01*
X229018419Y-117899311D01*
X229013806Y-117864798D01*
X229007032Y-117840162D01*
X228997481Y-117820616D01*
X228985966Y-117803370D01*
X228930410Y-117748280D01*
X228862620Y-117716422D01*
X228788887Y-117708791D01*
X228715507Y-117726380D01*
G37*
X228715507Y-117726380D02*
X228668928Y-117753323D01*
X228636543Y-117780066D01*
X228612858Y-117808084D01*
X228596541Y-117842348D01*
X228586261Y-117887827D01*
X228580686Y-117949492D01*
X228578484Y-118032311D01*
X228578229Y-118091846D01*
X228578229Y-118310991D01*
X228639914Y-118338644D01*
X228701600Y-118366297D01*
X228708857Y-118126270D01*
X228711856Y-118036628D01*
X228715002Y-117971562D01*
X228718899Y-117926626D01*
X228724153Y-117897370D01*
X228731369Y-117879348D01*
X228741150Y-117868111D01*
X228744288Y-117865679D01*
X228791839Y-117846683D01*
X228839903Y-117854200D01*
X228868514Y-117874143D01*
X228880153Y-117888275D01*
X228888209Y-117906820D01*
X228893329Y-117934934D01*
X228896159Y-117977773D01*
X228897344Y-118040495D01*
X228897543Y-118105861D01*
X228897582Y-118187868D01*
X228898986Y-118245916D01*
X228903686Y-118285065D01*
X228913613Y-118310380D01*
X228930697Y-118326923D01*
X228956868Y-118339756D01*
X228991825Y-118353091D01*
X229030004Y-118367607D01*
X229025459Y-118109989D01*
X229023629Y-118017119D01*
X229021488Y-117948489D01*
X229018419Y-117899311D01*
X229013806Y-117864798D01*
X229007032Y-117840162D01*
X228997481Y-117820616D01*
X228985966Y-117803370D01*
X228930410Y-117748280D01*
X228862620Y-117716422D01*
X228788887Y-117708791D01*
X228715507Y-117726380D01*
G36*
X230390485Y-117720562D02*
G01*
X230322455Y-117756333D01*
X230272249Y-117813901D01*
X230254415Y-117850912D01*
X230240537Y-117906482D01*
X230233433Y-117976696D01*
X230232760Y-118053327D01*
X230238173Y-118128152D01*
X230249330Y-118192942D01*
X230265886Y-118239473D01*
X230270974Y-118247487D01*
X230331245Y-118307307D01*
X230402831Y-118343135D01*
X230480508Y-118353620D01*
X230559052Y-118337410D01*
X230580911Y-118327692D01*
X230623478Y-118297743D01*
X230660837Y-118258033D01*
X230664368Y-118252997D01*
X230678719Y-118228724D01*
X230688206Y-118202778D01*
X230693810Y-118168622D01*
X230696514Y-118119719D01*
X230697301Y-118049535D01*
X230697314Y-118033800D01*
X230697278Y-118028792D01*
X230552171Y-118028792D01*
X230551327Y-118095030D01*
X230548004Y-118138986D01*
X230541017Y-118167379D01*
X230529184Y-118186925D01*
X230523143Y-118193457D01*
X230488414Y-118218280D01*
X230454697Y-118217148D01*
X230420605Y-118195616D01*
X230400271Y-118172629D01*
X230388229Y-118139078D01*
X230381466Y-118086169D01*
X230381002Y-118079999D01*
X230379848Y-117984113D01*
X230391912Y-117912899D01*
X230417030Y-117866794D01*
X230455040Y-117846235D01*
X230468608Y-117845114D01*
X230504236Y-117850752D01*
X230528606Y-117870286D01*
X230543507Y-117907642D01*
X230550725Y-117966750D01*
X230552171Y-118028792D01*
X230697278Y-118028792D01*
X230696774Y-117959013D01*
X230694504Y-117906759D01*
X230689532Y-117870549D01*
X230680887Y-117843899D01*
X230667595Y-117820322D01*
X230664657Y-117815938D01*
X230615287Y-117756849D01*
X230561491Y-117722547D01*
X230495998Y-117708931D01*
X230473758Y-117708265D01*
X230390485Y-117720562D01*
G37*
X230390485Y-117720562D02*
X230322455Y-117756333D01*
X230272249Y-117813901D01*
X230254415Y-117850912D01*
X230240537Y-117906482D01*
X230233433Y-117976696D01*
X230232760Y-118053327D01*
X230238173Y-118128152D01*
X230249330Y-118192942D01*
X230265886Y-118239473D01*
X230270974Y-118247487D01*
X230331245Y-118307307D01*
X230402831Y-118343135D01*
X230480508Y-118353620D01*
X230559052Y-118337410D01*
X230580911Y-118327692D01*
X230623478Y-118297743D01*
X230660837Y-118258033D01*
X230664368Y-118252997D01*
X230678719Y-118228724D01*
X230688206Y-118202778D01*
X230693810Y-118168622D01*
X230696514Y-118119719D01*
X230697301Y-118049535D01*
X230697314Y-118033800D01*
X230697278Y-118028792D01*
X230552171Y-118028792D01*
X230551327Y-118095030D01*
X230548004Y-118138986D01*
X230541017Y-118167379D01*
X230529184Y-118186925D01*
X230523143Y-118193457D01*
X230488414Y-118218280D01*
X230454697Y-118217148D01*
X230420605Y-118195616D01*
X230400271Y-118172629D01*
X230388229Y-118139078D01*
X230381466Y-118086169D01*
X230381002Y-118079999D01*
X230379848Y-117984113D01*
X230391912Y-117912899D01*
X230417030Y-117866794D01*
X230455040Y-117846235D01*
X230468608Y-117845114D01*
X230504236Y-117850752D01*
X230528606Y-117870286D01*
X230543507Y-117907642D01*
X230550725Y-117966750D01*
X230552171Y-118028792D01*
X230697278Y-118028792D01*
X230696774Y-117959013D01*
X230694504Y-117906759D01*
X230689532Y-117870549D01*
X230680887Y-117843899D01*
X230667595Y-117820322D01*
X230664657Y-117815938D01*
X230615287Y-117756849D01*
X230561491Y-117722547D01*
X230495998Y-117708931D01*
X230473758Y-117708265D01*
X230390485Y-117720562D01*
G36*
X229263297Y-117729839D02*
G01*
X229206073Y-117768335D01*
X229161851Y-117823935D01*
X229135433Y-117894686D01*
X229130090Y-117946762D01*
X229130697Y-117968493D01*
X229135778Y-117985131D01*
X229149745Y-118000037D01*
X229177011Y-118016573D01*
X229221988Y-118038098D01*
X229289089Y-118067974D01*
X229289429Y-118068124D01*
X229351193Y-118096413D01*
X229401841Y-118121533D01*
X229436196Y-118140779D01*
X229449082Y-118151448D01*
X229449086Y-118151534D01*
X229437728Y-118174766D01*
X229411169Y-118200374D01*
X229380677Y-118218821D01*
X229365230Y-118222486D01*
X229323085Y-118209812D01*
X229286792Y-118178071D01*
X229269083Y-118143172D01*
X229252048Y-118117445D01*
X229218678Y-118088146D01*
X229179451Y-118062835D01*
X229144844Y-118049071D01*
X229137607Y-118048314D01*
X229129461Y-118060760D01*
X229128970Y-118092572D01*
X229134957Y-118135466D01*
X229146243Y-118181158D01*
X229161650Y-118221361D01*
X229162429Y-118222922D01*
X229208796Y-118287662D01*
X229268889Y-118331697D01*
X229337135Y-118353311D01*
X229407962Y-118350785D01*
X229475796Y-118322404D01*
X229478812Y-118320408D01*
X229532173Y-118272048D01*
X229567260Y-118208952D01*
X229586678Y-118125987D01*
X229589284Y-118102678D01*
X229593899Y-117992655D01*
X229588367Y-117941348D01*
X229449086Y-117941348D01*
X229447276Y-117973353D01*
X229437378Y-117982693D01*
X229412702Y-117975705D01*
X229373805Y-117959187D01*
X229330325Y-117938481D01*
X229329244Y-117937933D01*
X229292391Y-117918549D01*
X229277600Y-117905613D01*
X229281247Y-117892051D01*
X229296605Y-117874232D01*
X229335677Y-117848445D01*
X229377754Y-117846550D01*
X229415497Y-117865317D01*
X229441566Y-117901515D01*
X229449086Y-117941348D01*
X229588367Y-117941348D01*
X229584406Y-117904627D01*
X229560050Y-117834812D01*
X229526144Y-117785902D01*
X229464947Y-117736478D01*
X229397537Y-117711959D01*
X229328720Y-117710397D01*
X229263297Y-117729839D01*
G37*
X229263297Y-117729839D02*
X229206073Y-117768335D01*
X229161851Y-117823935D01*
X229135433Y-117894686D01*
X229130090Y-117946762D01*
X229130697Y-117968493D01*
X229135778Y-117985131D01*
X229149745Y-118000037D01*
X229177011Y-118016573D01*
X229221988Y-118038098D01*
X229289089Y-118067974D01*
X229289429Y-118068124D01*
X229351193Y-118096413D01*
X229401841Y-118121533D01*
X229436196Y-118140779D01*
X229449082Y-118151448D01*
X229449086Y-118151534D01*
X229437728Y-118174766D01*
X229411169Y-118200374D01*
X229380677Y-118218821D01*
X229365230Y-118222486D01*
X229323085Y-118209812D01*
X229286792Y-118178071D01*
X229269083Y-118143172D01*
X229252048Y-118117445D01*
X229218678Y-118088146D01*
X229179451Y-118062835D01*
X229144844Y-118049071D01*
X229137607Y-118048314D01*
X229129461Y-118060760D01*
X229128970Y-118092572D01*
X229134957Y-118135466D01*
X229146243Y-118181158D01*
X229161650Y-118221361D01*
X229162429Y-118222922D01*
X229208796Y-118287662D01*
X229268889Y-118331697D01*
X229337135Y-118353311D01*
X229407962Y-118350785D01*
X229475796Y-118322404D01*
X229478812Y-118320408D01*
X229532173Y-118272048D01*
X229567260Y-118208952D01*
X229586678Y-118125987D01*
X229589284Y-118102678D01*
X229593899Y-117992655D01*
X229588367Y-117941348D01*
X229449086Y-117941348D01*
X229447276Y-117973353D01*
X229437378Y-117982693D01*
X229412702Y-117975705D01*
X229373805Y-117959187D01*
X229330325Y-117938481D01*
X229329244Y-117937933D01*
X229292391Y-117918549D01*
X229277600Y-117905613D01*
X229281247Y-117892051D01*
X229296605Y-117874232D01*
X229335677Y-117848445D01*
X229377754Y-117846550D01*
X229415497Y-117865317D01*
X229441566Y-117901515D01*
X229449086Y-117941348D01*
X229588367Y-117941348D01*
X229584406Y-117904627D01*
X229560050Y-117834812D01*
X229526144Y-117785902D01*
X229464947Y-117736478D01*
X229397537Y-117711959D01*
X229328720Y-117710397D01*
X229263297Y-117729839D01*
G36*
X228055714Y-117649889D02*
G01*
X228051461Y-117709213D01*
X228046575Y-117744172D01*
X228039805Y-117759420D01*
X228029898Y-117759615D01*
X228026686Y-117757795D01*
X227983956Y-117744615D01*
X227928373Y-117745385D01*
X227871863Y-117758933D01*
X227836518Y-117776461D01*
X227800279Y-117804461D01*
X227773787Y-117836149D01*
X227755601Y-117876413D01*
X227744278Y-117930143D01*
X227738378Y-118002226D01*
X227736457Y-118097551D01*
X227736423Y-118115837D01*
X227736400Y-118321246D01*
X227782109Y-118337180D01*
X227814573Y-118348020D01*
X227832385Y-118353068D01*
X227832909Y-118353114D01*
X227834663Y-118339428D01*
X227836156Y-118301676D01*
X227837274Y-118244824D01*
X227837903Y-118173834D01*
X227838000Y-118130673D01*
X227838202Y-118045573D01*
X227839242Y-117984581D01*
X227841769Y-117942777D01*
X227846436Y-117915242D01*
X227853893Y-117897056D01*
X227864789Y-117883298D01*
X227871593Y-117876673D01*
X227918328Y-117849975D01*
X227969328Y-117847975D01*
X228015599Y-117870555D01*
X228024156Y-117878707D01*
X228036707Y-117894036D01*
X228045412Y-117912218D01*
X228050969Y-117938509D01*
X228054074Y-117978162D01*
X228055424Y-118036432D01*
X228055714Y-118116773D01*
X228055714Y-118321246D01*
X228101423Y-118337180D01*
X228133887Y-118348020D01*
X228151699Y-118353068D01*
X228152223Y-118353114D01*
X228153563Y-118339223D01*
X228154772Y-118300039D01*
X228155799Y-118239300D01*
X228156598Y-118160741D01*
X228157119Y-118068098D01*
X228157314Y-117965109D01*
X228157314Y-117567942D01*
X228110143Y-117548044D01*
X228062971Y-117528147D01*
X228055714Y-117649889D01*
G37*
X228055714Y-117649889D02*
X228051461Y-117709213D01*
X228046575Y-117744172D01*
X228039805Y-117759420D01*
X228029898Y-117759615D01*
X228026686Y-117757795D01*
X227983956Y-117744615D01*
X227928373Y-117745385D01*
X227871863Y-117758933D01*
X227836518Y-117776461D01*
X227800279Y-117804461D01*
X227773787Y-117836149D01*
X227755601Y-117876413D01*
X227744278Y-117930143D01*
X227738378Y-118002226D01*
X227736457Y-118097551D01*
X227736423Y-118115837D01*
X227736400Y-118321246D01*
X227782109Y-118337180D01*
X227814573Y-118348020D01*
X227832385Y-118353068D01*
X227832909Y-118353114D01*
X227834663Y-118339428D01*
X227836156Y-118301676D01*
X227837274Y-118244824D01*
X227837903Y-118173834D01*
X227838000Y-118130673D01*
X227838202Y-118045573D01*
X227839242Y-117984581D01*
X227841769Y-117942777D01*
X227846436Y-117915242D01*
X227853893Y-117897056D01*
X227864789Y-117883298D01*
X227871593Y-117876673D01*
X227918328Y-117849975D01*
X227969328Y-117847975D01*
X228015599Y-117870555D01*
X228024156Y-117878707D01*
X228036707Y-117894036D01*
X228045412Y-117912218D01*
X228050969Y-117938509D01*
X228054074Y-117978162D01*
X228055424Y-118036432D01*
X228055714Y-118116773D01*
X228055714Y-118321246D01*
X228101423Y-118337180D01*
X228133887Y-118348020D01*
X228151699Y-118353068D01*
X228152223Y-118353114D01*
X228153563Y-118339223D01*
X228154772Y-118300039D01*
X228155799Y-118239300D01*
X228156598Y-118160741D01*
X228157119Y-118068098D01*
X228157314Y-117965109D01*
X228157314Y-117567942D01*
X228110143Y-117548044D01*
X228062971Y-117528147D01*
X228055714Y-117649889D01*
G36*
X227391856Y-117749568D02*
G01*
X227334984Y-117770687D01*
X227334333Y-117771093D01*
X227299160Y-117796980D01*
X227273193Y-117827233D01*
X227254930Y-117866658D01*
X227242868Y-117920062D01*
X227235504Y-117992251D01*
X227231336Y-118088032D01*
X227230971Y-118101678D01*
X227225724Y-118307442D01*
X227269884Y-118330278D01*
X227301837Y-118345710D01*
X227321130Y-118353023D01*
X227322022Y-118353114D01*
X227325361Y-118339622D01*
X227328013Y-118303226D01*
X227329644Y-118250052D01*
X227330000Y-118206993D01*
X227330008Y-118137241D01*
X227333197Y-118093437D01*
X227344312Y-118072544D01*
X227368099Y-118071525D01*
X227409304Y-118087341D01*
X227471514Y-118116415D01*
X227517259Y-118140563D01*
X227540787Y-118161513D01*
X227547704Y-118184347D01*
X227547714Y-118185477D01*
X227536301Y-118224812D01*
X227502508Y-118246062D01*
X227450791Y-118249139D01*
X227413539Y-118248606D01*
X227393897Y-118259335D01*
X227381648Y-118285105D01*
X227374598Y-118317937D01*
X227384758Y-118336566D01*
X227388583Y-118339232D01*
X227424599Y-118349940D01*
X227475034Y-118351456D01*
X227526974Y-118344359D01*
X227563778Y-118331388D01*
X227614662Y-118288185D01*
X227643586Y-118228046D01*
X227649314Y-118181062D01*
X227644943Y-118138682D01*
X227629125Y-118104088D01*
X227597803Y-118073363D01*
X227546922Y-118042590D01*
X227472424Y-118007852D01*
X227467886Y-118005888D01*
X227400779Y-117974887D01*
X227359368Y-117949462D01*
X227341619Y-117926614D01*
X227345493Y-117903345D01*
X227368957Y-117876656D01*
X227375973Y-117870514D01*
X227422970Y-117846700D01*
X227471667Y-117847703D01*
X227514078Y-117871051D01*
X227542216Y-117914275D01*
X227544831Y-117922760D01*
X227570292Y-117963908D01*
X227602599Y-117983728D01*
X227649314Y-118003370D01*
X227649314Y-117952550D01*
X227635104Y-117878682D01*
X227592925Y-117810927D01*
X227570976Y-117788261D01*
X227521083Y-117759169D01*
X227457633Y-117746000D01*
X227391856Y-117749568D01*
G37*
X227391856Y-117749568D02*
X227334984Y-117770687D01*
X227334333Y-117771093D01*
X227299160Y-117796980D01*
X227273193Y-117827233D01*
X227254930Y-117866658D01*
X227242868Y-117920062D01*
X227235504Y-117992251D01*
X227231336Y-118088032D01*
X227230971Y-118101678D01*
X227225724Y-118307442D01*
X227269884Y-118330278D01*
X227301837Y-118345710D01*
X227321130Y-118353023D01*
X227322022Y-118353114D01*
X227325361Y-118339622D01*
X227328013Y-118303226D01*
X227329644Y-118250052D01*
X227330000Y-118206993D01*
X227330008Y-118137241D01*
X227333197Y-118093437D01*
X227344312Y-118072544D01*
X227368099Y-118071525D01*
X227409304Y-118087341D01*
X227471514Y-118116415D01*
X227517259Y-118140563D01*
X227540787Y-118161513D01*
X227547704Y-118184347D01*
X227547714Y-118185477D01*
X227536301Y-118224812D01*
X227502508Y-118246062D01*
X227450791Y-118249139D01*
X227413539Y-118248606D01*
X227393897Y-118259335D01*
X227381648Y-118285105D01*
X227374598Y-118317937D01*
X227384758Y-118336566D01*
X227388583Y-118339232D01*
X227424599Y-118349940D01*
X227475034Y-118351456D01*
X227526974Y-118344359D01*
X227563778Y-118331388D01*
X227614662Y-118288185D01*
X227643586Y-118228046D01*
X227649314Y-118181062D01*
X227644943Y-118138682D01*
X227629125Y-118104088D01*
X227597803Y-118073363D01*
X227546922Y-118042590D01*
X227472424Y-118007852D01*
X227467886Y-118005888D01*
X227400779Y-117974887D01*
X227359368Y-117949462D01*
X227341619Y-117926614D01*
X227345493Y-117903345D01*
X227368957Y-117876656D01*
X227375973Y-117870514D01*
X227422970Y-117846700D01*
X227471667Y-117847703D01*
X227514078Y-117871051D01*
X227542216Y-117914275D01*
X227544831Y-117922760D01*
X227570292Y-117963908D01*
X227602599Y-117983728D01*
X227649314Y-118003370D01*
X227649314Y-117952550D01*
X227635104Y-117878682D01*
X227592925Y-117810927D01*
X227570976Y-117788261D01*
X227521083Y-117759169D01*
X227457633Y-117746000D01*
X227391856Y-117749568D01*
G36*
X226901674Y-117748355D02*
G01*
X226835742Y-117772684D01*
X226782327Y-117815717D01*
X226761436Y-117846009D01*
X226738661Y-117901594D01*
X226739134Y-117941786D01*
X226763038Y-117968817D01*
X226771883Y-117973413D01*
X226810070Y-117987744D01*
X226829572Y-117984072D01*
X226836178Y-117960007D01*
X226836514Y-117946714D01*
X226848608Y-117897810D01*
X226880129Y-117863599D01*
X226923941Y-117847076D01*
X226972905Y-117851234D01*
X227012706Y-117872827D01*
X227026150Y-117885144D01*
X227035679Y-117900087D01*
X227042115Y-117922675D01*
X227046283Y-117957928D01*
X227049003Y-118010866D01*
X227051098Y-118086507D01*
X227051640Y-118110457D01*
X227053619Y-118192390D01*
X227055869Y-118250055D01*
X227059243Y-118288208D01*
X227064594Y-118311604D01*
X227072776Y-118324998D01*
X227084641Y-118333145D01*
X227092238Y-118336744D01*
X227124498Y-118349052D01*
X227143489Y-118353114D01*
X227149764Y-118339548D01*
X227153594Y-118298534D01*
X227155000Y-118229599D01*
X227154002Y-118132269D01*
X227153692Y-118117257D01*
X227151499Y-118028459D01*
X227148907Y-117963619D01*
X227145218Y-117917667D01*
X227139736Y-117885535D01*
X227131765Y-117862153D01*
X227120607Y-117842452D01*
X227114770Y-117834010D01*
X227081304Y-117796657D01*
X227043873Y-117767603D01*
X227039291Y-117765067D01*
X226972174Y-117745043D01*
X226901674Y-117748355D01*
G37*
X226901674Y-117748355D02*
X226835742Y-117772684D01*
X226782327Y-117815717D01*
X226761436Y-117846009D01*
X226738661Y-117901594D01*
X226739134Y-117941786D01*
X226763038Y-117968817D01*
X226771883Y-117973413D01*
X226810070Y-117987744D01*
X226829572Y-117984072D01*
X226836178Y-117960007D01*
X226836514Y-117946714D01*
X226848608Y-117897810D01*
X226880129Y-117863599D01*
X226923941Y-117847076D01*
X226972905Y-117851234D01*
X227012706Y-117872827D01*
X227026150Y-117885144D01*
X227035679Y-117900087D01*
X227042115Y-117922675D01*
X227046283Y-117957928D01*
X227049003Y-118010866D01*
X227051098Y-118086507D01*
X227051640Y-118110457D01*
X227053619Y-118192390D01*
X227055869Y-118250055D01*
X227059243Y-118288208D01*
X227064594Y-118311604D01*
X227072776Y-118324998D01*
X227084641Y-118333145D01*
X227092238Y-118336744D01*
X227124498Y-118349052D01*
X227143489Y-118353114D01*
X227149764Y-118339548D01*
X227153594Y-118298534D01*
X227155000Y-118229599D01*
X227154002Y-118132269D01*
X227153692Y-118117257D01*
X227151499Y-118028459D01*
X227148907Y-117963619D01*
X227145218Y-117917667D01*
X227139736Y-117885535D01*
X227131765Y-117862153D01*
X227120607Y-117842452D01*
X227114770Y-117834010D01*
X227081304Y-117796657D01*
X227043873Y-117767603D01*
X227039291Y-117765067D01*
X226972174Y-117745043D01*
X226901674Y-117748355D01*
G36*
X226241483Y-117863958D02*
G01*
X226241667Y-117972437D01*
X226242381Y-118055887D01*
X226243925Y-118118304D01*
X226246599Y-118163685D01*
X226250706Y-118196029D01*
X226256545Y-118219333D01*
X226264418Y-118237595D01*
X226270379Y-118248018D01*
X226319745Y-118304545D01*
X226382336Y-118339977D01*
X226451587Y-118352690D01*
X226520932Y-118341063D01*
X226562225Y-118320168D01*
X226605575Y-118284022D01*
X226635119Y-118239876D01*
X226652945Y-118182062D01*
X226661137Y-118104913D01*
X226662298Y-118048314D01*
X226662142Y-118044247D01*
X226560743Y-118044247D01*
X226560124Y-118109150D01*
X226557286Y-118152114D01*
X226550760Y-118180222D01*
X226539077Y-118200553D01*
X226525117Y-118215888D01*
X226478235Y-118245490D01*
X226427899Y-118248019D01*
X226380324Y-118223305D01*
X226376621Y-118219956D01*
X226360817Y-118202535D01*
X226350907Y-118181809D01*
X226345542Y-118150962D01*
X226343372Y-118103177D01*
X226343029Y-118050348D01*
X226343773Y-117983981D01*
X226346852Y-117939706D01*
X226353539Y-117910609D01*
X226365104Y-117889773D01*
X226374587Y-117878707D01*
X226418640Y-117850798D01*
X226469376Y-117847443D01*
X226517804Y-117868759D01*
X226527150Y-117876673D01*
X226543060Y-117894247D01*
X226552990Y-117915187D01*
X226558322Y-117946382D01*
X226560437Y-117994722D01*
X226560743Y-118044247D01*
X226662142Y-118044247D01*
X226658790Y-117957168D01*
X226646874Y-117888686D01*
X226624465Y-117837200D01*
X226589476Y-117797043D01*
X226562225Y-117776461D01*
X226512693Y-117754225D01*
X226455284Y-117743904D01*
X226401918Y-117746667D01*
X226372057Y-117757812D01*
X226360339Y-117760983D01*
X226352563Y-117749157D01*
X226347135Y-117717466D01*
X226343029Y-117669193D01*
X226338533Y-117615429D01*
X226332287Y-117583082D01*
X226320924Y-117564585D01*
X226301072Y-117552370D01*
X226288600Y-117546962D01*
X226241429Y-117527201D01*
X226241483Y-117863958D01*
G37*
X226241483Y-117863958D02*
X226241667Y-117972437D01*
X226242381Y-118055887D01*
X226243925Y-118118304D01*
X226246599Y-118163685D01*
X226250706Y-118196029D01*
X226256545Y-118219333D01*
X226264418Y-118237595D01*
X226270379Y-118248018D01*
X226319745Y-118304545D01*
X226382336Y-118339977D01*
X226451587Y-118352690D01*
X226520932Y-118341063D01*
X226562225Y-118320168D01*
X226605575Y-118284022D01*
X226635119Y-118239876D01*
X226652945Y-118182062D01*
X226661137Y-118104913D01*
X226662298Y-118048314D01*
X226662142Y-118044247D01*
X226560743Y-118044247D01*
X226560124Y-118109150D01*
X226557286Y-118152114D01*
X226550760Y-118180222D01*
X226539077Y-118200553D01*
X226525117Y-118215888D01*
X226478235Y-118245490D01*
X226427899Y-118248019D01*
X226380324Y-118223305D01*
X226376621Y-118219956D01*
X226360817Y-118202535D01*
X226350907Y-118181809D01*
X226345542Y-118150962D01*
X226343372Y-118103177D01*
X226343029Y-118050348D01*
X226343773Y-117983981D01*
X226346852Y-117939706D01*
X226353539Y-117910609D01*
X226365104Y-117889773D01*
X226374587Y-117878707D01*
X226418640Y-117850798D01*
X226469376Y-117847443D01*
X226517804Y-117868759D01*
X226527150Y-117876673D01*
X226543060Y-117894247D01*
X226552990Y-117915187D01*
X226558322Y-117946382D01*
X226560437Y-117994722D01*
X226560743Y-118044247D01*
X226662142Y-118044247D01*
X226658790Y-117957168D01*
X226646874Y-117888686D01*
X226624465Y-117837200D01*
X226589476Y-117797043D01*
X226562225Y-117776461D01*
X226512693Y-117754225D01*
X226455284Y-117743904D01*
X226401918Y-117746667D01*
X226372057Y-117757812D01*
X226360339Y-117760983D01*
X226352563Y-117749157D01*
X226347135Y-117717466D01*
X226343029Y-117669193D01*
X226338533Y-117615429D01*
X226332287Y-117583082D01*
X226320924Y-117564585D01*
X226301072Y-117552370D01*
X226288600Y-117546962D01*
X226241429Y-117527201D01*
X226241483Y-117863958D01*
G36*
X225651767Y-117757263D02*
G01*
X225649552Y-117795450D01*
X225647816Y-117853486D01*
X225646701Y-117926780D01*
X225646343Y-118003655D01*
X225646343Y-118263796D01*
X225692274Y-118309727D01*
X225723925Y-118338029D01*
X225751710Y-118349493D01*
X225789685Y-118348768D01*
X225804760Y-118346921D01*
X225851874Y-118341548D01*
X225890844Y-118338469D01*
X225900343Y-118338185D01*
X225932367Y-118340045D01*
X225978168Y-118344714D01*
X225995926Y-118346921D01*
X226039543Y-118350335D01*
X226068855Y-118342920D01*
X226097920Y-118320027D01*
X226108412Y-118309727D01*
X226154343Y-118263796D01*
X226154343Y-117777202D01*
X226117374Y-117760358D01*
X226085541Y-117747882D01*
X226066917Y-117743514D01*
X226062142Y-117757318D01*
X226057679Y-117795886D01*
X226053825Y-117854956D01*
X226050878Y-117930263D01*
X226049457Y-117993886D01*
X226045486Y-118244257D01*
X226010841Y-118249156D01*
X225979332Y-118245731D01*
X225963892Y-118234641D01*
X225959577Y-118213908D01*
X225955892Y-118169745D01*
X225953131Y-118107746D01*
X225951588Y-118033509D01*
X225951365Y-117995306D01*
X225951143Y-117775383D01*
X225905434Y-117759449D01*
X225873082Y-117748615D01*
X225855485Y-117743562D01*
X225854977Y-117743514D01*
X225853212Y-117757248D01*
X225851271Y-117795330D01*
X225849318Y-117853082D01*
X225847516Y-117925827D01*
X225846257Y-117993886D01*
X225842286Y-118244257D01*
X225755200Y-118244257D01*
X225751204Y-118015840D01*
X225747208Y-117787422D01*
X225704753Y-117765468D01*
X225673408Y-117750393D01*
X225654856Y-117743551D01*
X225654321Y-117743514D01*
X225651767Y-117757263D01*
G37*
X225651767Y-117757263D02*
X225649552Y-117795450D01*
X225647816Y-117853486D01*
X225646701Y-117926780D01*
X225646343Y-118003655D01*
X225646343Y-118263796D01*
X225692274Y-118309727D01*
X225723925Y-118338029D01*
X225751710Y-118349493D01*
X225789685Y-118348768D01*
X225804760Y-118346921D01*
X225851874Y-118341548D01*
X225890844Y-118338469D01*
X225900343Y-118338185D01*
X225932367Y-118340045D01*
X225978168Y-118344714D01*
X225995926Y-118346921D01*
X226039543Y-118350335D01*
X226068855Y-118342920D01*
X226097920Y-118320027D01*
X226108412Y-118309727D01*
X226154343Y-118263796D01*
X226154343Y-117777202D01*
X226117374Y-117760358D01*
X226085541Y-117747882D01*
X226066917Y-117743514D01*
X226062142Y-117757318D01*
X226057679Y-117795886D01*
X226053825Y-117854956D01*
X226050878Y-117930263D01*
X226049457Y-117993886D01*
X226045486Y-118244257D01*
X226010841Y-118249156D01*
X225979332Y-118245731D01*
X225963892Y-118234641D01*
X225959577Y-118213908D01*
X225955892Y-118169745D01*
X225953131Y-118107746D01*
X225951588Y-118033509D01*
X225951365Y-117995306D01*
X225951143Y-117775383D01*
X225905434Y-117759449D01*
X225873082Y-117748615D01*
X225855485Y-117743562D01*
X225854977Y-117743514D01*
X225853212Y-117757248D01*
X225851271Y-117795330D01*
X225849318Y-117853082D01*
X225847516Y-117925827D01*
X225846257Y-117993886D01*
X225842286Y-118244257D01*
X225755200Y-118244257D01*
X225751204Y-118015840D01*
X225747208Y-117787422D01*
X225704753Y-117765468D01*
X225673408Y-117750393D01*
X225654856Y-117743551D01*
X225654321Y-117743514D01*
X225651767Y-117757263D01*
G36*
X225286724Y-117754935D02*
G01*
X225244933Y-117773944D01*
X225212131Y-117796978D01*
X225188097Y-117822733D01*
X225171503Y-117855958D01*
X225161023Y-117901400D01*
X225155329Y-117963807D01*
X225153093Y-118047927D01*
X225152857Y-118103321D01*
X225152857Y-118319426D01*
X225189826Y-118336270D01*
X225218944Y-118348581D01*
X225233369Y-118353114D01*
X225236128Y-118339625D01*
X225238318Y-118303253D01*
X225239658Y-118250142D01*
X225239943Y-118207972D01*
X225241166Y-118147047D01*
X225244464Y-118098715D01*
X225249279Y-118069118D01*
X225253104Y-118062829D01*
X225278817Y-118069252D01*
X225319182Y-118085725D01*
X225365921Y-118108058D01*
X225410755Y-118132057D01*
X225445407Y-118153530D01*
X225461598Y-118168285D01*
X225461662Y-118168445D01*
X225460270Y-118195752D01*
X225447782Y-118221819D01*
X225425857Y-118242992D01*
X225393857Y-118250074D01*
X225366508Y-118249249D01*
X225327774Y-118248642D01*
X225307442Y-118257716D01*
X225295231Y-118281692D01*
X225293691Y-118286213D01*
X225288397Y-118320406D01*
X225302553Y-118341168D01*
X225339452Y-118351062D01*
X225379311Y-118352892D01*
X225451038Y-118339327D01*
X225488168Y-118319955D01*
X225534024Y-118274445D01*
X225558344Y-118218583D01*
X225560527Y-118159557D01*
X225539971Y-118104553D01*
X225509051Y-118070086D01*
X225478180Y-118050789D01*
X225429658Y-118026359D01*
X225373115Y-118001585D01*
X225363690Y-117997799D01*
X225301581Y-117970391D01*
X225265778Y-117946234D01*
X225254263Y-117922219D01*
X225265020Y-117895235D01*
X225283486Y-117874143D01*
X225327131Y-117848172D01*
X225375154Y-117846224D01*
X225419194Y-117866237D01*
X225450891Y-117906151D01*
X225455051Y-117916448D01*
X225479273Y-117954324D01*
X225514635Y-117982442D01*
X225559257Y-118005517D01*
X225559257Y-117940085D01*
X225556631Y-117900106D01*
X225545370Y-117868597D01*
X225520401Y-117834978D01*
X225496431Y-117809084D01*
X225459159Y-117772417D01*
X225430199Y-117752721D01*
X225399095Y-117744820D01*
X225363887Y-117743514D01*
X225286724Y-117754935D01*
G37*
X225286724Y-117754935D02*
X225244933Y-117773944D01*
X225212131Y-117796978D01*
X225188097Y-117822733D01*
X225171503Y-117855958D01*
X225161023Y-117901400D01*
X225155329Y-117963807D01*
X225153093Y-118047927D01*
X225152857Y-118103321D01*
X225152857Y-118319426D01*
X225189826Y-118336270D01*
X225218944Y-118348581D01*
X225233369Y-118353114D01*
X225236128Y-118339625D01*
X225238318Y-118303253D01*
X225239658Y-118250142D01*
X225239943Y-118207972D01*
X225241166Y-118147047D01*
X225244464Y-118098715D01*
X225249279Y-118069118D01*
X225253104Y-118062829D01*
X225278817Y-118069252D01*
X225319182Y-118085725D01*
X225365921Y-118108058D01*
X225410755Y-118132057D01*
X225445407Y-118153530D01*
X225461598Y-118168285D01*
X225461662Y-118168445D01*
X225460270Y-118195752D01*
X225447782Y-118221819D01*
X225425857Y-118242992D01*
X225393857Y-118250074D01*
X225366508Y-118249249D01*
X225327774Y-118248642D01*
X225307442Y-118257716D01*
X225295231Y-118281692D01*
X225293691Y-118286213D01*
X225288397Y-118320406D01*
X225302553Y-118341168D01*
X225339452Y-118351062D01*
X225379311Y-118352892D01*
X225451038Y-118339327D01*
X225488168Y-118319955D01*
X225534024Y-118274445D01*
X225558344Y-118218583D01*
X225560527Y-118159557D01*
X225539971Y-118104553D01*
X225509051Y-118070086D01*
X225478180Y-118050789D01*
X225429658Y-118026359D01*
X225373115Y-118001585D01*
X225363690Y-117997799D01*
X225301581Y-117970391D01*
X225265778Y-117946234D01*
X225254263Y-117922219D01*
X225265020Y-117895235D01*
X225283486Y-117874143D01*
X225327131Y-117848172D01*
X225375154Y-117846224D01*
X225419194Y-117866237D01*
X225450891Y-117906151D01*
X225455051Y-117916448D01*
X225479273Y-117954324D01*
X225514635Y-117982442D01*
X225559257Y-118005517D01*
X225559257Y-117940085D01*
X225556631Y-117900106D01*
X225545370Y-117868597D01*
X225520401Y-117834978D01*
X225496431Y-117809084D01*
X225459159Y-117772417D01*
X225430199Y-117752721D01*
X225399095Y-117744820D01*
X225363887Y-117743514D01*
X225286724Y-117754935D01*
G36*
X224779000Y-117757352D02*
G01*
X224761652Y-117764934D01*
X224720244Y-117797728D01*
X224684835Y-117845147D01*
X224662936Y-117895751D01*
X224659371Y-117920698D01*
X224671321Y-117955527D01*
X224697533Y-117973957D01*
X224725636Y-117985116D01*
X224738505Y-117987172D01*
X224744771Y-117972249D01*
X224757144Y-117939775D01*
X224762572Y-117925102D01*
X224793010Y-117874344D01*
X224837080Y-117849027D01*
X224893590Y-117849806D01*
X224897775Y-117850803D01*
X224927945Y-117865107D01*
X224950124Y-117892993D01*
X224965273Y-117937887D01*
X224974350Y-118003215D01*
X224978314Y-118092404D01*
X224978686Y-118139861D01*
X224978870Y-118214671D01*
X224980078Y-118265669D01*
X224983291Y-118298071D01*
X224989491Y-118317095D01*
X224999660Y-118327956D01*
X225014781Y-118335872D01*
X225015654Y-118336270D01*
X225044772Y-118348581D01*
X225059197Y-118353114D01*
X225061414Y-118339409D01*
X225063311Y-118301525D01*
X225064753Y-118244315D01*
X225065602Y-118172627D01*
X225065771Y-118120165D01*
X225064908Y-118018647D01*
X225061530Y-117941632D01*
X225054458Y-117884623D01*
X225042512Y-117843126D01*
X225024510Y-117812643D01*
X224999273Y-117788680D01*
X224974353Y-117771955D01*
X224914429Y-117749697D01*
X224844689Y-117744676D01*
X224779000Y-117757352D01*
G37*
X224779000Y-117757352D02*
X224761652Y-117764934D01*
X224720244Y-117797728D01*
X224684835Y-117845147D01*
X224662936Y-117895751D01*
X224659371Y-117920698D01*
X224671321Y-117955527D01*
X224697533Y-117973957D01*
X224725636Y-117985116D01*
X224738505Y-117987172D01*
X224744771Y-117972249D01*
X224757144Y-117939775D01*
X224762572Y-117925102D01*
X224793010Y-117874344D01*
X224837080Y-117849027D01*
X224893590Y-117849806D01*
X224897775Y-117850803D01*
X224927945Y-117865107D01*
X224950124Y-117892993D01*
X224965273Y-117937887D01*
X224974350Y-118003215D01*
X224978314Y-118092404D01*
X224978686Y-118139861D01*
X224978870Y-118214671D01*
X224980078Y-118265669D01*
X224983291Y-118298071D01*
X224989491Y-118317095D01*
X224999660Y-118327956D01*
X225014781Y-118335872D01*
X225015654Y-118336270D01*
X225044772Y-118348581D01*
X225059197Y-118353114D01*
X225061414Y-118339409D01*
X225063311Y-118301525D01*
X225064753Y-118244315D01*
X225065602Y-118172627D01*
X225065771Y-118120165D01*
X225064908Y-118018647D01*
X225061530Y-117941632D01*
X225054458Y-117884623D01*
X225042512Y-117843126D01*
X225024510Y-117812643D01*
X224999273Y-117788680D01*
X224974353Y-117771955D01*
X224914429Y-117749697D01*
X224844689Y-117744676D01*
X224779000Y-117757352D01*
G36*
X224278005Y-117765566D02*
G01*
X224220579Y-117803097D01*
X224192881Y-117836696D01*
X224170938Y-117897664D01*
X224169195Y-117945908D01*
X224173143Y-118010416D01*
X224321914Y-118075534D01*
X224394251Y-118108802D01*
X224441516Y-118135564D01*
X224466093Y-118158744D01*
X224470363Y-118181267D01*
X224456711Y-118206055D01*
X224441657Y-118222486D01*
X224397854Y-118248835D01*
X224350211Y-118250681D01*
X224306455Y-118230146D01*
X224274311Y-118189352D01*
X224268562Y-118174947D01*
X224241024Y-118129956D01*
X224209342Y-118110782D01*
X224165886Y-118094379D01*
X224165886Y-118156566D01*
X224169728Y-118198883D01*
X224184777Y-118234569D01*
X224216320Y-118275543D01*
X224221008Y-118280867D01*
X224256094Y-118317320D01*
X224286253Y-118336883D01*
X224323985Y-118345883D01*
X224355265Y-118348830D01*
X224411215Y-118349565D01*
X224451045Y-118340260D01*
X224475892Y-118326446D01*
X224514944Y-118296067D01*
X224541975Y-118263213D01*
X224559083Y-118221894D01*
X224568362Y-118166121D01*
X224571907Y-118089905D01*
X224572190Y-118051222D01*
X224571228Y-118004847D01*
X224483593Y-118004847D01*
X224482577Y-118029726D01*
X224480044Y-118033800D01*
X224463326Y-118028265D01*
X224427351Y-118013617D01*
X224379269Y-117992790D01*
X224369214Y-117988314D01*
X224308448Y-117957414D01*
X224274968Y-117930257D01*
X224267610Y-117904820D01*
X224285209Y-117879081D01*
X224299744Y-117867709D01*
X224352190Y-117844964D01*
X224401278Y-117848722D01*
X224442373Y-117876484D01*
X224470842Y-117925752D01*
X224479969Y-117964857D01*
X224483593Y-118004847D01*
X224571228Y-118004847D01*
X224570315Y-117960849D01*
X224563404Y-117893984D01*
X224549716Y-117845295D01*
X224527504Y-117809449D01*
X224495026Y-117781113D01*
X224480867Y-117771955D01*
X224416547Y-117748107D01*
X224346127Y-117746606D01*
X224278005Y-117765566D01*
G37*
X224278005Y-117765566D02*
X224220579Y-117803097D01*
X224192881Y-117836696D01*
X224170938Y-117897664D01*
X224169195Y-117945908D01*
X224173143Y-118010416D01*
X224321914Y-118075534D01*
X224394251Y-118108802D01*
X224441516Y-118135564D01*
X224466093Y-118158744D01*
X224470363Y-118181267D01*
X224456711Y-118206055D01*
X224441657Y-118222486D01*
X224397854Y-118248835D01*
X224350211Y-118250681D01*
X224306455Y-118230146D01*
X224274311Y-118189352D01*
X224268562Y-118174947D01*
X224241024Y-118129956D01*
X224209342Y-118110782D01*
X224165886Y-118094379D01*
X224165886Y-118156566D01*
X224169728Y-118198883D01*
X224184777Y-118234569D01*
X224216320Y-118275543D01*
X224221008Y-118280867D01*
X224256094Y-118317320D01*
X224286253Y-118336883D01*
X224323985Y-118345883D01*
X224355265Y-118348830D01*
X224411215Y-118349565D01*
X224451045Y-118340260D01*
X224475892Y-118326446D01*
X224514944Y-118296067D01*
X224541975Y-118263213D01*
X224559083Y-118221894D01*
X224568362Y-118166121D01*
X224571907Y-118089905D01*
X224572190Y-118051222D01*
X224571228Y-118004847D01*
X224483593Y-118004847D01*
X224482577Y-118029726D01*
X224480044Y-118033800D01*
X224463326Y-118028265D01*
X224427351Y-118013617D01*
X224379269Y-117992790D01*
X224369214Y-117988314D01*
X224308448Y-117957414D01*
X224274968Y-117930257D01*
X224267610Y-117904820D01*
X224285209Y-117879081D01*
X224299744Y-117867709D01*
X224352190Y-117844964D01*
X224401278Y-117848722D01*
X224442373Y-117876484D01*
X224470842Y-117925752D01*
X224479969Y-117964857D01*
X224483593Y-118004847D01*
X224571228Y-118004847D01*
X224570315Y-117960849D01*
X224563404Y-117893984D01*
X224549716Y-117845295D01*
X224527504Y-117809449D01*
X224495026Y-117781113D01*
X224480867Y-117771955D01*
X224416547Y-117748107D01*
X224346127Y-117746606D01*
X224278005Y-117765566D01*
G36*
X227327690Y-113040948D02*
G01*
X227249146Y-113041378D01*
X227192302Y-113042542D01*
X227153495Y-113044807D01*
X227129062Y-113048540D01*
X227115338Y-113054106D01*
X227108660Y-113061873D01*
X227105364Y-113072205D01*
X227105044Y-113073543D01*
X227100038Y-113097679D01*
X227090771Y-113145301D01*
X227078208Y-113211341D01*
X227063313Y-113290728D01*
X227047049Y-113378396D01*
X227046481Y-113381475D01*
X227030190Y-113467389D01*
X227014948Y-113543296D01*
X227001739Y-113604645D01*
X226991546Y-113646882D01*
X226985352Y-113665455D01*
X226985057Y-113665784D01*
X226966812Y-113674853D01*
X226929195Y-113689967D01*
X226880329Y-113707862D01*
X226880057Y-113707958D01*
X226818507Y-113731093D01*
X226745943Y-113760565D01*
X226677543Y-113790197D01*
X226674306Y-113791662D01*
X226562898Y-113842226D01*
X226316201Y-113673760D01*
X226240523Y-113622403D01*
X226171969Y-113576489D01*
X226114512Y-113538630D01*
X226072124Y-113511437D01*
X226048775Y-113497521D01*
X226046558Y-113496489D01*
X226029590Y-113501084D01*
X225997899Y-113523255D01*
X225950248Y-113564047D01*
X225885402Y-113624505D01*
X225819203Y-113688827D01*
X225755386Y-113752212D01*
X225698271Y-113810051D01*
X225651295Y-113858775D01*
X225617897Y-113894810D01*
X225601515Y-113914584D01*
X225600906Y-113915602D01*
X225599095Y-113929172D01*
X225605917Y-113951333D01*
X225623060Y-113985078D01*
X225652207Y-114033400D01*
X225695045Y-114099292D01*
X225752152Y-114184117D01*
X225802834Y-114258777D01*
X225848139Y-114325740D01*
X225885450Y-114381116D01*
X225912148Y-114421020D01*
X225925615Y-114441562D01*
X225926463Y-114442956D01*
X225924819Y-114462638D01*
X225912355Y-114500893D01*
X225891552Y-114550489D01*
X225884138Y-114566328D01*
X225851786Y-114636890D01*
X225817272Y-114716953D01*
X225789235Y-114786229D01*
X225769032Y-114837645D01*
X225752985Y-114876719D01*
X225743712Y-114897141D01*
X225742559Y-114898714D01*
X225725504Y-114901321D01*
X225685302Y-114908463D01*
X225627298Y-114919123D01*
X225556837Y-114932285D01*
X225479265Y-114946933D01*
X225399928Y-114962049D01*
X225324169Y-114976618D01*
X225257336Y-114989622D01*
X225204772Y-115000045D01*
X225171824Y-115006870D01*
X225163743Y-115008799D01*
X225155395Y-115013562D01*
X225149094Y-115024318D01*
X225144555Y-115044698D01*
X225141496Y-115078334D01*
X225139633Y-115128855D01*
X225138682Y-115199892D01*
X225138360Y-115295076D01*
X225138343Y-115334092D01*
X225138343Y-115651399D01*
X225214543Y-115666439D01*
X225256937Y-115674595D01*
X225320200Y-115686499D01*
X225396638Y-115700716D01*
X225478557Y-115715810D01*
X225501200Y-115719955D01*
X225576794Y-115734653D01*
X225642647Y-115749105D01*
X225693234Y-115761975D01*
X225723026Y-115771922D01*
X225727988Y-115774887D01*
X225740174Y-115795883D01*
X225757647Y-115836567D01*
X225777023Y-115888922D01*
X225780866Y-115900200D01*
X225806261Y-115970123D01*
X225837783Y-116049018D01*
X225868631Y-116119866D01*
X225868783Y-116120195D01*
X225920153Y-116231333D01*
X225751201Y-116479853D01*
X225582248Y-116728372D01*
X225799171Y-116945658D01*
X225864781Y-117010326D01*
X225924621Y-117067333D01*
X225975333Y-117113633D01*
X226013554Y-117146184D01*
X226035925Y-117161943D01*
X226039134Y-117162943D01*
X226057974Y-117155069D01*
X226096420Y-117133178D01*
X226150270Y-117099867D01*
X226215324Y-117057731D01*
X226285660Y-117010543D01*
X226357045Y-116962410D01*
X226420692Y-116920528D01*
X226472559Y-116887471D01*
X226508605Y-116865818D01*
X226524733Y-116858143D01*
X226544411Y-116864637D01*
X226581725Y-116881750D01*
X226628979Y-116905926D01*
X226633988Y-116908613D01*
X226697623Y-116940527D01*
X226741259Y-116956179D01*
X226768398Y-116956345D01*
X226782543Y-116941804D01*
X226782625Y-116941600D01*
X226789695Y-116924379D01*
X226806558Y-116883499D01*
X226831905Y-116822125D01*
X226864429Y-116743419D01*
X226902822Y-116650547D01*
X226945778Y-116546672D01*
X226987378Y-116446102D01*
X227033096Y-116335116D01*
X227075074Y-116232303D01*
X227112052Y-116140815D01*
X227142773Y-116063801D01*
X227165978Y-116004415D01*
X227180410Y-115965809D01*
X227184857Y-115951400D01*
X227173704Y-115934872D01*
X227144531Y-115908530D01*
X227105629Y-115879487D01*
X226994843Y-115787639D01*
X226908249Y-115682359D01*
X226846884Y-115565866D01*
X226811785Y-115440376D01*
X226803992Y-115308107D01*
X226809657Y-115247057D01*
X226840522Y-115120395D01*
X226893680Y-115008541D01*
X226965833Y-114912601D01*
X227053683Y-114833676D01*
X227153935Y-114772870D01*
X227263290Y-114731287D01*
X227378453Y-114710028D01*
X227496125Y-114710199D01*
X227613010Y-114732901D01*
X227725811Y-114779238D01*
X227831231Y-114850313D01*
X227875232Y-114890511D01*
X227959621Y-114993729D01*
X228018378Y-115106525D01*
X228051896Y-115225610D01*
X228060565Y-115347695D01*
X228044777Y-115469493D01*
X228004922Y-115587716D01*
X227941393Y-115699075D01*
X227854579Y-115800284D01*
X227757571Y-115879487D01*
X227717163Y-115909762D01*
X227688618Y-115935819D01*
X227678343Y-115951425D01*
X227683723Y-115968443D01*
X227699025Y-116009100D01*
X227722988Y-116070242D01*
X227754356Y-116148719D01*
X227791868Y-116241380D01*
X227834267Y-116345072D01*
X227875937Y-116446126D01*
X227921910Y-116557207D01*
X227964493Y-116660141D01*
X228002379Y-116751765D01*
X228034260Y-116828916D01*
X228058829Y-116888431D01*
X228074780Y-116927144D01*
X228080690Y-116941600D01*
X228094652Y-116956285D01*
X228121660Y-116956242D01*
X228165187Y-116940699D01*
X228228710Y-116908884D01*
X228229212Y-116908613D01*
X228277040Y-116883923D01*
X228315703Y-116865938D01*
X228337505Y-116858214D01*
X228338467Y-116858143D01*
X228354879Y-116865978D01*
X228391113Y-116887765D01*
X228443126Y-116920928D01*
X228506875Y-116962891D01*
X228577540Y-117010543D01*
X228649484Y-117058791D01*
X228714326Y-117100751D01*
X228767865Y-117133827D01*
X228805903Y-117155421D01*
X228824067Y-117162943D01*
X228840792Y-117153057D01*
X228874420Y-117125426D01*
X228921590Y-117083095D01*
X228978942Y-117029105D01*
X229043116Y-116966499D01*
X229064103Y-116945583D01*
X229281101Y-116728223D01*
X229115932Y-116485820D01*
X229065736Y-116411381D01*
X229021681Y-116344572D01*
X228986238Y-116289265D01*
X228961881Y-116249329D01*
X228951078Y-116228636D01*
X228950762Y-116227163D01*
X228956457Y-116207658D01*
X228971774Y-116168422D01*
X228994063Y-116116030D01*
X229009707Y-116080955D01*
X229038959Y-116013801D01*
X229066506Y-115945958D01*
X229087863Y-115888634D01*
X229093665Y-115871172D01*
X229110148Y-115824538D01*
X229126260Y-115788505D01*
X229135110Y-115774887D01*
X229154640Y-115766552D01*
X229197266Y-115754737D01*
X229257455Y-115740781D01*
X229329678Y-115726022D01*
X229362000Y-115719955D01*
X229444078Y-115704873D01*
X229522805Y-115690269D01*
X229590491Y-115677580D01*
X229639440Y-115668242D01*
X229648657Y-115666439D01*
X229724857Y-115651399D01*
X229724857Y-115334092D01*
X229724686Y-115229754D01*
X229723984Y-115150813D01*
X229722466Y-115093638D01*
X229719851Y-115054599D01*
X229715854Y-115030065D01*
X229710191Y-115016405D01*
X229702580Y-115009989D01*
X229699457Y-115008799D01*
X229680622Y-115004580D01*
X229639012Y-114996162D01*
X229579970Y-114984561D01*
X229508843Y-114970795D01*
X229430975Y-114955880D01*
X229351713Y-114940832D01*
X229276402Y-114926669D01*
X229210387Y-114914406D01*
X229159013Y-114905061D01*
X229127625Y-114899650D01*
X229120641Y-114898714D01*
X229114315Y-114886196D01*
X229100310Y-114852846D01*
X229081245Y-114804977D01*
X229073966Y-114786229D01*
X229044604Y-114713795D01*
X229010029Y-114633770D01*
X228979063Y-114566328D01*
X228956277Y-114514759D01*
X228941118Y-114472385D01*
X228936058Y-114446434D01*
X228936864Y-114442956D01*
X228947559Y-114426536D01*
X228971980Y-114390017D01*
X229007505Y-114337287D01*
X229051513Y-114272235D01*
X229101383Y-114198751D01*
X229111244Y-114184245D01*
X229169108Y-114098304D01*
X229211644Y-114032861D01*
X229240546Y-113984904D01*
X229257510Y-113951420D01*
X229264233Y-113929395D01*
X229262410Y-113915817D01*
X229262364Y-113915731D01*
X229248014Y-113897897D01*
X229216277Y-113863417D01*
X229170590Y-113815868D01*
X229114396Y-113758822D01*
X229051132Y-113695855D01*
X229043998Y-113688827D01*
X228964270Y-113611620D01*
X228902743Y-113554930D01*
X228858179Y-113517710D01*
X228829343Y-113498915D01*
X228816642Y-113496489D01*
X228798106Y-113507071D01*
X228759639Y-113531516D01*
X228705214Y-113567212D01*
X228638802Y-113611547D01*
X228564375Y-113661911D01*
X228546999Y-113673760D01*
X228300303Y-113842226D01*
X228188894Y-113791662D01*
X228121143Y-113762195D01*
X228048417Y-113732559D01*
X227985897Y-113708930D01*
X227983143Y-113707958D01*
X227934240Y-113690057D01*
X227896543Y-113674920D01*
X227878175Y-113665810D01*
X227878144Y-113665784D01*
X227872315Y-113649317D01*
X227862408Y-113608819D01*
X227849405Y-113548842D01*
X227834291Y-113473940D01*
X227818048Y-113388664D01*
X227816719Y-113381475D01*
X227800425Y-113293614D01*
X227785467Y-113213860D01*
X227772809Y-113147281D01*
X227763414Y-113098947D01*
X227758246Y-113073925D01*
X227758156Y-113073543D01*
X227755011Y-113062899D01*
X227748896Y-113054862D01*
X227736147Y-113049067D01*
X227713100Y-113045147D01*
X227676091Y-113042735D01*
X227621456Y-113041465D01*
X227545533Y-113040971D01*
X227444656Y-113040886D01*
X227431600Y-113040886D01*
X227327690Y-113040948D01*
G37*
X227327690Y-113040948D02*
X227249146Y-113041378D01*
X227192302Y-113042542D01*
X227153495Y-113044807D01*
X227129062Y-113048540D01*
X227115338Y-113054106D01*
X227108660Y-113061873D01*
X227105364Y-113072205D01*
X227105044Y-113073543D01*
X227100038Y-113097679D01*
X227090771Y-113145301D01*
X227078208Y-113211341D01*
X227063313Y-113290728D01*
X227047049Y-113378396D01*
X227046481Y-113381475D01*
X227030190Y-113467389D01*
X227014948Y-113543296D01*
X227001739Y-113604645D01*
X226991546Y-113646882D01*
X226985352Y-113665455D01*
X226985057Y-113665784D01*
X226966812Y-113674853D01*
X226929195Y-113689967D01*
X226880329Y-113707862D01*
X226880057Y-113707958D01*
X226818507Y-113731093D01*
X226745943Y-113760565D01*
X226677543Y-113790197D01*
X226674306Y-113791662D01*
X226562898Y-113842226D01*
X226316201Y-113673760D01*
X226240523Y-113622403D01*
X226171969Y-113576489D01*
X226114512Y-113538630D01*
X226072124Y-113511437D01*
X226048775Y-113497521D01*
X226046558Y-113496489D01*
X226029590Y-113501084D01*
X225997899Y-113523255D01*
X225950248Y-113564047D01*
X225885402Y-113624505D01*
X225819203Y-113688827D01*
X225755386Y-113752212D01*
X225698271Y-113810051D01*
X225651295Y-113858775D01*
X225617897Y-113894810D01*
X225601515Y-113914584D01*
X225600906Y-113915602D01*
X225599095Y-113929172D01*
X225605917Y-113951333D01*
X225623060Y-113985078D01*
X225652207Y-114033400D01*
X225695045Y-114099292D01*
X225752152Y-114184117D01*
X225802834Y-114258777D01*
X225848139Y-114325740D01*
X225885450Y-114381116D01*
X225912148Y-114421020D01*
X225925615Y-114441562D01*
X225926463Y-114442956D01*
X225924819Y-114462638D01*
X225912355Y-114500893D01*
X225891552Y-114550489D01*
X225884138Y-114566328D01*
X225851786Y-114636890D01*
X225817272Y-114716953D01*
X225789235Y-114786229D01*
X225769032Y-114837645D01*
X225752985Y-114876719D01*
X225743712Y-114897141D01*
X225742559Y-114898714D01*
X225725504Y-114901321D01*
X225685302Y-114908463D01*
X225627298Y-114919123D01*
X225556837Y-114932285D01*
X225479265Y-114946933D01*
X225399928Y-114962049D01*
X225324169Y-114976618D01*
X225257336Y-114989622D01*
X225204772Y-115000045D01*
X225171824Y-115006870D01*
X225163743Y-115008799D01*
X225155395Y-115013562D01*
X225149094Y-115024318D01*
X225144555Y-115044698D01*
X225141496Y-115078334D01*
X225139633Y-115128855D01*
X225138682Y-115199892D01*
X225138360Y-115295076D01*
X225138343Y-115334092D01*
X225138343Y-115651399D01*
X225214543Y-115666439D01*
X225256937Y-115674595D01*
X225320200Y-115686499D01*
X225396638Y-115700716D01*
X225478557Y-115715810D01*
X225501200Y-115719955D01*
X225576794Y-115734653D01*
X225642647Y-115749105D01*
X225693234Y-115761975D01*
X225723026Y-115771922D01*
X225727988Y-115774887D01*
X225740174Y-115795883D01*
X225757647Y-115836567D01*
X225777023Y-115888922D01*
X225780866Y-115900200D01*
X225806261Y-115970123D01*
X225837783Y-116049018D01*
X225868631Y-116119866D01*
X225868783Y-116120195D01*
X225920153Y-116231333D01*
X225751201Y-116479853D01*
X225582248Y-116728372D01*
X225799171Y-116945658D01*
X225864781Y-117010326D01*
X225924621Y-117067333D01*
X225975333Y-117113633D01*
X226013554Y-117146184D01*
X226035925Y-117161943D01*
X226039134Y-117162943D01*
X226057974Y-117155069D01*
X226096420Y-117133178D01*
X226150270Y-117099867D01*
X226215324Y-117057731D01*
X226285660Y-117010543D01*
X226357045Y-116962410D01*
X226420692Y-116920528D01*
X226472559Y-116887471D01*
X226508605Y-116865818D01*
X226524733Y-116858143D01*
X226544411Y-116864637D01*
X226581725Y-116881750D01*
X226628979Y-116905926D01*
X226633988Y-116908613D01*
X226697623Y-116940527D01*
X226741259Y-116956179D01*
X226768398Y-116956345D01*
X226782543Y-116941804D01*
X226782625Y-116941600D01*
X226789695Y-116924379D01*
X226806558Y-116883499D01*
X226831905Y-116822125D01*
X226864429Y-116743419D01*
X226902822Y-116650547D01*
X226945778Y-116546672D01*
X226987378Y-116446102D01*
X227033096Y-116335116D01*
X227075074Y-116232303D01*
X227112052Y-116140815D01*
X227142773Y-116063801D01*
X227165978Y-116004415D01*
X227180410Y-115965809D01*
X227184857Y-115951400D01*
X227173704Y-115934872D01*
X227144531Y-115908530D01*
X227105629Y-115879487D01*
X226994843Y-115787639D01*
X226908249Y-115682359D01*
X226846884Y-115565866D01*
X226811785Y-115440376D01*
X226803992Y-115308107D01*
X226809657Y-115247057D01*
X226840522Y-115120395D01*
X226893680Y-115008541D01*
X226965833Y-114912601D01*
X227053683Y-114833676D01*
X227153935Y-114772870D01*
X227263290Y-114731287D01*
X227378453Y-114710028D01*
X227496125Y-114710199D01*
X227613010Y-114732901D01*
X227725811Y-114779238D01*
X227831231Y-114850313D01*
X227875232Y-114890511D01*
X227959621Y-114993729D01*
X228018378Y-115106525D01*
X228051896Y-115225610D01*
X228060565Y-115347695D01*
X228044777Y-115469493D01*
X228004922Y-115587716D01*
X227941393Y-115699075D01*
X227854579Y-115800284D01*
X227757571Y-115879487D01*
X227717163Y-115909762D01*
X227688618Y-115935819D01*
X227678343Y-115951425D01*
X227683723Y-115968443D01*
X227699025Y-116009100D01*
X227722988Y-116070242D01*
X227754356Y-116148719D01*
X227791868Y-116241380D01*
X227834267Y-116345072D01*
X227875937Y-116446126D01*
X227921910Y-116557207D01*
X227964493Y-116660141D01*
X228002379Y-116751765D01*
X228034260Y-116828916D01*
X228058829Y-116888431D01*
X228074780Y-116927144D01*
X228080690Y-116941600D01*
X228094652Y-116956285D01*
X228121660Y-116956242D01*
X228165187Y-116940699D01*
X228228710Y-116908884D01*
X228229212Y-116908613D01*
X228277040Y-116883923D01*
X228315703Y-116865938D01*
X228337505Y-116858214D01*
X228338467Y-116858143D01*
X228354879Y-116865978D01*
X228391113Y-116887765D01*
X228443126Y-116920928D01*
X228506875Y-116962891D01*
X228577540Y-117010543D01*
X228649484Y-117058791D01*
X228714326Y-117100751D01*
X228767865Y-117133827D01*
X228805903Y-117155421D01*
X228824067Y-117162943D01*
X228840792Y-117153057D01*
X228874420Y-117125426D01*
X228921590Y-117083095D01*
X228978942Y-117029105D01*
X229043116Y-116966499D01*
X229064103Y-116945583D01*
X229281101Y-116728223D01*
X229115932Y-116485820D01*
X229065736Y-116411381D01*
X229021681Y-116344572D01*
X228986238Y-116289265D01*
X228961881Y-116249329D01*
X228951078Y-116228636D01*
X228950762Y-116227163D01*
X228956457Y-116207658D01*
X228971774Y-116168422D01*
X228994063Y-116116030D01*
X229009707Y-116080955D01*
X229038959Y-116013801D01*
X229066506Y-115945958D01*
X229087863Y-115888634D01*
X229093665Y-115871172D01*
X229110148Y-115824538D01*
X229126260Y-115788505D01*
X229135110Y-115774887D01*
X229154640Y-115766552D01*
X229197266Y-115754737D01*
X229257455Y-115740781D01*
X229329678Y-115726022D01*
X229362000Y-115719955D01*
X229444078Y-115704873D01*
X229522805Y-115690269D01*
X229590491Y-115677580D01*
X229639440Y-115668242D01*
X229648657Y-115666439D01*
X229724857Y-115651399D01*
X229724857Y-115334092D01*
X229724686Y-115229754D01*
X229723984Y-115150813D01*
X229722466Y-115093638D01*
X229719851Y-115054599D01*
X229715854Y-115030065D01*
X229710191Y-115016405D01*
X229702580Y-115009989D01*
X229699457Y-115008799D01*
X229680622Y-115004580D01*
X229639012Y-114996162D01*
X229579970Y-114984561D01*
X229508843Y-114970795D01*
X229430975Y-114955880D01*
X229351713Y-114940832D01*
X229276402Y-114926669D01*
X229210387Y-114914406D01*
X229159013Y-114905061D01*
X229127625Y-114899650D01*
X229120641Y-114898714D01*
X229114315Y-114886196D01*
X229100310Y-114852846D01*
X229081245Y-114804977D01*
X229073966Y-114786229D01*
X229044604Y-114713795D01*
X229010029Y-114633770D01*
X228979063Y-114566328D01*
X228956277Y-114514759D01*
X228941118Y-114472385D01*
X228936058Y-114446434D01*
X228936864Y-114442956D01*
X228947559Y-114426536D01*
X228971980Y-114390017D01*
X229007505Y-114337287D01*
X229051513Y-114272235D01*
X229101383Y-114198751D01*
X229111244Y-114184245D01*
X229169108Y-114098304D01*
X229211644Y-114032861D01*
X229240546Y-113984904D01*
X229257510Y-113951420D01*
X229264233Y-113929395D01*
X229262410Y-113915817D01*
X229262364Y-113915731D01*
X229248014Y-113897897D01*
X229216277Y-113863417D01*
X229170590Y-113815868D01*
X229114396Y-113758822D01*
X229051132Y-113695855D01*
X229043998Y-113688827D01*
X228964270Y-113611620D01*
X228902743Y-113554930D01*
X228858179Y-113517710D01*
X228829343Y-113498915D01*
X228816642Y-113496489D01*
X228798106Y-113507071D01*
X228759639Y-113531516D01*
X228705214Y-113567212D01*
X228638802Y-113611547D01*
X228564375Y-113661911D01*
X228546999Y-113673760D01*
X228300303Y-113842226D01*
X228188894Y-113791662D01*
X228121143Y-113762195D01*
X228048417Y-113732559D01*
X227985897Y-113708930D01*
X227983143Y-113707958D01*
X227934240Y-113690057D01*
X227896543Y-113674920D01*
X227878175Y-113665810D01*
X227878144Y-113665784D01*
X227872315Y-113649317D01*
X227862408Y-113608819D01*
X227849405Y-113548842D01*
X227834291Y-113473940D01*
X227818048Y-113388664D01*
X227816719Y-113381475D01*
X227800425Y-113293614D01*
X227785467Y-113213860D01*
X227772809Y-113147281D01*
X227763414Y-113098947D01*
X227758246Y-113073925D01*
X227758156Y-113073543D01*
X227755011Y-113062899D01*
X227748896Y-113054862D01*
X227736147Y-113049067D01*
X227713100Y-113045147D01*
X227676091Y-113042735D01*
X227621456Y-113041465D01*
X227545533Y-113040971D01*
X227444656Y-113040886D01*
X227431600Y-113040886D01*
X227327690Y-113040948D01*
%TO.C,G\u002A\u002A\u002A*%
G36*
X220648524Y-119204746D02*
G01*
X222140780Y-117713504D01*
X222140780Y-118605172D01*
X222135643Y-119025641D01*
X222119962Y-119324717D01*
X222093326Y-119507602D01*
X222064580Y-119573040D01*
X221956269Y-119613859D01*
X221736666Y-119639841D01*
X221420800Y-119649233D01*
X221410717Y-119649241D01*
X220833054Y-119649240D01*
X220585030Y-119903240D01*
X220337005Y-120157240D01*
X221368779Y-120157240D01*
X221774961Y-120158620D01*
X222090080Y-120153271D01*
X222325641Y-120126962D01*
X222493153Y-120065462D01*
X222604122Y-119954540D01*
X222670055Y-119779964D01*
X222702458Y-119527504D01*
X222712839Y-119182927D01*
X222712705Y-118732004D01*
X222712280Y-118495655D01*
X222712280Y-117145798D01*
X223246722Y-116601240D01*
X222979501Y-116328962D01*
X222712280Y-116056683D01*
X222712280Y-114706826D01*
X222713396Y-114204476D01*
X222709073Y-113814750D01*
X222687800Y-113523417D01*
X222638069Y-113316245D01*
X222548368Y-113179003D01*
X222407188Y-113097460D01*
X222203021Y-113057385D01*
X221924355Y-113044546D01*
X221559682Y-113044714D01*
X221368445Y-113045240D01*
X220336337Y-113045240D01*
X220616780Y-113330990D01*
X220897222Y-113616740D01*
X221442801Y-113616740D01*
X221746043Y-113626066D01*
X221959795Y-113652522D01*
X222064580Y-113692941D01*
X222100869Y-113791329D01*
X222125333Y-114004732D01*
X222138322Y-114337465D01*
X222140780Y-114629059D01*
X222140780Y-115488977D01*
X220663908Y-114013109D01*
X220308558Y-113658920D01*
X219982050Y-113335245D01*
X219695134Y-113052601D01*
X219458557Y-112821505D01*
X219283068Y-112652475D01*
X219179414Y-112556028D01*
X219155616Y-112537240D01*
X219104882Y-112580511D01*
X218975179Y-112703383D01*
X218777136Y-112895447D01*
X218521376Y-113146294D01*
X218218528Y-113445515D01*
X217879216Y-113782700D01*
X217616237Y-114045198D01*
X216108280Y-115553156D01*
X216108280Y-114661148D01*
X216113412Y-114240621D01*
X216129082Y-113941478D01*
X216155701Y-113758510D01*
X216184479Y-113692941D01*
X216292785Y-113652119D01*
X216512349Y-113626136D01*
X216828105Y-113616747D01*
X216838008Y-113616740D01*
X217415337Y-113616740D01*
X217695780Y-113330990D01*
X217976222Y-113045240D01*
X216944114Y-113045240D01*
X216537831Y-113043860D01*
X216222633Y-113049205D01*
X215987012Y-113075508D01*
X215819459Y-113136999D01*
X215708462Y-113247909D01*
X215642513Y-113422470D01*
X215610101Y-113674914D01*
X215599718Y-114019470D01*
X215599853Y-114470370D01*
X215600279Y-114706826D01*
X215600279Y-116056683D01*
X215333058Y-116328962D01*
X215065838Y-116601240D01*
X215333058Y-116873519D01*
X215600279Y-117145798D01*
X215600279Y-118495655D01*
X215599164Y-118998005D01*
X215603489Y-119387730D01*
X215624762Y-119679063D01*
X215674488Y-119886234D01*
X215764176Y-120023476D01*
X215905332Y-120105019D01*
X216109463Y-120145094D01*
X216388076Y-120157933D01*
X216752677Y-120157767D01*
X216943780Y-120157240D01*
X217975554Y-120157240D01*
X217727530Y-119903240D01*
X217479505Y-119649240D01*
X216870092Y-119649240D01*
X216537131Y-119640724D01*
X216305947Y-119616051D01*
X216188357Y-119576533D01*
X216184479Y-119573040D01*
X216149724Y-119479969D01*
X216125749Y-119277394D01*
X216112104Y-118959389D01*
X216108280Y-118573412D01*
X216108280Y-117649983D01*
X216998565Y-118539689D01*
X217568780Y-118539689D01*
X217594219Y-118470086D01*
X217659181Y-118325505D01*
X217708433Y-118222189D01*
X217815895Y-118036084D01*
X217917351Y-117949307D01*
X217994183Y-117934740D01*
X218140280Y-117934740D01*
X218140280Y-115267740D01*
X217994183Y-115267740D01*
X217883301Y-115234205D01*
X217782515Y-115117537D01*
X217708433Y-114980292D01*
X217628313Y-114809907D01*
X217577799Y-114691955D01*
X217568780Y-114662792D01*
X217629445Y-114654577D01*
X217800107Y-114647219D01*
X218063763Y-114641039D01*
X218403409Y-114636359D01*
X218802044Y-114633500D01*
X219156280Y-114632740D01*
X219590213Y-114633889D01*
X219978921Y-114637120D01*
X220305402Y-114642111D01*
X220552653Y-114648540D01*
X220703672Y-114656086D01*
X220743780Y-114662792D01*
X220718340Y-114732395D01*
X220653378Y-114876976D01*
X220604126Y-114980292D01*
X220496664Y-115166397D01*
X220395208Y-115253174D01*
X220318376Y-115267740D01*
X220172280Y-115267740D01*
X220172280Y-117934740D01*
X220318376Y-117934740D01*
X220429258Y-117968276D01*
X220530044Y-118084944D01*
X220604126Y-118222189D01*
X220684246Y-118392574D01*
X220734760Y-118510526D01*
X220743780Y-118539689D01*
X220683114Y-118547904D01*
X220512452Y-118555262D01*
X220248796Y-118561442D01*
X219909150Y-118566122D01*
X219510515Y-118568981D01*
X219156280Y-118569740D01*
X218722346Y-118568592D01*
X218333638Y-118565361D01*
X218007157Y-118560370D01*
X217759906Y-118553941D01*
X217608887Y-118546395D01*
X217568780Y-118539689D01*
X216998565Y-118539689D01*
X217632274Y-119172985D01*
X219156269Y-120695987D01*
X220648524Y-119204746D01*
G37*
X220648524Y-119204746D02*
X222140780Y-117713504D01*
X222140780Y-118605172D01*
X222135643Y-119025641D01*
X222119962Y-119324717D01*
X222093326Y-119507602D01*
X222064580Y-119573040D01*
X221956269Y-119613859D01*
X221736666Y-119639841D01*
X221420800Y-119649233D01*
X221410717Y-119649241D01*
X220833054Y-119649240D01*
X220585030Y-119903240D01*
X220337005Y-120157240D01*
X221368779Y-120157240D01*
X221774961Y-120158620D01*
X222090080Y-120153271D01*
X222325641Y-120126962D01*
X222493153Y-120065462D01*
X222604122Y-119954540D01*
X222670055Y-119779964D01*
X222702458Y-119527504D01*
X222712839Y-119182927D01*
X222712705Y-118732004D01*
X222712280Y-118495655D01*
X222712280Y-117145798D01*
X223246722Y-116601240D01*
X222979501Y-116328962D01*
X222712280Y-116056683D01*
X222712280Y-114706826D01*
X222713396Y-114204476D01*
X222709073Y-113814750D01*
X222687800Y-113523417D01*
X222638069Y-113316245D01*
X222548368Y-113179003D01*
X222407188Y-113097460D01*
X222203021Y-113057385D01*
X221924355Y-113044546D01*
X221559682Y-113044714D01*
X221368445Y-113045240D01*
X220336337Y-113045240D01*
X220616780Y-113330990D01*
X220897222Y-113616740D01*
X221442801Y-113616740D01*
X221746043Y-113626066D01*
X221959795Y-113652522D01*
X222064580Y-113692941D01*
X222100869Y-113791329D01*
X222125333Y-114004732D01*
X222138322Y-114337465D01*
X222140780Y-114629059D01*
X222140780Y-115488977D01*
X220663908Y-114013109D01*
X220308558Y-113658920D01*
X219982050Y-113335245D01*
X219695134Y-113052601D01*
X219458557Y-112821505D01*
X219283068Y-112652475D01*
X219179414Y-112556028D01*
X219155616Y-112537240D01*
X219104882Y-112580511D01*
X218975179Y-112703383D01*
X218777136Y-112895447D01*
X218521376Y-113146294D01*
X218218528Y-113445515D01*
X217879216Y-113782700D01*
X217616237Y-114045198D01*
X216108280Y-115553156D01*
X216108280Y-114661148D01*
X216113412Y-114240621D01*
X216129082Y-113941478D01*
X216155701Y-113758510D01*
X216184479Y-113692941D01*
X216292785Y-113652119D01*
X216512349Y-113626136D01*
X216828105Y-113616747D01*
X216838008Y-113616740D01*
X217415337Y-113616740D01*
X217695780Y-113330990D01*
X217976222Y-113045240D01*
X216944114Y-113045240D01*
X216537831Y-113043860D01*
X216222633Y-113049205D01*
X215987012Y-113075508D01*
X215819459Y-113136999D01*
X215708462Y-113247909D01*
X215642513Y-113422470D01*
X215610101Y-113674914D01*
X215599718Y-114019470D01*
X215599853Y-114470370D01*
X215600279Y-114706826D01*
X215600279Y-116056683D01*
X215333058Y-116328962D01*
X215065838Y-116601240D01*
X215333058Y-116873519D01*
X215600279Y-117145798D01*
X215600279Y-118495655D01*
X215599164Y-118998005D01*
X215603489Y-119387730D01*
X215624762Y-119679063D01*
X215674488Y-119886234D01*
X215764176Y-120023476D01*
X215905332Y-120105019D01*
X216109463Y-120145094D01*
X216388076Y-120157933D01*
X216752677Y-120157767D01*
X216943780Y-120157240D01*
X217975554Y-120157240D01*
X217727530Y-119903240D01*
X217479505Y-119649240D01*
X216870092Y-119649240D01*
X216537131Y-119640724D01*
X216305947Y-119616051D01*
X216188357Y-119576533D01*
X216184479Y-119573040D01*
X216149724Y-119479969D01*
X216125749Y-119277394D01*
X216112104Y-118959389D01*
X216108280Y-118573412D01*
X216108280Y-117649983D01*
X216998565Y-118539689D01*
X217568780Y-118539689D01*
X217594219Y-118470086D01*
X217659181Y-118325505D01*
X217708433Y-118222189D01*
X217815895Y-118036084D01*
X217917351Y-117949307D01*
X217994183Y-117934740D01*
X218140280Y-117934740D01*
X218140280Y-115267740D01*
X217994183Y-115267740D01*
X217883301Y-115234205D01*
X217782515Y-115117537D01*
X217708433Y-114980292D01*
X217628313Y-114809907D01*
X217577799Y-114691955D01*
X217568780Y-114662792D01*
X217629445Y-114654577D01*
X217800107Y-114647219D01*
X218063763Y-114641039D01*
X218403409Y-114636359D01*
X218802044Y-114633500D01*
X219156280Y-114632740D01*
X219590213Y-114633889D01*
X219978921Y-114637120D01*
X220305402Y-114642111D01*
X220552653Y-114648540D01*
X220703672Y-114656086D01*
X220743780Y-114662792D01*
X220718340Y-114732395D01*
X220653378Y-114876976D01*
X220604126Y-114980292D01*
X220496664Y-115166397D01*
X220395208Y-115253174D01*
X220318376Y-115267740D01*
X220172280Y-115267740D01*
X220172280Y-117934740D01*
X220318376Y-117934740D01*
X220429258Y-117968276D01*
X220530044Y-118084944D01*
X220604126Y-118222189D01*
X220684246Y-118392574D01*
X220734760Y-118510526D01*
X220743780Y-118539689D01*
X220683114Y-118547904D01*
X220512452Y-118555262D01*
X220248796Y-118561442D01*
X219909150Y-118566122D01*
X219510515Y-118568981D01*
X219156280Y-118569740D01*
X218722346Y-118568592D01*
X218333638Y-118565361D01*
X218007157Y-118560370D01*
X217759906Y-118553941D01*
X217608887Y-118546395D01*
X217568780Y-118539689D01*
X216998565Y-118539689D01*
X217632274Y-119172985D01*
X219156269Y-120695987D01*
X220648524Y-119204746D01*
G36*
X219537280Y-115267740D02*
G01*
X218775280Y-115267740D01*
X218775280Y-117934740D01*
X219537280Y-117934740D01*
X219537280Y-115267740D01*
G37*
X219537280Y-115267740D02*
X218775280Y-115267740D01*
X218775280Y-117934740D01*
X219537280Y-117934740D01*
X219537280Y-115267740D01*
D11*
%TO.C,U2*%
X219806000Y-93649800D02*
X219806000Y-90199800D01*
X219806000Y-93649800D02*
X219806000Y-95599800D01*
X229926000Y-93649800D02*
X229926000Y-91699800D01*
X229926000Y-93649800D02*
X229926000Y-95599800D01*
%TO.C,U1*%
X167081000Y-92334400D02*
X169031000Y-92334400D01*
X167081000Y-92334400D02*
X165131000Y-92334400D01*
X167081000Y-97454400D02*
X169031000Y-97454400D01*
X167081000Y-97454400D02*
X163631000Y-97454400D01*
%TO.C,R12*%
X243683000Y-103826064D02*
X243683000Y-102371936D01*
X241863000Y-103826064D02*
X241863000Y-102371936D01*
%TO.C,R11*%
X232152000Y-103724064D02*
X232152000Y-102269936D01*
X230332000Y-103724064D02*
X230332000Y-102269936D01*
%TO.C,R10*%
X220899000Y-103419064D02*
X220899000Y-101964936D01*
X219079000Y-103419064D02*
X219079000Y-101964936D01*
%TO.C,R9*%
X209114000Y-103241064D02*
X209114000Y-101786936D01*
X207294000Y-103241064D02*
X207294000Y-101786936D01*
%TO.C,R8*%
X197811000Y-103343064D02*
X197811000Y-101888936D01*
X195991000Y-103343064D02*
X195991000Y-101888936D01*
%TO.C,R7*%
X186609000Y-103495064D02*
X186609000Y-102040936D01*
X184789000Y-103495064D02*
X184789000Y-102040936D01*
%TO.C,R6*%
X175281000Y-103191064D02*
X175281000Y-101736936D01*
X173461000Y-103191064D02*
X173461000Y-101736936D01*
%TO.C,R5*%
X163215000Y-103343064D02*
X163215000Y-101888936D01*
X161395000Y-103343064D02*
X161395000Y-101888936D01*
%TO.C,R2*%
X159593000Y-94523536D02*
X159593000Y-95977664D01*
X161413000Y-94523536D02*
X161413000Y-95977664D01*
%TO.C,R1*%
X156327064Y-95584600D02*
X154872936Y-95584600D01*
X156327064Y-97404600D02*
X154872936Y-97404600D01*
%TO.C,C2*%
X173667000Y-97229600D02*
X178907000Y-97229600D01*
X173667000Y-94489600D02*
X178907000Y-94489600D01*
X173667000Y-97229600D02*
X173667000Y-96914600D01*
X173667000Y-94804600D02*
X173667000Y-94489600D01*
X178907000Y-97229600D02*
X178907000Y-96914600D01*
X178907000Y-94804600D02*
X178907000Y-94489600D01*
%TO.C,C1*%
X166707000Y-90727200D02*
X171947000Y-90727200D01*
X166707000Y-87987200D02*
X171947000Y-87987200D01*
X166707000Y-90727200D02*
X166707000Y-90412200D01*
X166707000Y-88302200D02*
X166707000Y-87987200D01*
X171947000Y-90727200D02*
X171947000Y-90412200D01*
X171947000Y-88302200D02*
X171947000Y-87987200D01*
%TO.C,BT2*%
X183337200Y-98414840D02*
X209753200Y-98414840D01*
X209753200Y-82158840D02*
X183337200Y-82158840D01*
X183337200Y-98414840D02*
X183337200Y-94350840D01*
X209753200Y-98414840D02*
X209753200Y-94604840D01*
X183337200Y-82158840D02*
X183337200Y-85968840D01*
X209753200Y-85968840D02*
X209753200Y-82412840D01*
X209753200Y-82412840D02*
X209753200Y-82158840D01*
X204323385Y-90286840D02*
G75*
G03*
X204323385Y-90286840I-8032185J0D01*
G01*
%TO.C,BT1*%
X183490000Y-123088000D02*
X209906000Y-123088000D01*
X209906000Y-106832000D02*
X183490000Y-106832000D01*
X183490000Y-123088000D02*
X183490000Y-119024000D01*
X209906000Y-123088000D02*
X209906000Y-119278000D01*
X183490000Y-106832000D02*
X183490000Y-110642000D01*
X209906000Y-110642000D02*
X209906000Y-107086000D01*
X209906000Y-107086000D02*
X209906000Y-106832000D01*
X204476185Y-114960000D02*
G75*
G03*
X204476185Y-114960000I-8032185J0D01*
G01*
%TO.C,SW2*%
D10*
X167969468Y-110388367D02*
X167819175Y-110379003D01*
X167598417Y-110289811D01*
X167527952Y-110209983D01*
X167501639Y-110147993D01*
X167493164Y-110041851D01*
X167528841Y-109953548D01*
X167608669Y-109883083D01*
X167670659Y-109856770D01*
X167776801Y-109848295D01*
X167971246Y-109875497D01*
X168077387Y-109867022D01*
X168139377Y-109840709D01*
X168219206Y-109770244D01*
X168254883Y-109681941D01*
X168246408Y-109575799D01*
X168220095Y-109513809D01*
X168149630Y-109433981D01*
X167928872Y-109344789D01*
X167778579Y-109335425D01*
X167487356Y-109166405D02*
X166891991Y-110004396D01*
X166982961Y-109270769D01*
X166538778Y-109861689D01*
X166692627Y-108845313D01*
X166347889Y-108808748D02*
X166321575Y-108746758D01*
X166251111Y-108666929D01*
X166030353Y-108577737D01*
X165924211Y-108586212D01*
X165862221Y-108612525D01*
X165782392Y-108682990D01*
X165746716Y-108771293D01*
X165737352Y-108921586D01*
X166053110Y-109665467D01*
X165479139Y-109433567D01*
%TO.C,D1*%
X159549055Y-109076500D02*
X159549055Y-108076500D01*
X159310960Y-108076500D01*
X159168102Y-108124120D01*
X159072864Y-108219358D01*
X159025245Y-108314596D01*
X158977626Y-108505072D01*
X158977626Y-108647929D01*
X159025245Y-108838405D01*
X159072864Y-108933643D01*
X159168102Y-109028881D01*
X159310960Y-109076500D01*
X159549055Y-109076500D01*
X158025245Y-109076500D02*
X158596674Y-109076500D01*
X158310960Y-109076500D02*
X158310960Y-108076500D01*
X158406198Y-108219358D01*
X158501436Y-108314596D01*
X158596674Y-108362215D01*
%TO.C,RV1*%
X205796758Y-77612500D02*
X206130091Y-77136310D01*
X206368186Y-77612500D02*
X206368186Y-76612500D01*
X205987234Y-76612500D01*
X205891996Y-76660120D01*
X205844377Y-76707739D01*
X205796758Y-76802977D01*
X205796758Y-76945834D01*
X205844377Y-77041072D01*
X205891996Y-77088691D01*
X205987234Y-77136310D01*
X206368186Y-77136310D01*
X205511043Y-76612500D02*
X205177710Y-77612500D01*
X204844377Y-76612500D01*
X203987234Y-77612500D02*
X204558662Y-77612500D01*
X204272948Y-77612500D02*
X204272948Y-76612500D01*
X204368186Y-76755358D01*
X204463424Y-76850596D01*
X204558662Y-76898215D01*
X200382022Y-75412860D02*
X200953451Y-75412860D01*
X200667737Y-75412860D02*
X200667737Y-74412860D01*
X200762975Y-74555718D01*
X200858213Y-74650956D01*
X200953451Y-74698575D01*
X199762975Y-74412860D02*
X199667737Y-74412860D01*
X199572499Y-74460480D01*
X199524880Y-74508099D01*
X199477260Y-74603337D01*
X199429641Y-74793813D01*
X199429641Y-75031908D01*
X199477260Y-75222384D01*
X199524880Y-75317622D01*
X199572499Y-75365241D01*
X199667737Y-75412860D01*
X199762975Y-75412860D01*
X199858213Y-75365241D01*
X199905832Y-75317622D01*
X199953451Y-75222384D01*
X200001070Y-75031908D01*
X200001070Y-74793813D01*
X199953451Y-74603337D01*
X199905832Y-74508099D01*
X199858213Y-74460480D01*
X199762975Y-74412860D01*
X198810594Y-74412860D02*
X198715356Y-74412860D01*
X198620118Y-74460480D01*
X198572499Y-74508099D01*
X198524880Y-74603337D01*
X198477260Y-74793813D01*
X198477260Y-75031908D01*
X198524880Y-75222384D01*
X198572499Y-75317622D01*
X198620118Y-75365241D01*
X198715356Y-75412860D01*
X198810594Y-75412860D01*
X198905832Y-75365241D01*
X198953451Y-75317622D01*
X199001070Y-75222384D01*
X199048689Y-75031908D01*
X199048689Y-74793813D01*
X199001070Y-74603337D01*
X198953451Y-74508099D01*
X198905832Y-74460480D01*
X198810594Y-74412860D01*
X198048689Y-75412860D02*
X198048689Y-74412860D01*
X197477260Y-75412860D02*
X197905832Y-74841432D01*
X197477260Y-74412860D02*
X198048689Y-74984289D01*
X196334403Y-75365241D02*
X196191546Y-75412860D01*
X195953451Y-75412860D01*
X195858213Y-75365241D01*
X195810594Y-75317622D01*
X195762975Y-75222384D01*
X195762975Y-75127146D01*
X195810594Y-75031908D01*
X195858213Y-74984289D01*
X195953451Y-74936670D01*
X196143927Y-74889051D01*
X196239165Y-74841432D01*
X196286784Y-74793813D01*
X196334403Y-74698575D01*
X196334403Y-74603337D01*
X196286784Y-74508099D01*
X196239165Y-74460480D01*
X196143927Y-74412860D01*
X195905832Y-74412860D01*
X195762975Y-74460480D01*
X195334403Y-75412860D02*
X195334403Y-74746194D01*
X195334403Y-74412860D02*
X195382022Y-74460480D01*
X195334403Y-74508099D01*
X195286784Y-74460480D01*
X195334403Y-74412860D01*
X195334403Y-74508099D01*
X194858213Y-74746194D02*
X194858213Y-75412860D01*
X194858213Y-74841432D02*
X194810594Y-74793813D01*
X194715356Y-74746194D01*
X194572499Y-74746194D01*
X194477260Y-74793813D01*
X194429641Y-74889051D01*
X194429641Y-75412860D01*
X193524880Y-74746194D02*
X193524880Y-75555718D01*
X193572499Y-75650956D01*
X193620118Y-75698575D01*
X193715356Y-75746194D01*
X193858213Y-75746194D01*
X193953451Y-75698575D01*
X193524880Y-75365241D02*
X193620118Y-75412860D01*
X193810594Y-75412860D01*
X193905832Y-75365241D01*
X193953451Y-75317622D01*
X194001070Y-75222384D01*
X194001070Y-74936670D01*
X193953451Y-74841432D01*
X193905832Y-74793813D01*
X193810594Y-74746194D01*
X193620118Y-74746194D01*
X193524880Y-74793813D01*
X192905832Y-75412860D02*
X193001070Y-75365241D01*
X193048689Y-75270003D01*
X193048689Y-74412860D01*
X192143927Y-75365241D02*
X192239165Y-75412860D01*
X192429641Y-75412860D01*
X192524880Y-75365241D01*
X192572499Y-75270003D01*
X192572499Y-74889051D01*
X192524880Y-74793813D01*
X192429641Y-74746194D01*
X192239165Y-74746194D01*
X192143927Y-74793813D01*
X192096308Y-74889051D01*
X192096308Y-74984289D01*
X192572499Y-75079527D01*
%TO.C,SW1*%
X166383395Y-114221036D02*
X166233102Y-114211672D01*
X166012344Y-114122480D01*
X165941879Y-114042652D01*
X165915566Y-113980662D01*
X165907091Y-113874520D01*
X165942768Y-113786217D01*
X166022596Y-113715752D01*
X166084586Y-113689439D01*
X166190728Y-113680964D01*
X166385173Y-113708166D01*
X166491314Y-113699691D01*
X166553304Y-113673378D01*
X166633133Y-113602913D01*
X166668810Y-113514610D01*
X166660335Y-113408468D01*
X166634022Y-113346478D01*
X166563557Y-113266650D01*
X166342799Y-113177458D01*
X166192506Y-113168094D01*
X165901283Y-112999074D02*
X165305918Y-113837065D01*
X165396888Y-113103438D01*
X164952705Y-113694358D01*
X165106554Y-112677982D01*
X163893066Y-113266236D02*
X164422886Y-113480297D01*
X164157976Y-113373267D02*
X164532583Y-112446083D01*
X164567371Y-112614215D01*
X164619997Y-112738195D01*
X164690462Y-112818023D01*
%TO.C,U2*%
X218418380Y-92887895D02*
X219227904Y-92887895D01*
X219323142Y-92935514D01*
X219370761Y-92983133D01*
X219418380Y-93078371D01*
X219418380Y-93268847D01*
X219370761Y-93364085D01*
X219323142Y-93411704D01*
X219227904Y-93459323D01*
X218418380Y-93459323D01*
X218513619Y-93887895D02*
X218466000Y-93935514D01*
X218418380Y-94030752D01*
X218418380Y-94268847D01*
X218466000Y-94364085D01*
X218513619Y-94411704D01*
X218608857Y-94459323D01*
X218704095Y-94459323D01*
X218846952Y-94411704D01*
X219418380Y-93840276D01*
X219418380Y-94459323D01*
%TO.C,U1*%
X167842904Y-97746780D02*
X167842904Y-98556304D01*
X167795285Y-98651542D01*
X167747666Y-98699161D01*
X167652428Y-98746780D01*
X167461952Y-98746780D01*
X167366714Y-98699161D01*
X167319095Y-98651542D01*
X167271476Y-98556304D01*
X167271476Y-97746780D01*
X166271476Y-98746780D02*
X166842904Y-98746780D01*
X166557190Y-98746780D02*
X166557190Y-97746780D01*
X166652428Y-97889638D01*
X166747666Y-97984876D01*
X166842904Y-98032495D01*
%TO.C,R12*%
X243542857Y-100427180D02*
X243876190Y-99950990D01*
X244114285Y-100427180D02*
X244114285Y-99427180D01*
X243733333Y-99427180D01*
X243638095Y-99474800D01*
X243590476Y-99522419D01*
X243542857Y-99617657D01*
X243542857Y-99760514D01*
X243590476Y-99855752D01*
X243638095Y-99903371D01*
X243733333Y-99950990D01*
X244114285Y-99950990D01*
X242590476Y-100427180D02*
X243161904Y-100427180D01*
X242876190Y-100427180D02*
X242876190Y-99427180D01*
X242971428Y-99570038D01*
X243066666Y-99665276D01*
X243161904Y-99712895D01*
X242209523Y-99522419D02*
X242161904Y-99474800D01*
X242066666Y-99427180D01*
X241828571Y-99427180D01*
X241733333Y-99474800D01*
X241685714Y-99522419D01*
X241638095Y-99617657D01*
X241638095Y-99712895D01*
X241685714Y-99855752D01*
X242257142Y-100427180D01*
X241638095Y-100427180D01*
%TO.C,R11*%
X231859457Y-100325180D02*
X232192790Y-99848990D01*
X232430885Y-100325180D02*
X232430885Y-99325180D01*
X232049933Y-99325180D01*
X231954695Y-99372800D01*
X231907076Y-99420419D01*
X231859457Y-99515657D01*
X231859457Y-99658514D01*
X231907076Y-99753752D01*
X231954695Y-99801371D01*
X232049933Y-99848990D01*
X232430885Y-99848990D01*
X230907076Y-100325180D02*
X231478504Y-100325180D01*
X231192790Y-100325180D02*
X231192790Y-99325180D01*
X231288028Y-99468038D01*
X231383266Y-99563276D01*
X231478504Y-99610895D01*
X229954695Y-100325180D02*
X230526123Y-100325180D01*
X230240409Y-100325180D02*
X230240409Y-99325180D01*
X230335647Y-99468038D01*
X230430885Y-99563276D01*
X230526123Y-99610895D01*
%TO.C,R10*%
X220631857Y-100020180D02*
X220965190Y-99543990D01*
X221203285Y-100020180D02*
X221203285Y-99020180D01*
X220822333Y-99020180D01*
X220727095Y-99067800D01*
X220679476Y-99115419D01*
X220631857Y-99210657D01*
X220631857Y-99353514D01*
X220679476Y-99448752D01*
X220727095Y-99496371D01*
X220822333Y-99543990D01*
X221203285Y-99543990D01*
X219679476Y-100020180D02*
X220250904Y-100020180D01*
X219965190Y-100020180D02*
X219965190Y-99020180D01*
X220060428Y-99163038D01*
X220155666Y-99258276D01*
X220250904Y-99305895D01*
X219060428Y-99020180D02*
X218965190Y-99020180D01*
X218869952Y-99067800D01*
X218822333Y-99115419D01*
X218774714Y-99210657D01*
X218727095Y-99401133D01*
X218727095Y-99639228D01*
X218774714Y-99829704D01*
X218822333Y-99924942D01*
X218869952Y-99972561D01*
X218965190Y-100020180D01*
X219060428Y-100020180D01*
X219155666Y-99972561D01*
X219203285Y-99924942D01*
X219250904Y-99829704D01*
X219298523Y-99639228D01*
X219298523Y-99401133D01*
X219250904Y-99210657D01*
X219203285Y-99115419D01*
X219155666Y-99067800D01*
X219060428Y-99020180D01*
%TO.C,R9*%
X208396066Y-99816780D02*
X208729400Y-99340590D01*
X208967495Y-99816780D02*
X208967495Y-98816780D01*
X208586542Y-98816780D01*
X208491304Y-98864400D01*
X208443685Y-98912019D01*
X208396066Y-99007257D01*
X208396066Y-99150114D01*
X208443685Y-99245352D01*
X208491304Y-99292971D01*
X208586542Y-99340590D01*
X208967495Y-99340590D01*
X207919876Y-99816780D02*
X207729400Y-99816780D01*
X207634161Y-99769161D01*
X207586542Y-99721542D01*
X207491304Y-99578685D01*
X207443685Y-99388209D01*
X207443685Y-99007257D01*
X207491304Y-98912019D01*
X207538923Y-98864400D01*
X207634161Y-98816780D01*
X207824638Y-98816780D01*
X207919876Y-98864400D01*
X207967495Y-98912019D01*
X208015114Y-99007257D01*
X208015114Y-99245352D01*
X207967495Y-99340590D01*
X207919876Y-99388209D01*
X207824638Y-99435828D01*
X207634161Y-99435828D01*
X207538923Y-99388209D01*
X207491304Y-99340590D01*
X207443685Y-99245352D01*
%TO.C,R8*%
X197067666Y-99817180D02*
X197401000Y-99340990D01*
X197639095Y-99817180D02*
X197639095Y-98817180D01*
X197258142Y-98817180D01*
X197162904Y-98864800D01*
X197115285Y-98912419D01*
X197067666Y-99007657D01*
X197067666Y-99150514D01*
X197115285Y-99245752D01*
X197162904Y-99293371D01*
X197258142Y-99340990D01*
X197639095Y-99340990D01*
X196496238Y-99245752D02*
X196591476Y-99198133D01*
X196639095Y-99150514D01*
X196686714Y-99055276D01*
X196686714Y-99007657D01*
X196639095Y-98912419D01*
X196591476Y-98864800D01*
X196496238Y-98817180D01*
X196305761Y-98817180D01*
X196210523Y-98864800D01*
X196162904Y-98912419D01*
X196115285Y-99007657D01*
X196115285Y-99055276D01*
X196162904Y-99150514D01*
X196210523Y-99198133D01*
X196305761Y-99245752D01*
X196496238Y-99245752D01*
X196591476Y-99293371D01*
X196639095Y-99340990D01*
X196686714Y-99436228D01*
X196686714Y-99626704D01*
X196639095Y-99721942D01*
X196591476Y-99769561D01*
X196496238Y-99817180D01*
X196305761Y-99817180D01*
X196210523Y-99769561D01*
X196162904Y-99721942D01*
X196115285Y-99626704D01*
X196115285Y-99436228D01*
X196162904Y-99340990D01*
X196210523Y-99293371D01*
X196305761Y-99245752D01*
%TO.C,R7*%
X185840266Y-100045380D02*
X186173600Y-99569190D01*
X186411695Y-100045380D02*
X186411695Y-99045380D01*
X186030742Y-99045380D01*
X185935504Y-99093000D01*
X185887885Y-99140619D01*
X185840266Y-99235857D01*
X185840266Y-99378714D01*
X185887885Y-99473952D01*
X185935504Y-99521571D01*
X186030742Y-99569190D01*
X186411695Y-99569190D01*
X185506933Y-99045380D02*
X184840266Y-99045380D01*
X185268838Y-100045380D01*
%TO.C,R6*%
X174537666Y-99842980D02*
X174871000Y-99366790D01*
X175109095Y-99842980D02*
X175109095Y-98842980D01*
X174728142Y-98842980D01*
X174632904Y-98890600D01*
X174585285Y-98938219D01*
X174537666Y-99033457D01*
X174537666Y-99176314D01*
X174585285Y-99271552D01*
X174632904Y-99319171D01*
X174728142Y-99366790D01*
X175109095Y-99366790D01*
X173680523Y-98842980D02*
X173871000Y-98842980D01*
X173966238Y-98890600D01*
X174013857Y-98938219D01*
X174109095Y-99081076D01*
X174156714Y-99271552D01*
X174156714Y-99652504D01*
X174109095Y-99747742D01*
X174061476Y-99795361D01*
X173966238Y-99842980D01*
X173775761Y-99842980D01*
X173680523Y-99795361D01*
X173632904Y-99747742D01*
X173585285Y-99652504D01*
X173585285Y-99414409D01*
X173632904Y-99319171D01*
X173680523Y-99271552D01*
X173775761Y-99223933D01*
X173966238Y-99223933D01*
X174061476Y-99271552D01*
X174109095Y-99319171D01*
X174156714Y-99414409D01*
%TO.C,R5*%
X162445666Y-99944180D02*
X162779000Y-99467990D01*
X163017095Y-99944180D02*
X163017095Y-98944180D01*
X162636142Y-98944180D01*
X162540904Y-98991800D01*
X162493285Y-99039419D01*
X162445666Y-99134657D01*
X162445666Y-99277514D01*
X162493285Y-99372752D01*
X162540904Y-99420371D01*
X162636142Y-99467990D01*
X163017095Y-99467990D01*
X161540904Y-98944180D02*
X162017095Y-98944180D01*
X162064714Y-99420371D01*
X162017095Y-99372752D01*
X161921857Y-99325133D01*
X161683761Y-99325133D01*
X161588523Y-99372752D01*
X161540904Y-99420371D01*
X161493285Y-99515609D01*
X161493285Y-99753704D01*
X161540904Y-99848942D01*
X161588523Y-99896561D01*
X161683761Y-99944180D01*
X161921857Y-99944180D01*
X162017095Y-99896561D01*
X162064714Y-99848942D01*
%TO.C,R2*%
X160720066Y-92496900D02*
X161053400Y-92020710D01*
X161291495Y-92496900D02*
X161291495Y-91496900D01*
X160910542Y-91496900D01*
X160815304Y-91544520D01*
X160767685Y-91592139D01*
X160720066Y-91687377D01*
X160720066Y-91830234D01*
X160767685Y-91925472D01*
X160815304Y-91973091D01*
X160910542Y-92020710D01*
X161291495Y-92020710D01*
X160339114Y-91592139D02*
X160291495Y-91544520D01*
X160196257Y-91496900D01*
X159958161Y-91496900D01*
X159862923Y-91544520D01*
X159815304Y-91592139D01*
X159767685Y-91687377D01*
X159767685Y-91782615D01*
X159815304Y-91925472D01*
X160386733Y-92496900D01*
X159767685Y-92496900D01*
%TO.C,R1*%
X155766666Y-95126980D02*
X156100000Y-94650790D01*
X156338095Y-95126980D02*
X156338095Y-94126980D01*
X155957142Y-94126980D01*
X155861904Y-94174600D01*
X155814285Y-94222219D01*
X155766666Y-94317457D01*
X155766666Y-94460314D01*
X155814285Y-94555552D01*
X155861904Y-94603171D01*
X155957142Y-94650790D01*
X156338095Y-94650790D01*
X154814285Y-95126980D02*
X155385714Y-95126980D01*
X155100000Y-95126980D02*
X155100000Y-94126980D01*
X155195238Y-94269838D01*
X155290476Y-94365076D01*
X155385714Y-94412695D01*
%TO.C,J1*%
X149856666Y-97782380D02*
X149856666Y-98496666D01*
X149809047Y-98639523D01*
X149713809Y-98734761D01*
X149570952Y-98782380D01*
X149475714Y-98782380D01*
X150856666Y-98782380D02*
X150285238Y-98782380D01*
X150570952Y-98782380D02*
X150570952Y-97782380D01*
X150475714Y-97925238D01*
X150380476Y-98020476D01*
X150285238Y-98068095D01*
%TO.C,D11*%
X238450285Y-100362380D02*
X238450285Y-99362380D01*
X238212190Y-99362380D01*
X238069333Y-99410000D01*
X237974095Y-99505238D01*
X237926476Y-99600476D01*
X237878857Y-99790952D01*
X237878857Y-99933809D01*
X237926476Y-100124285D01*
X237974095Y-100219523D01*
X238069333Y-100314761D01*
X238212190Y-100362380D01*
X238450285Y-100362380D01*
X236926476Y-100362380D02*
X237497904Y-100362380D01*
X237212190Y-100362380D02*
X237212190Y-99362380D01*
X237307428Y-99505238D01*
X237402666Y-99600476D01*
X237497904Y-99648095D01*
X235974095Y-100362380D02*
X236545523Y-100362380D01*
X236259809Y-100362380D02*
X236259809Y-99362380D01*
X236355047Y-99505238D01*
X236450285Y-99600476D01*
X236545523Y-99648095D01*
%TO.C,D10*%
X226791285Y-100489380D02*
X226791285Y-99489380D01*
X226553190Y-99489380D01*
X226410333Y-99537000D01*
X226315095Y-99632238D01*
X226267476Y-99727476D01*
X226219857Y-99917952D01*
X226219857Y-100060809D01*
X226267476Y-100251285D01*
X226315095Y-100346523D01*
X226410333Y-100441761D01*
X226553190Y-100489380D01*
X226791285Y-100489380D01*
X225267476Y-100489380D02*
X225838904Y-100489380D01*
X225553190Y-100489380D02*
X225553190Y-99489380D01*
X225648428Y-99632238D01*
X225743666Y-99727476D01*
X225838904Y-99775095D01*
X224648428Y-99489380D02*
X224553190Y-99489380D01*
X224457952Y-99537000D01*
X224410333Y-99584619D01*
X224362714Y-99679857D01*
X224315095Y-99870333D01*
X224315095Y-100108428D01*
X224362714Y-100298904D01*
X224410333Y-100394142D01*
X224457952Y-100441761D01*
X224553190Y-100489380D01*
X224648428Y-100489380D01*
X224743666Y-100441761D01*
X224791285Y-100394142D01*
X224838904Y-100298904D01*
X224886523Y-100108428D01*
X224886523Y-99870333D01*
X224838904Y-99679857D01*
X224791285Y-99584619D01*
X224743666Y-99537000D01*
X224648428Y-99489380D01*
%TO.C,D9*%
X214631095Y-100210380D02*
X214631095Y-99210380D01*
X214393000Y-99210380D01*
X214250142Y-99258000D01*
X214154904Y-99353238D01*
X214107285Y-99448476D01*
X214059666Y-99638952D01*
X214059666Y-99781809D01*
X214107285Y-99972285D01*
X214154904Y-100067523D01*
X214250142Y-100162761D01*
X214393000Y-100210380D01*
X214631095Y-100210380D01*
X213583476Y-100210380D02*
X213393000Y-100210380D01*
X213297761Y-100162761D01*
X213250142Y-100115142D01*
X213154904Y-99972285D01*
X213107285Y-99781809D01*
X213107285Y-99400857D01*
X213154904Y-99305619D01*
X213202523Y-99258000D01*
X213297761Y-99210380D01*
X213488238Y-99210380D01*
X213583476Y-99258000D01*
X213631095Y-99305619D01*
X213678714Y-99400857D01*
X213678714Y-99638952D01*
X213631095Y-99734190D01*
X213583476Y-99781809D01*
X213488238Y-99829428D01*
X213297761Y-99829428D01*
X213202523Y-99781809D01*
X213154904Y-99734190D01*
X213107285Y-99638952D01*
%TO.C,D8*%
X203328695Y-100223380D02*
X203328695Y-99223380D01*
X203090600Y-99223380D01*
X202947742Y-99271000D01*
X202852504Y-99366238D01*
X202804885Y-99461476D01*
X202757266Y-99651952D01*
X202757266Y-99794809D01*
X202804885Y-99985285D01*
X202852504Y-100080523D01*
X202947742Y-100175761D01*
X203090600Y-100223380D01*
X203328695Y-100223380D01*
X202185838Y-99651952D02*
X202281076Y-99604333D01*
X202328695Y-99556714D01*
X202376314Y-99461476D01*
X202376314Y-99413857D01*
X202328695Y-99318619D01*
X202281076Y-99271000D01*
X202185838Y-99223380D01*
X201995361Y-99223380D01*
X201900123Y-99271000D01*
X201852504Y-99318619D01*
X201804885Y-99413857D01*
X201804885Y-99461476D01*
X201852504Y-99556714D01*
X201900123Y-99604333D01*
X201995361Y-99651952D01*
X202185838Y-99651952D01*
X202281076Y-99699571D01*
X202328695Y-99747190D01*
X202376314Y-99842428D01*
X202376314Y-100032904D01*
X202328695Y-100128142D01*
X202281076Y-100175761D01*
X202185838Y-100223380D01*
X201995361Y-100223380D01*
X201900123Y-100175761D01*
X201852504Y-100128142D01*
X201804885Y-100032904D01*
X201804885Y-99842428D01*
X201852504Y-99747190D01*
X201900123Y-99699571D01*
X201995361Y-99651952D01*
%TO.C,D7*%
X192126895Y-100325180D02*
X192126895Y-99325180D01*
X191888800Y-99325180D01*
X191745942Y-99372800D01*
X191650704Y-99468038D01*
X191603085Y-99563276D01*
X191555466Y-99753752D01*
X191555466Y-99896609D01*
X191603085Y-100087085D01*
X191650704Y-100182323D01*
X191745942Y-100277561D01*
X191888800Y-100325180D01*
X192126895Y-100325180D01*
X191222133Y-99325180D02*
X190555466Y-99325180D01*
X190984038Y-100325180D01*
%TO.C,D6*%
X181230495Y-100223980D02*
X181230495Y-99223980D01*
X180992400Y-99223980D01*
X180849542Y-99271600D01*
X180754304Y-99366838D01*
X180706685Y-99462076D01*
X180659066Y-99652552D01*
X180659066Y-99795409D01*
X180706685Y-99985885D01*
X180754304Y-100081123D01*
X180849542Y-100176361D01*
X180992400Y-100223980D01*
X181230495Y-100223980D01*
X179801923Y-99223980D02*
X179992400Y-99223980D01*
X180087638Y-99271600D01*
X180135257Y-99319219D01*
X180230495Y-99462076D01*
X180278114Y-99652552D01*
X180278114Y-100033504D01*
X180230495Y-100128742D01*
X180182876Y-100176361D01*
X180087638Y-100223980D01*
X179897161Y-100223980D01*
X179801923Y-100176361D01*
X179754304Y-100128742D01*
X179706685Y-100033504D01*
X179706685Y-99795409D01*
X179754304Y-99700171D01*
X179801923Y-99652552D01*
X179897161Y-99604933D01*
X180087638Y-99604933D01*
X180182876Y-99652552D01*
X180230495Y-99700171D01*
X180278114Y-99795409D01*
%TO.C,D5*%
X169013095Y-100147580D02*
X169013095Y-99147580D01*
X168775000Y-99147580D01*
X168632142Y-99195200D01*
X168536904Y-99290438D01*
X168489285Y-99385676D01*
X168441666Y-99576152D01*
X168441666Y-99719009D01*
X168489285Y-99909485D01*
X168536904Y-100004723D01*
X168632142Y-100099961D01*
X168775000Y-100147580D01*
X169013095Y-100147580D01*
X167536904Y-99147580D02*
X168013095Y-99147580D01*
X168060714Y-99623771D01*
X168013095Y-99576152D01*
X167917857Y-99528533D01*
X167679761Y-99528533D01*
X167584523Y-99576152D01*
X167536904Y-99623771D01*
X167489285Y-99719009D01*
X167489285Y-99957104D01*
X167536904Y-100052342D01*
X167584523Y-100099961D01*
X167679761Y-100147580D01*
X167917857Y-100147580D01*
X168013095Y-100099961D01*
X168060714Y-100052342D01*
%TO.C,D4*%
X157405095Y-100413380D02*
X157405095Y-99413380D01*
X157167000Y-99413380D01*
X157024142Y-99461000D01*
X156928904Y-99556238D01*
X156881285Y-99651476D01*
X156833666Y-99841952D01*
X156833666Y-99984809D01*
X156881285Y-100175285D01*
X156928904Y-100270523D01*
X157024142Y-100365761D01*
X157167000Y-100413380D01*
X157405095Y-100413380D01*
X155976523Y-99746714D02*
X155976523Y-100413380D01*
X156214619Y-99365761D02*
X156452714Y-100080047D01*
X155833666Y-100080047D01*
%TO.C,C2*%
X176376626Y-93844382D02*
X176424245Y-93892001D01*
X176567102Y-93939620D01*
X176662340Y-93939620D01*
X176805198Y-93892001D01*
X176900436Y-93796763D01*
X176948055Y-93701525D01*
X176995674Y-93511049D01*
X176995674Y-93368192D01*
X176948055Y-93177716D01*
X176900436Y-93082478D01*
X176805198Y-92987240D01*
X176662340Y-92939620D01*
X176567102Y-92939620D01*
X176424245Y-92987240D01*
X176376626Y-93034859D01*
X175995674Y-93034859D02*
X175948055Y-92987240D01*
X175852817Y-92939620D01*
X175614721Y-92939620D01*
X175519483Y-92987240D01*
X175471864Y-93034859D01*
X175424245Y-93130097D01*
X175424245Y-93225335D01*
X175471864Y-93368192D01*
X176043293Y-93939620D01*
X175424245Y-93939620D01*
%TO.C,C1*%
X169320506Y-87143862D02*
X169368125Y-87191481D01*
X169510982Y-87239100D01*
X169606220Y-87239100D01*
X169749078Y-87191481D01*
X169844316Y-87096243D01*
X169891935Y-87001005D01*
X169939554Y-86810529D01*
X169939554Y-86667672D01*
X169891935Y-86477196D01*
X169844316Y-86381958D01*
X169749078Y-86286720D01*
X169606220Y-86239100D01*
X169510982Y-86239100D01*
X169368125Y-86286720D01*
X169320506Y-86334339D01*
X168368125Y-87239100D02*
X168939554Y-87239100D01*
X168653840Y-87239100D02*
X168653840Y-86239100D01*
X168749078Y-86381958D01*
X168844316Y-86477196D01*
X168939554Y-86524815D01*
%TO.C,BT2*%
X212900714Y-85470691D02*
X212757857Y-85518310D01*
X212710238Y-85565929D01*
X212662619Y-85661167D01*
X212662619Y-85804024D01*
X212710238Y-85899262D01*
X212757857Y-85946881D01*
X212853095Y-85994500D01*
X213234047Y-85994500D01*
X213234047Y-84994500D01*
X212900714Y-84994500D01*
X212805476Y-85042120D01*
X212757857Y-85089739D01*
X212710238Y-85184977D01*
X212710238Y-85280215D01*
X212757857Y-85375453D01*
X212805476Y-85423072D01*
X212900714Y-85470691D01*
X213234047Y-85470691D01*
X212376904Y-84994500D02*
X211805476Y-84994500D01*
X212091190Y-85994500D02*
X212091190Y-84994500D01*
X211519761Y-85089739D02*
X211472142Y-85042120D01*
X211376904Y-84994500D01*
X211138809Y-84994500D01*
X211043571Y-85042120D01*
X210995952Y-85089739D01*
X210948333Y-85184977D01*
X210948333Y-85280215D01*
X210995952Y-85423072D01*
X211567380Y-85994500D01*
X210948333Y-85994500D01*
D12*
X211988209Y-94829594D02*
X208940590Y-94829594D01*
X183042369Y-95175034D02*
X179994750Y-95175034D01*
X181518560Y-96698843D02*
X181518560Y-93651224D01*
%TO.C,BT1*%
D10*
X212728394Y-109610851D02*
X212585537Y-109658470D01*
X212537918Y-109706089D01*
X212490299Y-109801327D01*
X212490299Y-109944184D01*
X212537918Y-110039422D01*
X212585537Y-110087041D01*
X212680775Y-110134660D01*
X213061727Y-110134660D01*
X213061727Y-109134660D01*
X212728394Y-109134660D01*
X212633156Y-109182280D01*
X212585537Y-109229899D01*
X212537918Y-109325137D01*
X212537918Y-109420375D01*
X212585537Y-109515613D01*
X212633156Y-109563232D01*
X212728394Y-109610851D01*
X213061727Y-109610851D01*
X212204584Y-109134660D02*
X211633156Y-109134660D01*
X211918870Y-110134660D02*
X211918870Y-109134660D01*
X210776013Y-110134660D02*
X211347441Y-110134660D01*
X211061727Y-110134660D02*
X211061727Y-109134660D01*
X211156965Y-109277518D01*
X211252203Y-109372756D01*
X211347441Y-109420375D01*
D12*
X213491889Y-120041634D02*
X210444270Y-120041634D01*
X182834089Y-120356594D02*
X179786470Y-120356594D01*
X181310280Y-121880403D02*
X181310280Y-118832784D01*
%TD*%
M02*
