M48
INCH,TZ
T1C0.0157
T2C0.0315
T3C0.0354
T4C0.0362
T5C0.0394
T6C0.0402
%
G90
G05
T1
X64804Y-38508
X65474Y-37110
X65514Y-36614
X66048Y-38110
X69547Y-38222
X76854Y-39670
X77672Y-39271
X84074Y-39670
X86678Y-39015
X87799Y-38467
X87973Y-39326
X88047Y-36823
X88284Y-38572
T2
X65680Y-35180
X67648Y-35180
X68420Y-37740
X70389Y-37740
T3
X61180Y-40520
X62180Y-40520
X65700Y-40320
X66700Y-40320
X70450Y-40390
X71450Y-40390
X74780Y-40400
X75780Y-40400
X79270Y-40380
X80270Y-40380
X83710Y-40440
X84710Y-40440
X88310Y-40550
X89310Y-40550
X92900Y-40500
X93900Y-40500
T4
X75772Y-31412
X76572Y-31412
X77372Y-31412
X78172Y-31412
X78972Y-31412
T5
X58630Y-39630
X58630Y-40630
X58630Y-41630
X59630Y-39630
X59630Y-40630
X59630Y-41630
T6
X75472Y-27412
X79272Y-27412
T0
M30
