%TF.GenerationSoftware,KiCad,Pcbnew,5.1.10-88a1d61d58~88~ubuntu20.04.1*%
%TF.CreationDate,2021-10-16T20:43:53-04:00*%
%TF.ProjectId,Spaceship-Badge-555,53706163-6573-4686-9970-2d4261646765,rev?*%
%TF.SameCoordinates,Original*%
%TF.FileFunction,Soldermask,Bot*%
%TF.FilePolarity,Negative*%
%FSLAX46Y46*%
G04 Gerber Fmt 4.6, Leading zero omitted, Abs format (unit mm)*
G04 Created by KiCad (PCBNEW 5.1.10-88a1d61d58~88~ubuntu20.04.1) date 2021-10-16 20:43:53*
%MOMM*%
%LPD*%
G01*
G04 APERTURE LIST*
%ADD10C,0.100000*%
%ADD11R,0.900000X1.200000*%
%ADD12C,1.524000*%
%ADD13R,1.524000X1.524000*%
%ADD14R,1.700000X1.700000*%
%ADD15O,1.700000X1.700000*%
%ADD16C,1.800000*%
%ADD17R,1.800000X1.800000*%
%ADD18C,1.600000*%
%ADD19R,5.500000X5.500000*%
G04 APERTURE END LIST*
D10*
%TO.C,SW2*%
G36*
X156942979Y-109636244D02*
G01*
X155631856Y-112881387D01*
X152386713Y-111570264D01*
X153697836Y-108325121D01*
X156942979Y-109636244D01*
G37*
G36*
X177667392Y-118009450D02*
G01*
X176356269Y-121254593D01*
X173111126Y-119943470D01*
X174422249Y-116698327D01*
X177667392Y-118009450D01*
G37*
%TD*%
D11*
%TO.C,D1*%
X159053800Y-106624120D03*
X155753800Y-106624120D03*
%TD*%
D12*
%TO.C,RV1*%
X196524880Y-79786480D03*
X194492880Y-79786480D03*
X192460880Y-79786480D03*
X198556880Y-79786480D03*
D13*
X200588880Y-79786480D03*
D12*
X201350880Y-69626480D03*
X191698880Y-69626480D03*
%TD*%
D10*
%TO.C,SW1*%
G36*
X162937757Y-114118014D02*
G01*
X162413308Y-115416071D01*
X161764279Y-115153846D01*
X162288728Y-113855789D01*
X162937757Y-114118014D01*
G37*
G36*
X164351712Y-114689289D02*
G01*
X163827263Y-115987346D01*
X163178234Y-115725121D01*
X163702683Y-114427064D01*
X164351712Y-114689289D01*
G37*
G36*
X167110084Y-115803744D02*
G01*
X166585635Y-117101801D01*
X165936606Y-116839576D01*
X166461055Y-115541519D01*
X167110084Y-115803744D01*
G37*
G36*
X161449186Y-114983399D02*
G01*
X161186961Y-115632427D01*
X160074340Y-115182899D01*
X160336565Y-114533871D01*
X161449186Y-114983399D01*
G37*
G36*
X160666258Y-116921214D02*
G01*
X160404033Y-117570242D01*
X159291412Y-117120714D01*
X159553637Y-116471686D01*
X160666258Y-116921214D01*
G37*
G36*
X167260390Y-119585416D02*
G01*
X166998165Y-120234444D01*
X165885544Y-119784916D01*
X166147769Y-119135888D01*
X167260390Y-119585416D01*
G37*
G36*
X168043318Y-117647602D02*
G01*
X167781093Y-118296630D01*
X166668472Y-117847102D01*
X166930697Y-117198074D01*
X168043318Y-117647602D01*
G37*
%TD*%
%TO.C,U2*%
G36*
G01*
X220271000Y-90199800D02*
X220571000Y-90199800D01*
G75*
G02*
X220721000Y-90349800I0J-150000D01*
G01*
X220721000Y-91999800D01*
G75*
G02*
X220571000Y-92149800I-150000J0D01*
G01*
X220271000Y-92149800D01*
G75*
G02*
X220121000Y-91999800I0J150000D01*
G01*
X220121000Y-90349800D01*
G75*
G02*
X220271000Y-90199800I150000J0D01*
G01*
G37*
G36*
G01*
X221541000Y-90199800D02*
X221841000Y-90199800D01*
G75*
G02*
X221991000Y-90349800I0J-150000D01*
G01*
X221991000Y-91999800D01*
G75*
G02*
X221841000Y-92149800I-150000J0D01*
G01*
X221541000Y-92149800D01*
G75*
G02*
X221391000Y-91999800I0J150000D01*
G01*
X221391000Y-90349800D01*
G75*
G02*
X221541000Y-90199800I150000J0D01*
G01*
G37*
G36*
G01*
X222811000Y-90199800D02*
X223111000Y-90199800D01*
G75*
G02*
X223261000Y-90349800I0J-150000D01*
G01*
X223261000Y-91999800D01*
G75*
G02*
X223111000Y-92149800I-150000J0D01*
G01*
X222811000Y-92149800D01*
G75*
G02*
X222661000Y-91999800I0J150000D01*
G01*
X222661000Y-90349800D01*
G75*
G02*
X222811000Y-90199800I150000J0D01*
G01*
G37*
G36*
G01*
X224081000Y-90199800D02*
X224381000Y-90199800D01*
G75*
G02*
X224531000Y-90349800I0J-150000D01*
G01*
X224531000Y-91999800D01*
G75*
G02*
X224381000Y-92149800I-150000J0D01*
G01*
X224081000Y-92149800D01*
G75*
G02*
X223931000Y-91999800I0J150000D01*
G01*
X223931000Y-90349800D01*
G75*
G02*
X224081000Y-90199800I150000J0D01*
G01*
G37*
G36*
G01*
X225351000Y-90199800D02*
X225651000Y-90199800D01*
G75*
G02*
X225801000Y-90349800I0J-150000D01*
G01*
X225801000Y-91999800D01*
G75*
G02*
X225651000Y-92149800I-150000J0D01*
G01*
X225351000Y-92149800D01*
G75*
G02*
X225201000Y-91999800I0J150000D01*
G01*
X225201000Y-90349800D01*
G75*
G02*
X225351000Y-90199800I150000J0D01*
G01*
G37*
G36*
G01*
X226621000Y-90199800D02*
X226921000Y-90199800D01*
G75*
G02*
X227071000Y-90349800I0J-150000D01*
G01*
X227071000Y-91999800D01*
G75*
G02*
X226921000Y-92149800I-150000J0D01*
G01*
X226621000Y-92149800D01*
G75*
G02*
X226471000Y-91999800I0J150000D01*
G01*
X226471000Y-90349800D01*
G75*
G02*
X226621000Y-90199800I150000J0D01*
G01*
G37*
G36*
G01*
X227891000Y-90199800D02*
X228191000Y-90199800D01*
G75*
G02*
X228341000Y-90349800I0J-150000D01*
G01*
X228341000Y-91999800D01*
G75*
G02*
X228191000Y-92149800I-150000J0D01*
G01*
X227891000Y-92149800D01*
G75*
G02*
X227741000Y-91999800I0J150000D01*
G01*
X227741000Y-90349800D01*
G75*
G02*
X227891000Y-90199800I150000J0D01*
G01*
G37*
G36*
G01*
X229161000Y-90199800D02*
X229461000Y-90199800D01*
G75*
G02*
X229611000Y-90349800I0J-150000D01*
G01*
X229611000Y-91999800D01*
G75*
G02*
X229461000Y-92149800I-150000J0D01*
G01*
X229161000Y-92149800D01*
G75*
G02*
X229011000Y-91999800I0J150000D01*
G01*
X229011000Y-90349800D01*
G75*
G02*
X229161000Y-90199800I150000J0D01*
G01*
G37*
G36*
G01*
X229161000Y-95149800D02*
X229461000Y-95149800D01*
G75*
G02*
X229611000Y-95299800I0J-150000D01*
G01*
X229611000Y-96949800D01*
G75*
G02*
X229461000Y-97099800I-150000J0D01*
G01*
X229161000Y-97099800D01*
G75*
G02*
X229011000Y-96949800I0J150000D01*
G01*
X229011000Y-95299800D01*
G75*
G02*
X229161000Y-95149800I150000J0D01*
G01*
G37*
G36*
G01*
X227891000Y-95149800D02*
X228191000Y-95149800D01*
G75*
G02*
X228341000Y-95299800I0J-150000D01*
G01*
X228341000Y-96949800D01*
G75*
G02*
X228191000Y-97099800I-150000J0D01*
G01*
X227891000Y-97099800D01*
G75*
G02*
X227741000Y-96949800I0J150000D01*
G01*
X227741000Y-95299800D01*
G75*
G02*
X227891000Y-95149800I150000J0D01*
G01*
G37*
G36*
G01*
X226621000Y-95149800D02*
X226921000Y-95149800D01*
G75*
G02*
X227071000Y-95299800I0J-150000D01*
G01*
X227071000Y-96949800D01*
G75*
G02*
X226921000Y-97099800I-150000J0D01*
G01*
X226621000Y-97099800D01*
G75*
G02*
X226471000Y-96949800I0J150000D01*
G01*
X226471000Y-95299800D01*
G75*
G02*
X226621000Y-95149800I150000J0D01*
G01*
G37*
G36*
G01*
X225351000Y-95149800D02*
X225651000Y-95149800D01*
G75*
G02*
X225801000Y-95299800I0J-150000D01*
G01*
X225801000Y-96949800D01*
G75*
G02*
X225651000Y-97099800I-150000J0D01*
G01*
X225351000Y-97099800D01*
G75*
G02*
X225201000Y-96949800I0J150000D01*
G01*
X225201000Y-95299800D01*
G75*
G02*
X225351000Y-95149800I150000J0D01*
G01*
G37*
G36*
G01*
X224081000Y-95149800D02*
X224381000Y-95149800D01*
G75*
G02*
X224531000Y-95299800I0J-150000D01*
G01*
X224531000Y-96949800D01*
G75*
G02*
X224381000Y-97099800I-150000J0D01*
G01*
X224081000Y-97099800D01*
G75*
G02*
X223931000Y-96949800I0J150000D01*
G01*
X223931000Y-95299800D01*
G75*
G02*
X224081000Y-95149800I150000J0D01*
G01*
G37*
G36*
G01*
X222811000Y-95149800D02*
X223111000Y-95149800D01*
G75*
G02*
X223261000Y-95299800I0J-150000D01*
G01*
X223261000Y-96949800D01*
G75*
G02*
X223111000Y-97099800I-150000J0D01*
G01*
X222811000Y-97099800D01*
G75*
G02*
X222661000Y-96949800I0J150000D01*
G01*
X222661000Y-95299800D01*
G75*
G02*
X222811000Y-95149800I150000J0D01*
G01*
G37*
G36*
G01*
X221541000Y-95149800D02*
X221841000Y-95149800D01*
G75*
G02*
X221991000Y-95299800I0J-150000D01*
G01*
X221991000Y-96949800D01*
G75*
G02*
X221841000Y-97099800I-150000J0D01*
G01*
X221541000Y-97099800D01*
G75*
G02*
X221391000Y-96949800I0J150000D01*
G01*
X221391000Y-95299800D01*
G75*
G02*
X221541000Y-95149800I150000J0D01*
G01*
G37*
G36*
G01*
X220271000Y-95149800D02*
X220571000Y-95149800D01*
G75*
G02*
X220721000Y-95299800I0J-150000D01*
G01*
X220721000Y-96949800D01*
G75*
G02*
X220571000Y-97099800I-150000J0D01*
G01*
X220271000Y-97099800D01*
G75*
G02*
X220121000Y-96949800I0J150000D01*
G01*
X220121000Y-95299800D01*
G75*
G02*
X220271000Y-95149800I150000J0D01*
G01*
G37*
%TD*%
%TO.C,U1*%
G36*
G01*
X168581000Y-96949400D02*
X168581000Y-96649400D01*
G75*
G02*
X168731000Y-96499400I150000J0D01*
G01*
X170381000Y-96499400D01*
G75*
G02*
X170531000Y-96649400I0J-150000D01*
G01*
X170531000Y-96949400D01*
G75*
G02*
X170381000Y-97099400I-150000J0D01*
G01*
X168731000Y-97099400D01*
G75*
G02*
X168581000Y-96949400I0J150000D01*
G01*
G37*
G36*
G01*
X168581000Y-95679400D02*
X168581000Y-95379400D01*
G75*
G02*
X168731000Y-95229400I150000J0D01*
G01*
X170381000Y-95229400D01*
G75*
G02*
X170531000Y-95379400I0J-150000D01*
G01*
X170531000Y-95679400D01*
G75*
G02*
X170381000Y-95829400I-150000J0D01*
G01*
X168731000Y-95829400D01*
G75*
G02*
X168581000Y-95679400I0J150000D01*
G01*
G37*
G36*
G01*
X168581000Y-94409400D02*
X168581000Y-94109400D01*
G75*
G02*
X168731000Y-93959400I150000J0D01*
G01*
X170381000Y-93959400D01*
G75*
G02*
X170531000Y-94109400I0J-150000D01*
G01*
X170531000Y-94409400D01*
G75*
G02*
X170381000Y-94559400I-150000J0D01*
G01*
X168731000Y-94559400D01*
G75*
G02*
X168581000Y-94409400I0J150000D01*
G01*
G37*
G36*
G01*
X168581000Y-93139400D02*
X168581000Y-92839400D01*
G75*
G02*
X168731000Y-92689400I150000J0D01*
G01*
X170381000Y-92689400D01*
G75*
G02*
X170531000Y-92839400I0J-150000D01*
G01*
X170531000Y-93139400D01*
G75*
G02*
X170381000Y-93289400I-150000J0D01*
G01*
X168731000Y-93289400D01*
G75*
G02*
X168581000Y-93139400I0J150000D01*
G01*
G37*
G36*
G01*
X163631000Y-93139400D02*
X163631000Y-92839400D01*
G75*
G02*
X163781000Y-92689400I150000J0D01*
G01*
X165431000Y-92689400D01*
G75*
G02*
X165581000Y-92839400I0J-150000D01*
G01*
X165581000Y-93139400D01*
G75*
G02*
X165431000Y-93289400I-150000J0D01*
G01*
X163781000Y-93289400D01*
G75*
G02*
X163631000Y-93139400I0J150000D01*
G01*
G37*
G36*
G01*
X163631000Y-94409400D02*
X163631000Y-94109400D01*
G75*
G02*
X163781000Y-93959400I150000J0D01*
G01*
X165431000Y-93959400D01*
G75*
G02*
X165581000Y-94109400I0J-150000D01*
G01*
X165581000Y-94409400D01*
G75*
G02*
X165431000Y-94559400I-150000J0D01*
G01*
X163781000Y-94559400D01*
G75*
G02*
X163631000Y-94409400I0J150000D01*
G01*
G37*
G36*
G01*
X163631000Y-95679400D02*
X163631000Y-95379400D01*
G75*
G02*
X163781000Y-95229400I150000J0D01*
G01*
X165431000Y-95229400D01*
G75*
G02*
X165581000Y-95379400I0J-150000D01*
G01*
X165581000Y-95679400D01*
G75*
G02*
X165431000Y-95829400I-150000J0D01*
G01*
X163781000Y-95829400D01*
G75*
G02*
X163631000Y-95679400I0J150000D01*
G01*
G37*
G36*
G01*
X163631000Y-96949400D02*
X163631000Y-96649400D01*
G75*
G02*
X163781000Y-96499400I150000J0D01*
G01*
X165431000Y-96499400D01*
G75*
G02*
X165581000Y-96649400I0J-150000D01*
G01*
X165581000Y-96949400D01*
G75*
G02*
X165431000Y-97099400I-150000J0D01*
G01*
X163781000Y-97099400D01*
G75*
G02*
X163631000Y-96949400I0J150000D01*
G01*
G37*
%TD*%
%TO.C,R12*%
G36*
G01*
X243398001Y-102199000D02*
X242147999Y-102199000D01*
G75*
G02*
X241898000Y-101949001I0J249999D01*
G01*
X241898000Y-101148999D01*
G75*
G02*
X242147999Y-100899000I249999J0D01*
G01*
X243398001Y-100899000D01*
G75*
G02*
X243648000Y-101148999I0J-249999D01*
G01*
X243648000Y-101949001D01*
G75*
G02*
X243398001Y-102199000I-249999J0D01*
G01*
G37*
G36*
G01*
X243398001Y-105299000D02*
X242147999Y-105299000D01*
G75*
G02*
X241898000Y-105049001I0J249999D01*
G01*
X241898000Y-104248999D01*
G75*
G02*
X242147999Y-103999000I249999J0D01*
G01*
X243398001Y-103999000D01*
G75*
G02*
X243648000Y-104248999I0J-249999D01*
G01*
X243648000Y-105049001D01*
G75*
G02*
X243398001Y-105299000I-249999J0D01*
G01*
G37*
%TD*%
%TO.C,R11*%
G36*
G01*
X231867001Y-102097000D02*
X230616999Y-102097000D01*
G75*
G02*
X230367000Y-101847001I0J249999D01*
G01*
X230367000Y-101046999D01*
G75*
G02*
X230616999Y-100797000I249999J0D01*
G01*
X231867001Y-100797000D01*
G75*
G02*
X232117000Y-101046999I0J-249999D01*
G01*
X232117000Y-101847001D01*
G75*
G02*
X231867001Y-102097000I-249999J0D01*
G01*
G37*
G36*
G01*
X231867001Y-105197000D02*
X230616999Y-105197000D01*
G75*
G02*
X230367000Y-104947001I0J249999D01*
G01*
X230367000Y-104146999D01*
G75*
G02*
X230616999Y-103897000I249999J0D01*
G01*
X231867001Y-103897000D01*
G75*
G02*
X232117000Y-104146999I0J-249999D01*
G01*
X232117000Y-104947001D01*
G75*
G02*
X231867001Y-105197000I-249999J0D01*
G01*
G37*
%TD*%
%TO.C,R10*%
G36*
G01*
X220614001Y-101792000D02*
X219363999Y-101792000D01*
G75*
G02*
X219114000Y-101542001I0J249999D01*
G01*
X219114000Y-100741999D01*
G75*
G02*
X219363999Y-100492000I249999J0D01*
G01*
X220614001Y-100492000D01*
G75*
G02*
X220864000Y-100741999I0J-249999D01*
G01*
X220864000Y-101542001D01*
G75*
G02*
X220614001Y-101792000I-249999J0D01*
G01*
G37*
G36*
G01*
X220614001Y-104892000D02*
X219363999Y-104892000D01*
G75*
G02*
X219114000Y-104642001I0J249999D01*
G01*
X219114000Y-103841999D01*
G75*
G02*
X219363999Y-103592000I249999J0D01*
G01*
X220614001Y-103592000D01*
G75*
G02*
X220864000Y-103841999I0J-249999D01*
G01*
X220864000Y-104642001D01*
G75*
G02*
X220614001Y-104892000I-249999J0D01*
G01*
G37*
%TD*%
%TO.C,R9*%
G36*
G01*
X208829001Y-101614000D02*
X207578999Y-101614000D01*
G75*
G02*
X207329000Y-101364001I0J249999D01*
G01*
X207329000Y-100563999D01*
G75*
G02*
X207578999Y-100314000I249999J0D01*
G01*
X208829001Y-100314000D01*
G75*
G02*
X209079000Y-100563999I0J-249999D01*
G01*
X209079000Y-101364001D01*
G75*
G02*
X208829001Y-101614000I-249999J0D01*
G01*
G37*
G36*
G01*
X208829001Y-104714000D02*
X207578999Y-104714000D01*
G75*
G02*
X207329000Y-104464001I0J249999D01*
G01*
X207329000Y-103663999D01*
G75*
G02*
X207578999Y-103414000I249999J0D01*
G01*
X208829001Y-103414000D01*
G75*
G02*
X209079000Y-103663999I0J-249999D01*
G01*
X209079000Y-104464001D01*
G75*
G02*
X208829001Y-104714000I-249999J0D01*
G01*
G37*
%TD*%
%TO.C,R8*%
G36*
G01*
X197526001Y-101716000D02*
X196275999Y-101716000D01*
G75*
G02*
X196026000Y-101466001I0J249999D01*
G01*
X196026000Y-100665999D01*
G75*
G02*
X196275999Y-100416000I249999J0D01*
G01*
X197526001Y-100416000D01*
G75*
G02*
X197776000Y-100665999I0J-249999D01*
G01*
X197776000Y-101466001D01*
G75*
G02*
X197526001Y-101716000I-249999J0D01*
G01*
G37*
G36*
G01*
X197526001Y-104816000D02*
X196275999Y-104816000D01*
G75*
G02*
X196026000Y-104566001I0J249999D01*
G01*
X196026000Y-103765999D01*
G75*
G02*
X196275999Y-103516000I249999J0D01*
G01*
X197526001Y-103516000D01*
G75*
G02*
X197776000Y-103765999I0J-249999D01*
G01*
X197776000Y-104566001D01*
G75*
G02*
X197526001Y-104816000I-249999J0D01*
G01*
G37*
%TD*%
%TO.C,R7*%
G36*
G01*
X186324001Y-101868000D02*
X185073999Y-101868000D01*
G75*
G02*
X184824000Y-101618001I0J249999D01*
G01*
X184824000Y-100817999D01*
G75*
G02*
X185073999Y-100568000I249999J0D01*
G01*
X186324001Y-100568000D01*
G75*
G02*
X186574000Y-100817999I0J-249999D01*
G01*
X186574000Y-101618001D01*
G75*
G02*
X186324001Y-101868000I-249999J0D01*
G01*
G37*
G36*
G01*
X186324001Y-104968000D02*
X185073999Y-104968000D01*
G75*
G02*
X184824000Y-104718001I0J249999D01*
G01*
X184824000Y-103917999D01*
G75*
G02*
X185073999Y-103668000I249999J0D01*
G01*
X186324001Y-103668000D01*
G75*
G02*
X186574000Y-103917999I0J-249999D01*
G01*
X186574000Y-104718001D01*
G75*
G02*
X186324001Y-104968000I-249999J0D01*
G01*
G37*
%TD*%
%TO.C,R6*%
G36*
G01*
X174996001Y-101564000D02*
X173745999Y-101564000D01*
G75*
G02*
X173496000Y-101314001I0J249999D01*
G01*
X173496000Y-100513999D01*
G75*
G02*
X173745999Y-100264000I249999J0D01*
G01*
X174996001Y-100264000D01*
G75*
G02*
X175246000Y-100513999I0J-249999D01*
G01*
X175246000Y-101314001D01*
G75*
G02*
X174996001Y-101564000I-249999J0D01*
G01*
G37*
G36*
G01*
X174996001Y-104664000D02*
X173745999Y-104664000D01*
G75*
G02*
X173496000Y-104414001I0J249999D01*
G01*
X173496000Y-103613999D01*
G75*
G02*
X173745999Y-103364000I249999J0D01*
G01*
X174996001Y-103364000D01*
G75*
G02*
X175246000Y-103613999I0J-249999D01*
G01*
X175246000Y-104414001D01*
G75*
G02*
X174996001Y-104664000I-249999J0D01*
G01*
G37*
%TD*%
%TO.C,R5*%
G36*
G01*
X162930001Y-101716000D02*
X161679999Y-101716000D01*
G75*
G02*
X161430000Y-101466001I0J249999D01*
G01*
X161430000Y-100665999D01*
G75*
G02*
X161679999Y-100416000I249999J0D01*
G01*
X162930001Y-100416000D01*
G75*
G02*
X163180000Y-100665999I0J-249999D01*
G01*
X163180000Y-101466001D01*
G75*
G02*
X162930001Y-101716000I-249999J0D01*
G01*
G37*
G36*
G01*
X162930001Y-104816000D02*
X161679999Y-104816000D01*
G75*
G02*
X161430000Y-104566001I0J249999D01*
G01*
X161430000Y-103765999D01*
G75*
G02*
X161679999Y-103516000I249999J0D01*
G01*
X162930001Y-103516000D01*
G75*
G02*
X163180000Y-103765999I0J-249999D01*
G01*
X163180000Y-104566001D01*
G75*
G02*
X162930001Y-104816000I-249999J0D01*
G01*
G37*
%TD*%
%TO.C,R2*%
G36*
G01*
X159877999Y-96150600D02*
X161128001Y-96150600D01*
G75*
G02*
X161378000Y-96400599I0J-249999D01*
G01*
X161378000Y-97200601D01*
G75*
G02*
X161128001Y-97450600I-249999J0D01*
G01*
X159877999Y-97450600D01*
G75*
G02*
X159628000Y-97200601I0J249999D01*
G01*
X159628000Y-96400599D01*
G75*
G02*
X159877999Y-96150600I249999J0D01*
G01*
G37*
G36*
G01*
X159877999Y-93050600D02*
X161128001Y-93050600D01*
G75*
G02*
X161378000Y-93300599I0J-249999D01*
G01*
X161378000Y-94100601D01*
G75*
G02*
X161128001Y-94350600I-249999J0D01*
G01*
X159877999Y-94350600D01*
G75*
G02*
X159628000Y-94100601I0J249999D01*
G01*
X159628000Y-93300599D01*
G75*
G02*
X159877999Y-93050600I249999J0D01*
G01*
G37*
%TD*%
%TO.C,R1*%
G36*
G01*
X154700000Y-95869599D02*
X154700000Y-97119601D01*
G75*
G02*
X154450001Y-97369600I-249999J0D01*
G01*
X153649999Y-97369600D01*
G75*
G02*
X153400000Y-97119601I0J249999D01*
G01*
X153400000Y-95869599D01*
G75*
G02*
X153649999Y-95619600I249999J0D01*
G01*
X154450001Y-95619600D01*
G75*
G02*
X154700000Y-95869599I0J-249999D01*
G01*
G37*
G36*
G01*
X157800000Y-95869599D02*
X157800000Y-97119601D01*
G75*
G02*
X157550001Y-97369600I-249999J0D01*
G01*
X156749999Y-97369600D01*
G75*
G02*
X156500000Y-97119601I0J249999D01*
G01*
X156500000Y-95869599D01*
G75*
G02*
X156749999Y-95619600I249999J0D01*
G01*
X157550001Y-95619600D01*
G75*
G02*
X157800000Y-95869599I0J-249999D01*
G01*
G37*
%TD*%
D14*
%TO.C,J1*%
X148920000Y-100660000D03*
D15*
X151460000Y-100660000D03*
X148920000Y-103200000D03*
X151460000Y-103200000D03*
X148920000Y-105740000D03*
X151460000Y-105740000D03*
%TD*%
D16*
%TO.C,D11*%
X238506000Y-102870000D03*
D17*
X235966000Y-102870000D03*
%TD*%
D16*
%TO.C,D10*%
X226847000Y-102997000D03*
D17*
X224307000Y-102997000D03*
%TD*%
D16*
%TO.C,D9*%
X215163000Y-102718000D03*
D17*
X212623000Y-102718000D03*
%TD*%
D16*
%TO.C,D8*%
X203886000Y-102565000D03*
D17*
X201346000Y-102565000D03*
%TD*%
D16*
%TO.C,D7*%
X192481000Y-102616000D03*
D17*
X189941000Y-102616000D03*
%TD*%
D16*
%TO.C,D6*%
X181483000Y-102591000D03*
D17*
X178943000Y-102591000D03*
%TD*%
D16*
%TO.C,D5*%
X169418000Y-102413000D03*
D17*
X166878000Y-102413000D03*
%TD*%
D16*
%TO.C,D4*%
X157937000Y-102921000D03*
D17*
X155397000Y-102921000D03*
%TD*%
D18*
%TO.C,C2*%
X178787000Y-95859600D03*
X173787000Y-95859600D03*
%TD*%
%TO.C,C1*%
X171827000Y-89357200D03*
X166827000Y-89357200D03*
%TD*%
D19*
%TO.C,BT2*%
X210541200Y-90286840D03*
X182041200Y-90286840D03*
%TD*%
%TO.C,BT1*%
X210694000Y-114960000D03*
X182194000Y-114960000D03*
%TD*%
M02*
