%TF.GenerationSoftware,KiCad,Pcbnew,5.1.10-88a1d61d58~88~ubuntu20.04.1*%
%TF.CreationDate,2021-09-19T12:56:21-04:00*%
%TF.ProjectId,Spaceship-Badge-555,53706163-6573-4686-9970-2d4261646765,rev?*%
%TF.SameCoordinates,Original*%
%TF.FileFunction,Copper,L1,Top*%
%TF.FilePolarity,Positive*%
%FSLAX46Y46*%
G04 Gerber Fmt 4.6, Leading zero omitted, Abs format (unit mm)*
G04 Created by KiCad (PCBNEW 5.1.10-88a1d61d58~88~ubuntu20.04.1) date 2021-09-19 12:56:21*
%MOMM*%
%LPD*%
G01*
G04 APERTURE LIST*
%TA.AperFunction,ComponentPad*%
%ADD10C,1.524000*%
%TD*%
%TA.AperFunction,ComponentPad*%
%ADD11R,1.524000X1.524000*%
%TD*%
%TA.AperFunction,ComponentPad*%
%ADD12R,1.700000X1.700000*%
%TD*%
%TA.AperFunction,ComponentPad*%
%ADD13O,1.700000X1.700000*%
%TD*%
%TA.AperFunction,ComponentPad*%
%ADD14C,1.800000*%
%TD*%
%TA.AperFunction,ComponentPad*%
%ADD15R,1.800000X1.800000*%
%TD*%
%TA.AperFunction,ComponentPad*%
%ADD16C,1.600000*%
%TD*%
%TA.AperFunction,ViaPad*%
%ADD17C,0.800000*%
%TD*%
%TA.AperFunction,Conductor*%
%ADD18C,0.350000*%
%TD*%
G04 APERTURE END LIST*
D10*
%TO.P,RV1,2*%
%TO.N,Net-(C2-Pad1)*%
X196524880Y-79786480D03*
%TO.P,RV1,*%
%TO.N,*%
X194492880Y-79786480D03*
%TO.P,RV1,1*%
%TO.N,Net-(RV1-Pad1)*%
X192460880Y-79786480D03*
%TO.P,RV1,*%
%TO.N,*%
X198556880Y-79786480D03*
D11*
%TO.P,RV1,3*%
%TO.N,Net-(C2-Pad1)*%
X200588880Y-79786480D03*
D10*
%TO.P,RV1,*%
%TO.N,*%
X201350880Y-69626480D03*
X191698880Y-69626480D03*
%TD*%
D12*
%TO.P,J1,1*%
%TO.N,GND*%
X148920000Y-100660000D03*
D13*
%TO.P,J1,2*%
%TO.N,Net-(D1-Pad1)*%
X151460000Y-100660000D03*
%TO.P,J1,3*%
%TO.N,Net-(J1-Pad3)*%
X148920000Y-103200000D03*
%TO.P,J1,4*%
%TO.N,Net-(J1-Pad4)*%
X151460000Y-103200000D03*
%TO.P,J1,5*%
%TO.N,Net-(J1-Pad5)*%
X148920000Y-105740000D03*
%TO.P,J1,6*%
%TO.N,Net-(J1-Pad6)*%
X151460000Y-105740000D03*
%TD*%
D14*
%TO.P,D11,2*%
%TO.N,Net-(D11-Pad2)*%
X238506000Y-102870000D03*
D15*
%TO.P,D11,1*%
%TO.N,GND*%
X235966000Y-102870000D03*
%TD*%
D14*
%TO.P,D10,2*%
%TO.N,Net-(D10-Pad2)*%
X226847000Y-102997000D03*
D15*
%TO.P,D10,1*%
%TO.N,GND*%
X224307000Y-102997000D03*
%TD*%
D14*
%TO.P,D9,2*%
%TO.N,Net-(D9-Pad2)*%
X215163000Y-102718000D03*
D15*
%TO.P,D9,1*%
%TO.N,GND*%
X212623000Y-102718000D03*
%TD*%
D14*
%TO.P,D8,2*%
%TO.N,Net-(D8-Pad2)*%
X203886000Y-102565000D03*
D15*
%TO.P,D8,1*%
%TO.N,GND*%
X201346000Y-102565000D03*
%TD*%
D14*
%TO.P,D7,2*%
%TO.N,Net-(D7-Pad2)*%
X192481000Y-102616000D03*
D15*
%TO.P,D7,1*%
%TO.N,GND*%
X189941000Y-102616000D03*
%TD*%
D14*
%TO.P,D6,2*%
%TO.N,Net-(D6-Pad2)*%
X181483000Y-102591000D03*
D15*
%TO.P,D6,1*%
%TO.N,GND*%
X178943000Y-102591000D03*
%TD*%
D14*
%TO.P,D5,2*%
%TO.N,Net-(D5-Pad2)*%
X169418000Y-102413000D03*
D15*
%TO.P,D5,1*%
%TO.N,GND*%
X166878000Y-102413000D03*
%TD*%
D14*
%TO.P,D4,2*%
%TO.N,Net-(D4-Pad2)*%
X157937000Y-102921000D03*
D15*
%TO.P,D4,1*%
%TO.N,GND*%
X155397000Y-102921000D03*
%TD*%
D16*
%TO.P,C2,2*%
%TO.N,GND*%
X178787000Y-95859600D03*
%TO.P,C2,1*%
%TO.N,Net-(C2-Pad1)*%
X173787000Y-95859600D03*
%TD*%
%TO.P,C1,2*%
%TO.N,GND*%
X171827000Y-89357200D03*
%TO.P,C1,1*%
%TO.N,Net-(C1-Pad1)*%
X166827000Y-89357200D03*
%TD*%
D17*
%TO.N,GND*%
X164602000Y-97810300D03*
X224241000Y-97972900D03*
%TO.N,+6V*%
X220161700Y-99097900D03*
X166406000Y-92999600D03*
X167762000Y-96799400D03*
%TO.N,Net-(R6-Pad2)*%
X223638600Y-93530700D03*
X176648700Y-97084100D03*
%TO.N,Net-(R7-Pad2)*%
X213547400Y-100761000D03*
X195208000Y-100761000D03*
%TO.N,Net-(R8-Pad2)*%
X223451200Y-99887000D03*
X197286400Y-99747700D03*
%TO.N,Net-(U1-Pad3)*%
X223008800Y-97706000D03*
X166304000Y-94259400D03*
%TD*%
D18*
%TO.N,GND*%
X189941000Y-102616000D02*
X193157000Y-105832000D01*
X193157000Y-105832000D02*
X198079000Y-105832000D01*
X198079000Y-105832000D02*
X201346000Y-102565000D01*
X178943000Y-102591000D02*
X178943000Y-102606000D01*
X178943000Y-102606000D02*
X182148000Y-105811000D01*
X182148000Y-105811000D02*
X186746000Y-105811000D01*
X186746000Y-105811000D02*
X189941000Y-102616000D01*
X166878000Y-102413000D02*
X170210000Y-105745000D01*
X170210000Y-105745000D02*
X175788000Y-105745000D01*
X175788000Y-105745000D02*
X178943000Y-102591000D01*
X201346000Y-102565000D02*
X201346000Y-102682000D01*
X201346000Y-102682000D02*
X204511000Y-105847000D01*
X204511000Y-105847000D02*
X209494000Y-105847000D01*
X209494000Y-105847000D02*
X212623000Y-102718000D01*
X212623000Y-102718000D02*
X212623000Y-102773000D01*
X212623000Y-102773000D02*
X215732000Y-105882000D01*
X215732000Y-105882000D02*
X221422000Y-105882000D01*
X221422000Y-105882000D02*
X224307000Y-102997000D01*
X224307000Y-102997000D02*
X224307000Y-103114000D01*
X224307000Y-103114000D02*
X227487000Y-106294000D01*
X227487000Y-106294000D02*
X232542000Y-106294000D01*
X232542000Y-106294000D02*
X235966000Y-102870000D01*
X224241000Y-97972900D02*
X224241000Y-102931000D01*
X224241000Y-102931000D02*
X224307000Y-102997000D01*
X171827000Y-89357200D02*
X178330000Y-95859600D01*
X178330000Y-95859600D02*
X178787000Y-95859600D01*
X164602000Y-97810300D02*
X166863000Y-100071000D01*
X166863000Y-100071000D02*
X166863000Y-102398000D01*
X166863000Y-102398000D02*
X166878000Y-102413000D01*
X148920000Y-100660000D02*
X150145000Y-101885000D01*
X150145000Y-101885000D02*
X154362000Y-101885000D01*
X154362000Y-101885000D02*
X155397000Y-102921000D01*
X155397000Y-102921000D02*
X155397000Y-102910840D01*
X155397000Y-102921000D02*
X155432560Y-102921000D01*
X155432560Y-102921000D02*
X159618680Y-98734880D01*
X159618680Y-98734880D02*
X162331400Y-98734880D01*
X163255980Y-97810300D02*
X164602000Y-97810300D01*
X162331400Y-98734880D02*
X163255980Y-97810300D01*
%TO.N,+6V*%
X166406000Y-92999600D02*
X165489200Y-93916400D01*
X165489200Y-93916400D02*
X165489200Y-96824400D01*
X165489200Y-96824400D02*
X167365900Y-98701100D01*
X167365900Y-98701100D02*
X219764900Y-98701100D01*
X219764900Y-98701100D02*
X220161700Y-99097900D01*
X166406000Y-92999600D02*
X167218000Y-92999600D01*
X167218000Y-92999600D02*
X167762000Y-93543100D01*
X167762000Y-93543100D02*
X167762000Y-96799400D01*
%TO.N,Net-(R6-Pad2)*%
X176648700Y-97084100D02*
X220085200Y-97084100D01*
X220085200Y-97084100D02*
X223638600Y-93530700D01*
%TO.N,Net-(R7-Pad2)*%
X195208000Y-100761000D02*
X213547400Y-100761000D01*
%TO.N,Net-(R8-Pad2)*%
X223451200Y-99887000D02*
X197425700Y-99887000D01*
X197425700Y-99887000D02*
X197286400Y-99747700D01*
%TO.N,Net-(U1-Pad3)*%
X222956000Y-96995000D02*
X223008800Y-97047800D01*
X223008800Y-97047800D02*
X223008800Y-97706000D01*
X222956000Y-96995000D02*
X222956000Y-96123800D01*
X166304000Y-94259400D02*
X166304000Y-96855300D01*
X166304000Y-96855300D02*
X167599000Y-98150700D01*
X167599000Y-98150700D02*
X222672000Y-98150700D01*
X222672000Y-98150700D02*
X222956000Y-97866200D01*
X222956000Y-97866200D02*
X222956000Y-96995000D01*
%TD*%
M02*
