%TF.GenerationSoftware,KiCad,Pcbnew,5.1.10-88a1d61d58~88~ubuntu20.04.1*%
%TF.CreationDate,2021-10-16T20:43:53-04:00*%
%TF.ProjectId,Spaceship-Badge-555,53706163-6573-4686-9970-2d4261646765,rev?*%
%TF.SameCoordinates,Original*%
%TF.FileFunction,Legend,Top*%
%TF.FilePolarity,Positive*%
%FSLAX46Y46*%
G04 Gerber Fmt 4.6, Leading zero omitted, Abs format (unit mm)*
G04 Created by KiCad (PCBNEW 5.1.10-88a1d61d58~88~ubuntu20.04.1) date 2021-10-16 20:43:53*
%MOMM*%
%LPD*%
G01*
G04 APERTURE LIST*
%ADD10C,0.010000*%
%ADD11C,0.120000*%
G04 APERTURE END LIST*
D10*
%TO.C,G\u002A\u002A\u002A*%
G36*
X194460028Y-118468745D02*
G01*
X194647159Y-118653197D01*
X194755499Y-118877327D01*
X194880882Y-119369365D01*
X194935830Y-120002998D01*
X194920343Y-120667617D01*
X194834421Y-121252609D01*
X194755499Y-121504294D01*
X194585792Y-121815457D01*
X194372071Y-121941509D01*
X194169342Y-121958336D01*
X193781644Y-121860629D01*
X193553846Y-121624025D01*
X193429925Y-121338727D01*
X193359895Y-120914525D01*
X193335140Y-120295046D01*
X193334797Y-120190810D01*
X193367845Y-119440204D01*
X193475569Y-118916794D01*
X193670841Y-118593320D01*
X193966533Y-118442519D01*
X194169342Y-118423284D01*
X194460028Y-118468745D01*
G37*
X194460028Y-118468745D02*
X194647159Y-118653197D01*
X194755499Y-118877327D01*
X194880882Y-119369365D01*
X194935830Y-120002998D01*
X194920343Y-120667617D01*
X194834421Y-121252609D01*
X194755499Y-121504294D01*
X194585792Y-121815457D01*
X194372071Y-121941509D01*
X194169342Y-121958336D01*
X193781644Y-121860629D01*
X193553846Y-121624025D01*
X193429925Y-121338727D01*
X193359895Y-120914525D01*
X193335140Y-120295046D01*
X193334797Y-120190810D01*
X193367845Y-119440204D01*
X193475569Y-118916794D01*
X193670841Y-118593320D01*
X193966533Y-118442519D01*
X194169342Y-118423284D01*
X194460028Y-118468745D01*
G36*
X198363062Y-67693194D02*
G01*
X199154298Y-67707750D01*
X199798405Y-67737006D01*
X200352706Y-67785048D01*
X200874525Y-67855963D01*
X201421183Y-67953839D01*
X201612829Y-67991948D01*
X203967396Y-68587203D01*
X206165921Y-69390479D01*
X208217411Y-70406504D01*
X210130874Y-71640007D01*
X211915313Y-73095714D01*
X212629713Y-73775747D01*
X213879042Y-75118650D01*
X214941482Y-76490105D01*
X215846264Y-77940090D01*
X216622620Y-79518582D01*
X217299781Y-81275559D01*
X217644688Y-82349853D01*
X217764883Y-82764761D01*
X217803659Y-82975493D01*
X217759930Y-83027100D01*
X217632609Y-82964634D01*
X217629900Y-82962962D01*
X217492758Y-82804457D01*
X217284460Y-82482796D01*
X217060319Y-82086318D01*
X216286406Y-80798008D01*
X215324323Y-79468819D01*
X214226306Y-78161667D01*
X213044591Y-76939472D01*
X212032494Y-76030360D01*
X209973183Y-74461219D01*
X207815875Y-73114284D01*
X205543946Y-71982480D01*
X203140773Y-71058730D01*
X200589731Y-70335958D01*
X197874197Y-69807089D01*
X197170983Y-69704792D01*
X196373335Y-69625985D01*
X195384093Y-69574215D01*
X194271214Y-69548954D01*
X193102654Y-69549671D01*
X191946370Y-69575837D01*
X190870320Y-69626922D01*
X189942459Y-69702397D01*
X189446240Y-69765009D01*
X188577566Y-69897988D01*
X187947493Y-69991783D01*
X187535465Y-70044729D01*
X187320928Y-70055159D01*
X187283330Y-70021407D01*
X187402114Y-69941806D01*
X187656728Y-69814690D01*
X188006034Y-69648242D01*
X189231630Y-69125929D01*
X190622028Y-68642456D01*
X192080278Y-68229211D01*
X193121919Y-67991948D01*
X193688882Y-67884476D01*
X194212463Y-67805287D01*
X194749985Y-67750293D01*
X195358771Y-67715408D01*
X196096143Y-67696544D01*
X197019425Y-67689615D01*
X197367374Y-67689250D01*
X198363062Y-67693194D01*
G37*
X198363062Y-67693194D02*
X199154298Y-67707750D01*
X199798405Y-67737006D01*
X200352706Y-67785048D01*
X200874525Y-67855963D01*
X201421183Y-67953839D01*
X201612829Y-67991948D01*
X203967396Y-68587203D01*
X206165921Y-69390479D01*
X208217411Y-70406504D01*
X210130874Y-71640007D01*
X211915313Y-73095714D01*
X212629713Y-73775747D01*
X213879042Y-75118650D01*
X214941482Y-76490105D01*
X215846264Y-77940090D01*
X216622620Y-79518582D01*
X217299781Y-81275559D01*
X217644688Y-82349853D01*
X217764883Y-82764761D01*
X217803659Y-82975493D01*
X217759930Y-83027100D01*
X217632609Y-82964634D01*
X217629900Y-82962962D01*
X217492758Y-82804457D01*
X217284460Y-82482796D01*
X217060319Y-82086318D01*
X216286406Y-80798008D01*
X215324323Y-79468819D01*
X214226306Y-78161667D01*
X213044591Y-76939472D01*
X212032494Y-76030360D01*
X209973183Y-74461219D01*
X207815875Y-73114284D01*
X205543946Y-71982480D01*
X203140773Y-71058730D01*
X200589731Y-70335958D01*
X197874197Y-69807089D01*
X197170983Y-69704792D01*
X196373335Y-69625985D01*
X195384093Y-69574215D01*
X194271214Y-69548954D01*
X193102654Y-69549671D01*
X191946370Y-69575837D01*
X190870320Y-69626922D01*
X189942459Y-69702397D01*
X189446240Y-69765009D01*
X188577566Y-69897988D01*
X187947493Y-69991783D01*
X187535465Y-70044729D01*
X187320928Y-70055159D01*
X187283330Y-70021407D01*
X187402114Y-69941806D01*
X187656728Y-69814690D01*
X188006034Y-69648242D01*
X189231630Y-69125929D01*
X190622028Y-68642456D01*
X192080278Y-68229211D01*
X193121919Y-67991948D01*
X193688882Y-67884476D01*
X194212463Y-67805287D01*
X194749985Y-67750293D01*
X195358771Y-67715408D01*
X196096143Y-67696544D01*
X197019425Y-67689615D01*
X197367374Y-67689250D01*
X198363062Y-67693194D01*
G36*
X193587551Y-83853791D02*
G01*
X195653412Y-83855690D01*
X197727022Y-83858548D01*
X199791476Y-83862343D01*
X201829869Y-83867050D01*
X203825295Y-83872648D01*
X205760851Y-83879112D01*
X207619630Y-83886420D01*
X209384727Y-83894549D01*
X211039238Y-83903475D01*
X212566258Y-83913176D01*
X213948881Y-83923628D01*
X215170203Y-83934808D01*
X216213317Y-83946693D01*
X217061320Y-83959260D01*
X217697306Y-83972486D01*
X218104371Y-83986348D01*
X218263559Y-84000057D01*
X218646926Y-84129474D01*
X218961421Y-84247367D01*
X218970467Y-84251120D01*
X219194951Y-84319201D01*
X219617114Y-84425487D01*
X220178064Y-84555843D01*
X220818909Y-84696136D01*
X220868921Y-84706743D01*
X223697896Y-85378098D01*
X226421476Y-86169319D01*
X229021644Y-87071490D01*
X231480385Y-88075691D01*
X233779682Y-89173003D01*
X235901517Y-90354510D01*
X237827874Y-91611292D01*
X239540737Y-92934430D01*
X241022089Y-94315008D01*
X241639292Y-94988176D01*
X242077366Y-95515288D01*
X242514553Y-96078115D01*
X242875144Y-96578159D01*
X242962867Y-96710184D01*
X243278621Y-97156647D01*
X243528712Y-97398991D01*
X243750922Y-97473655D01*
X243754511Y-97473686D01*
X244052032Y-97564205D01*
X244361864Y-97781938D01*
X244376418Y-97796199D01*
X244517664Y-97954034D01*
X244610119Y-98127067D01*
X244664053Y-98371784D01*
X244689736Y-98744670D01*
X244697438Y-99302210D01*
X244697787Y-99563725D01*
X244697787Y-101009882D01*
X147287478Y-101009882D01*
X147287478Y-99563725D01*
X147291164Y-98924432D01*
X147309070Y-98490479D01*
X147351466Y-98205381D01*
X147428623Y-98012652D01*
X147550809Y-97855806D01*
X147608846Y-97796199D01*
X147930214Y-97474831D01*
X241441965Y-97474831D01*
X240831168Y-96697384D01*
X240330838Y-96110588D01*
X239676715Y-95416633D01*
X238923068Y-94667349D01*
X238124166Y-93914570D01*
X237334280Y-93210127D01*
X236607679Y-92605853D01*
X236294649Y-92364606D01*
X234077125Y-90850153D01*
X231617506Y-89430836D01*
X228918073Y-88107726D01*
X225981107Y-86881894D01*
X222808891Y-85754411D01*
X220999849Y-85187130D01*
X218970467Y-84578439D01*
X196843663Y-84511098D01*
X194457345Y-84503657D01*
X192142359Y-84496087D01*
X189912214Y-84488449D01*
X187780422Y-84480803D01*
X185760492Y-84473208D01*
X183865935Y-84465724D01*
X182110260Y-84458411D01*
X180506978Y-84451329D01*
X179069599Y-84444538D01*
X177811633Y-84438097D01*
X176746590Y-84432067D01*
X175887981Y-84426508D01*
X175249316Y-84421479D01*
X174844104Y-84417040D01*
X174685857Y-84413251D01*
X174684127Y-84412903D01*
X174642273Y-84230475D01*
X174772863Y-84033349D01*
X174945983Y-83940858D01*
X175128325Y-83926902D01*
X175555088Y-83914229D01*
X176209365Y-83902815D01*
X177074253Y-83892638D01*
X178132845Y-83883675D01*
X179368236Y-83875901D01*
X180763523Y-83869295D01*
X182301799Y-83863833D01*
X183966159Y-83859491D01*
X185739699Y-83856248D01*
X187605513Y-83854079D01*
X189546697Y-83852962D01*
X191546344Y-83852874D01*
X193587551Y-83853791D01*
G37*
X193587551Y-83853791D02*
X195653412Y-83855690D01*
X197727022Y-83858548D01*
X199791476Y-83862343D01*
X201829869Y-83867050D01*
X203825295Y-83872648D01*
X205760851Y-83879112D01*
X207619630Y-83886420D01*
X209384727Y-83894549D01*
X211039238Y-83903475D01*
X212566258Y-83913176D01*
X213948881Y-83923628D01*
X215170203Y-83934808D01*
X216213317Y-83946693D01*
X217061320Y-83959260D01*
X217697306Y-83972486D01*
X218104371Y-83986348D01*
X218263559Y-84000057D01*
X218646926Y-84129474D01*
X218961421Y-84247367D01*
X218970467Y-84251120D01*
X219194951Y-84319201D01*
X219617114Y-84425487D01*
X220178064Y-84555843D01*
X220818909Y-84696136D01*
X220868921Y-84706743D01*
X223697896Y-85378098D01*
X226421476Y-86169319D01*
X229021644Y-87071490D01*
X231480385Y-88075691D01*
X233779682Y-89173003D01*
X235901517Y-90354510D01*
X237827874Y-91611292D01*
X239540737Y-92934430D01*
X241022089Y-94315008D01*
X241639292Y-94988176D01*
X242077366Y-95515288D01*
X242514553Y-96078115D01*
X242875144Y-96578159D01*
X242962867Y-96710184D01*
X243278621Y-97156647D01*
X243528712Y-97398991D01*
X243750922Y-97473655D01*
X243754511Y-97473686D01*
X244052032Y-97564205D01*
X244361864Y-97781938D01*
X244376418Y-97796199D01*
X244517664Y-97954034D01*
X244610119Y-98127067D01*
X244664053Y-98371784D01*
X244689736Y-98744670D01*
X244697438Y-99302210D01*
X244697787Y-99563725D01*
X244697787Y-101009882D01*
X147287478Y-101009882D01*
X147287478Y-99563725D01*
X147291164Y-98924432D01*
X147309070Y-98490479D01*
X147351466Y-98205381D01*
X147428623Y-98012652D01*
X147550809Y-97855806D01*
X147608846Y-97796199D01*
X147930214Y-97474831D01*
X241441965Y-97474831D01*
X240831168Y-96697384D01*
X240330838Y-96110588D01*
X239676715Y-95416633D01*
X238923068Y-94667349D01*
X238124166Y-93914570D01*
X237334280Y-93210127D01*
X236607679Y-92605853D01*
X236294649Y-92364606D01*
X234077125Y-90850153D01*
X231617506Y-89430836D01*
X228918073Y-88107726D01*
X225981107Y-86881894D01*
X222808891Y-85754411D01*
X220999849Y-85187130D01*
X218970467Y-84578439D01*
X196843663Y-84511098D01*
X194457345Y-84503657D01*
X192142359Y-84496087D01*
X189912214Y-84488449D01*
X187780422Y-84480803D01*
X185760492Y-84473208D01*
X183865935Y-84465724D01*
X182110260Y-84458411D01*
X180506978Y-84451329D01*
X179069599Y-84444538D01*
X177811633Y-84438097D01*
X176746590Y-84432067D01*
X175887981Y-84426508D01*
X175249316Y-84421479D01*
X174844104Y-84417040D01*
X174685857Y-84413251D01*
X174684127Y-84412903D01*
X174642273Y-84230475D01*
X174772863Y-84033349D01*
X174945983Y-83940858D01*
X175128325Y-83926902D01*
X175555088Y-83914229D01*
X176209365Y-83902815D01*
X177074253Y-83892638D01*
X178132845Y-83883675D01*
X179368236Y-83875901D01*
X180763523Y-83869295D01*
X182301799Y-83863833D01*
X183966159Y-83859491D01*
X185739699Y-83856248D01*
X187605513Y-83854079D01*
X189546697Y-83852962D01*
X191546344Y-83852874D01*
X193587551Y-83853791D01*
G36*
X244697787Y-103890295D02*
G01*
X147287478Y-103890295D01*
X147287478Y-101795449D01*
X244697787Y-101795449D01*
X244697787Y-103890295D01*
G37*
X244697787Y-103890295D02*
X147287478Y-103890295D01*
X147287478Y-101795449D01*
X244697787Y-101795449D01*
X244697787Y-103890295D01*
G36*
X244697787Y-105854212D02*
G01*
X147287478Y-105854212D01*
X147287478Y-104675862D01*
X244697787Y-104675862D01*
X244697787Y-105854212D01*
G37*
X244697787Y-105854212D02*
X147287478Y-105854212D01*
X147287478Y-104675862D01*
X244697787Y-104675862D01*
X244697787Y-105854212D01*
G36*
X244697787Y-107294418D02*
G01*
X147287478Y-107294418D01*
X147287478Y-106639779D01*
X244697787Y-106639779D01*
X244697787Y-107294418D01*
G37*
X244697787Y-107294418D02*
X147287478Y-107294418D01*
X147287478Y-106639779D01*
X244697787Y-106639779D01*
X244697787Y-107294418D01*
G36*
X200887187Y-108211265D02*
G01*
X205523871Y-108212320D01*
X209902467Y-108214078D01*
X214022757Y-108216538D01*
X217884524Y-108219700D01*
X221487551Y-108223563D01*
X224831621Y-108228126D01*
X227916517Y-108233389D01*
X230742021Y-108239351D01*
X233307916Y-108246011D01*
X235613985Y-108253370D01*
X237660011Y-108261427D01*
X239445776Y-108270180D01*
X240971064Y-108279629D01*
X242235656Y-108289775D01*
X243239336Y-108300615D01*
X243981887Y-108312150D01*
X244463092Y-108324379D01*
X244682732Y-108337302D01*
X244697787Y-108341841D01*
X244566896Y-108354998D01*
X244174367Y-108367463D01*
X243520418Y-108379233D01*
X242605266Y-108390309D01*
X241429128Y-108400690D01*
X239992221Y-108410376D01*
X238294763Y-108419365D01*
X236336971Y-108427658D01*
X234119062Y-108435253D01*
X231641253Y-108442151D01*
X228903761Y-108448350D01*
X225906804Y-108453850D01*
X222650599Y-108458651D01*
X219135364Y-108462751D01*
X215361314Y-108466150D01*
X211328668Y-108468848D01*
X207037643Y-108470844D01*
X202488456Y-108472138D01*
X197681324Y-108472728D01*
X195992632Y-108472769D01*
X191098077Y-108472417D01*
X186461393Y-108471362D01*
X182082798Y-108469604D01*
X177962508Y-108467144D01*
X174100740Y-108463982D01*
X170497713Y-108460120D01*
X167153643Y-108455556D01*
X164068747Y-108450294D01*
X161243243Y-108444331D01*
X158677348Y-108437671D01*
X156371279Y-108430312D01*
X154325253Y-108422255D01*
X152539488Y-108413502D01*
X151014201Y-108404053D01*
X149749608Y-108393907D01*
X148745928Y-108383067D01*
X148003377Y-108371532D01*
X147522173Y-108359303D01*
X147302532Y-108346381D01*
X147287478Y-108341841D01*
X147418369Y-108328684D01*
X147810897Y-108316219D01*
X148464846Y-108304449D01*
X149379999Y-108293373D01*
X150556136Y-108282992D01*
X151993043Y-108273306D01*
X153690501Y-108264317D01*
X155648293Y-108256024D01*
X157866203Y-108248429D01*
X160344012Y-108241531D01*
X163081503Y-108235332D01*
X166078460Y-108229832D01*
X169334665Y-108225032D01*
X172849901Y-108220931D01*
X176623950Y-108217532D01*
X180656596Y-108214834D01*
X184947621Y-108212838D01*
X189496808Y-108211544D01*
X194303940Y-108210954D01*
X195992632Y-108210913D01*
X200887187Y-108211265D01*
G37*
X200887187Y-108211265D02*
X205523871Y-108212320D01*
X209902467Y-108214078D01*
X214022757Y-108216538D01*
X217884524Y-108219700D01*
X221487551Y-108223563D01*
X224831621Y-108228126D01*
X227916517Y-108233389D01*
X230742021Y-108239351D01*
X233307916Y-108246011D01*
X235613985Y-108253370D01*
X237660011Y-108261427D01*
X239445776Y-108270180D01*
X240971064Y-108279629D01*
X242235656Y-108289775D01*
X243239336Y-108300615D01*
X243981887Y-108312150D01*
X244463092Y-108324379D01*
X244682732Y-108337302D01*
X244697787Y-108341841D01*
X244566896Y-108354998D01*
X244174367Y-108367463D01*
X243520418Y-108379233D01*
X242605266Y-108390309D01*
X241429128Y-108400690D01*
X239992221Y-108410376D01*
X238294763Y-108419365D01*
X236336971Y-108427658D01*
X234119062Y-108435253D01*
X231641253Y-108442151D01*
X228903761Y-108448350D01*
X225906804Y-108453850D01*
X222650599Y-108458651D01*
X219135364Y-108462751D01*
X215361314Y-108466150D01*
X211328668Y-108468848D01*
X207037643Y-108470844D01*
X202488456Y-108472138D01*
X197681324Y-108472728D01*
X195992632Y-108472769D01*
X191098077Y-108472417D01*
X186461393Y-108471362D01*
X182082798Y-108469604D01*
X177962508Y-108467144D01*
X174100740Y-108463982D01*
X170497713Y-108460120D01*
X167153643Y-108455556D01*
X164068747Y-108450294D01*
X161243243Y-108444331D01*
X158677348Y-108437671D01*
X156371279Y-108430312D01*
X154325253Y-108422255D01*
X152539488Y-108413502D01*
X151014201Y-108404053D01*
X149749608Y-108393907D01*
X148745928Y-108383067D01*
X148003377Y-108371532D01*
X147522173Y-108359303D01*
X147302532Y-108346381D01*
X147287478Y-108341841D01*
X147418369Y-108328684D01*
X147810897Y-108316219D01*
X148464846Y-108304449D01*
X149379999Y-108293373D01*
X150556136Y-108282992D01*
X151993043Y-108273306D01*
X153690501Y-108264317D01*
X155648293Y-108256024D01*
X157866203Y-108248429D01*
X160344012Y-108241531D01*
X163081503Y-108235332D01*
X166078460Y-108229832D01*
X169334665Y-108225032D01*
X172849901Y-108220931D01*
X176623950Y-108217532D01*
X180656596Y-108214834D01*
X184947621Y-108212838D01*
X189496808Y-108211544D01*
X194303940Y-108210954D01*
X195992632Y-108210913D01*
X200887187Y-108211265D01*
G36*
X210631165Y-110973875D02*
G01*
X210729035Y-111052346D01*
X210774148Y-111252871D01*
X210786882Y-111632508D01*
X210787478Y-111876893D01*
X210787478Y-112793387D01*
X212882323Y-112793387D01*
X212882323Y-111876893D01*
X212887136Y-111398074D01*
X212915162Y-111124036D01*
X212986777Y-110997720D01*
X213122362Y-110962066D01*
X213209642Y-110960398D01*
X213536962Y-110960398D01*
X213536962Y-115281016D01*
X213209642Y-115281016D01*
X213043154Y-115268779D01*
X212945562Y-115195294D01*
X212898482Y-115005405D01*
X212883526Y-114643955D01*
X212882323Y-114299058D01*
X212882323Y-113317099D01*
X210787478Y-113317099D01*
X210787478Y-114299058D01*
X210783398Y-114798523D01*
X210758903Y-115091298D01*
X210695607Y-115232540D01*
X210575124Y-115277407D01*
X210460158Y-115281016D01*
X210132838Y-115281016D01*
X210132838Y-110960398D01*
X210460158Y-110960398D01*
X210631165Y-110973875D01*
G37*
X210631165Y-110973875D02*
X210729035Y-111052346D01*
X210774148Y-111252871D01*
X210786882Y-111632508D01*
X210787478Y-111876893D01*
X210787478Y-112793387D01*
X212882323Y-112793387D01*
X212882323Y-111876893D01*
X212887136Y-111398074D01*
X212915162Y-111124036D01*
X212986777Y-110997720D01*
X213122362Y-110962066D01*
X213209642Y-110960398D01*
X213536962Y-110960398D01*
X213536962Y-115281016D01*
X213209642Y-115281016D01*
X213043154Y-115268779D01*
X212945562Y-115195294D01*
X212898482Y-115005405D01*
X212883526Y-114643955D01*
X212882323Y-114299058D01*
X212882323Y-113317099D01*
X210787478Y-113317099D01*
X210787478Y-114299058D01*
X210783398Y-114798523D01*
X210758903Y-115091298D01*
X210695607Y-115232540D01*
X210575124Y-115277407D01*
X210460158Y-115281016D01*
X210132838Y-115281016D01*
X210132838Y-110960398D01*
X210460158Y-110960398D01*
X210631165Y-110973875D01*
G36*
X208287164Y-111002670D02*
G01*
X208701084Y-111129843D01*
X208869641Y-111342455D01*
X208861439Y-111484328D01*
X208731444Y-111685556D01*
X208598516Y-111687623D01*
X208347726Y-111619334D01*
X207977604Y-111546041D01*
X207910046Y-111534863D01*
X207527657Y-111512813D01*
X207259668Y-111623372D01*
X207126328Y-111741135D01*
X206938763Y-111964416D01*
X206933498Y-112144166D01*
X207028942Y-112312005D01*
X207259534Y-112523123D01*
X207634544Y-112740251D01*
X207856838Y-112835239D01*
X208497221Y-113136194D01*
X208896055Y-113479738D01*
X209072581Y-113884886D01*
X209085416Y-114049316D01*
X209042080Y-114534383D01*
X208883744Y-114850751D01*
X208567910Y-115081341D01*
X208552340Y-115089467D01*
X208148495Y-115209648D01*
X207602276Y-115262998D01*
X207025098Y-115247188D01*
X206528373Y-115159887D01*
X206448026Y-115133474D01*
X206198814Y-114985365D01*
X206164565Y-114769537D01*
X206171469Y-114740472D01*
X206296758Y-114545590D01*
X206517621Y-114550428D01*
X207192859Y-114699172D01*
X207689335Y-114716464D01*
X208054346Y-114603019D01*
X208101401Y-114574300D01*
X208387401Y-114292806D01*
X208417867Y-113999255D01*
X208198230Y-113703152D01*
X207733923Y-113414003D01*
X207344205Y-113249316D01*
X206745053Y-112941908D01*
X206368409Y-112564357D01*
X206224262Y-112141830D01*
X206322599Y-111699494D01*
X206587715Y-111343110D01*
X206878939Y-111100221D01*
X207187743Y-110987568D01*
X207626615Y-110960398D01*
X208287164Y-111002670D01*
G37*
X208287164Y-111002670D02*
X208701084Y-111129843D01*
X208869641Y-111342455D01*
X208861439Y-111484328D01*
X208731444Y-111685556D01*
X208598516Y-111687623D01*
X208347726Y-111619334D01*
X207977604Y-111546041D01*
X207910046Y-111534863D01*
X207527657Y-111512813D01*
X207259668Y-111623372D01*
X207126328Y-111741135D01*
X206938763Y-111964416D01*
X206933498Y-112144166D01*
X207028942Y-112312005D01*
X207259534Y-112523123D01*
X207634544Y-112740251D01*
X207856838Y-112835239D01*
X208497221Y-113136194D01*
X208896055Y-113479738D01*
X209072581Y-113884886D01*
X209085416Y-114049316D01*
X209042080Y-114534383D01*
X208883744Y-114850751D01*
X208567910Y-115081341D01*
X208552340Y-115089467D01*
X208148495Y-115209648D01*
X207602276Y-115262998D01*
X207025098Y-115247188D01*
X206528373Y-115159887D01*
X206448026Y-115133474D01*
X206198814Y-114985365D01*
X206164565Y-114769537D01*
X206171469Y-114740472D01*
X206296758Y-114545590D01*
X206517621Y-114550428D01*
X207192859Y-114699172D01*
X207689335Y-114716464D01*
X208054346Y-114603019D01*
X208101401Y-114574300D01*
X208387401Y-114292806D01*
X208417867Y-113999255D01*
X208198230Y-113703152D01*
X207733923Y-113414003D01*
X207344205Y-113249316D01*
X206745053Y-112941908D01*
X206368409Y-112564357D01*
X206224262Y-112141830D01*
X206322599Y-111699494D01*
X206587715Y-111343110D01*
X206878939Y-111100221D01*
X207187743Y-110987568D01*
X207626615Y-110960398D01*
X208287164Y-111002670D01*
G36*
X203707100Y-110979396D02*
G01*
X203831032Y-111049546D01*
X203961211Y-111200382D01*
X204112326Y-111459987D01*
X204299062Y-111856443D01*
X204536107Y-112417833D01*
X204838146Y-113172240D01*
X205158546Y-113990314D01*
X205661548Y-115281016D01*
X205292852Y-115281016D01*
X205036206Y-115238455D01*
X204860183Y-115066072D01*
X204714609Y-114757305D01*
X204505062Y-114233594D01*
X202580936Y-114233594D01*
X202408096Y-114757305D01*
X202268457Y-115097187D01*
X202103810Y-115248608D01*
X201869296Y-115281016D01*
X201503336Y-115281016D01*
X201812235Y-114462717D01*
X202068291Y-113794013D01*
X202149181Y-113587403D01*
X202869770Y-113587403D01*
X202971418Y-113684190D01*
X203206025Y-113710426D01*
X203565045Y-113709882D01*
X204346856Y-113709882D01*
X204108667Y-113087975D01*
X203933623Y-112632094D01*
X203770226Y-112208375D01*
X203717880Y-112073284D01*
X203565283Y-111680501D01*
X203256567Y-112435860D01*
X203022947Y-113007025D01*
X202890481Y-113376278D01*
X202869770Y-113587403D01*
X202149181Y-113587403D01*
X202344223Y-113089233D01*
X202613950Y-112413512D01*
X202851389Y-111831985D01*
X203030458Y-111409789D01*
X203070496Y-111320449D01*
X203287626Y-111035789D01*
X203574731Y-110961850D01*
X203707100Y-110979396D01*
G37*
X203707100Y-110979396D02*
X203831032Y-111049546D01*
X203961211Y-111200382D01*
X204112326Y-111459987D01*
X204299062Y-111856443D01*
X204536107Y-112417833D01*
X204838146Y-113172240D01*
X205158546Y-113990314D01*
X205661548Y-115281016D01*
X205292852Y-115281016D01*
X205036206Y-115238455D01*
X204860183Y-115066072D01*
X204714609Y-114757305D01*
X204505062Y-114233594D01*
X202580936Y-114233594D01*
X202408096Y-114757305D01*
X202268457Y-115097187D01*
X202103810Y-115248608D01*
X201869296Y-115281016D01*
X201503336Y-115281016D01*
X201812235Y-114462717D01*
X202068291Y-113794013D01*
X202149181Y-113587403D01*
X202869770Y-113587403D01*
X202971418Y-113684190D01*
X203206025Y-113710426D01*
X203565045Y-113709882D01*
X204346856Y-113709882D01*
X204108667Y-113087975D01*
X203933623Y-112632094D01*
X203770226Y-112208375D01*
X203717880Y-112073284D01*
X203565283Y-111680501D01*
X203256567Y-112435860D01*
X203022947Y-113007025D01*
X202890481Y-113376278D01*
X202869770Y-113587403D01*
X202149181Y-113587403D01*
X202344223Y-113089233D01*
X202613950Y-112413512D01*
X202851389Y-111831985D01*
X203030458Y-111409789D01*
X203070496Y-111320449D01*
X203287626Y-111035789D01*
X203574731Y-110961850D01*
X203707100Y-110979396D01*
G36*
X200376752Y-110974670D02*
G01*
X200469871Y-111049582D01*
X200531271Y-111233276D01*
X200575591Y-111573894D01*
X200617468Y-112119577D01*
X200625448Y-112236944D01*
X200673783Y-112919762D01*
X200727395Y-113626077D01*
X200776944Y-114234200D01*
X200791231Y-114397253D01*
X200829295Y-114864448D01*
X200826878Y-115128728D01*
X200767863Y-115247897D01*
X200636130Y-115279760D01*
X200544797Y-115281016D01*
X200351068Y-115255221D01*
X200239282Y-115134801D01*
X200171072Y-114855203D01*
X200136234Y-114593645D01*
X200089485Y-114061320D01*
X200059032Y-113440891D01*
X200052533Y-113080248D01*
X200032326Y-112593565D01*
X199974163Y-112355773D01*
X199913935Y-112339177D01*
X199801393Y-112489326D01*
X199614869Y-112820541D01*
X199386208Y-113274368D01*
X199267755Y-113525254D01*
X198976811Y-114119482D01*
X198737352Y-114488380D01*
X198521035Y-114629019D01*
X198299520Y-114538467D01*
X198044465Y-114213792D01*
X197727528Y-113652063D01*
X197571732Y-113349831D01*
X196922511Y-112073284D01*
X196915819Y-112675437D01*
X196900830Y-113116311D01*
X196867976Y-113692892D01*
X196824451Y-114279303D01*
X196776736Y-114784895D01*
X196724749Y-115083536D01*
X196646187Y-115229511D01*
X196518748Y-115277102D01*
X196412882Y-115281016D01*
X196085989Y-115281016D01*
X196172585Y-114069934D01*
X196242905Y-113091560D01*
X196299777Y-112343456D01*
X196348849Y-111794734D01*
X196395770Y-111414505D01*
X196446188Y-111171881D01*
X196505749Y-111035975D01*
X196580101Y-110975896D01*
X196674893Y-110960758D01*
X196741147Y-110960398D01*
X196890487Y-110987686D01*
X197032723Y-111095199D01*
X197194501Y-111321411D01*
X197402469Y-111704795D01*
X197683271Y-112283826D01*
X197737779Y-112399410D01*
X198003735Y-112953055D01*
X198232789Y-113408166D01*
X198401119Y-113718897D01*
X198484900Y-113839400D01*
X198486173Y-113839616D01*
X198564606Y-113727864D01*
X198717962Y-113426097D01*
X198920852Y-112986181D01*
X199061020Y-112665316D01*
X199363386Y-111978353D01*
X199598600Y-111500756D01*
X199791388Y-111196685D01*
X199966477Y-111030302D01*
X200148594Y-110965764D01*
X200237273Y-110960398D01*
X200376752Y-110974670D01*
G37*
X200376752Y-110974670D02*
X200469871Y-111049582D01*
X200531271Y-111233276D01*
X200575591Y-111573894D01*
X200617468Y-112119577D01*
X200625448Y-112236944D01*
X200673783Y-112919762D01*
X200727395Y-113626077D01*
X200776944Y-114234200D01*
X200791231Y-114397253D01*
X200829295Y-114864448D01*
X200826878Y-115128728D01*
X200767863Y-115247897D01*
X200636130Y-115279760D01*
X200544797Y-115281016D01*
X200351068Y-115255221D01*
X200239282Y-115134801D01*
X200171072Y-114855203D01*
X200136234Y-114593645D01*
X200089485Y-114061320D01*
X200059032Y-113440891D01*
X200052533Y-113080248D01*
X200032326Y-112593565D01*
X199974163Y-112355773D01*
X199913935Y-112339177D01*
X199801393Y-112489326D01*
X199614869Y-112820541D01*
X199386208Y-113274368D01*
X199267755Y-113525254D01*
X198976811Y-114119482D01*
X198737352Y-114488380D01*
X198521035Y-114629019D01*
X198299520Y-114538467D01*
X198044465Y-114213792D01*
X197727528Y-113652063D01*
X197571732Y-113349831D01*
X196922511Y-112073284D01*
X196915819Y-112675437D01*
X196900830Y-113116311D01*
X196867976Y-113692892D01*
X196824451Y-114279303D01*
X196776736Y-114784895D01*
X196724749Y-115083536D01*
X196646187Y-115229511D01*
X196518748Y-115277102D01*
X196412882Y-115281016D01*
X196085989Y-115281016D01*
X196172585Y-114069934D01*
X196242905Y-113091560D01*
X196299777Y-112343456D01*
X196348849Y-111794734D01*
X196395770Y-111414505D01*
X196446188Y-111171881D01*
X196505749Y-111035975D01*
X196580101Y-110975896D01*
X196674893Y-110960758D01*
X196741147Y-110960398D01*
X196890487Y-110987686D01*
X197032723Y-111095199D01*
X197194501Y-111321411D01*
X197402469Y-111704795D01*
X197683271Y-112283826D01*
X197737779Y-112399410D01*
X198003735Y-112953055D01*
X198232789Y-113408166D01*
X198401119Y-113718897D01*
X198484900Y-113839400D01*
X198486173Y-113839616D01*
X198564606Y-113727864D01*
X198717962Y-113426097D01*
X198920852Y-112986181D01*
X199061020Y-112665316D01*
X199363386Y-111978353D01*
X199598600Y-111500756D01*
X199791388Y-111196685D01*
X199966477Y-111030302D01*
X200148594Y-110965764D01*
X200237273Y-110960398D01*
X200376752Y-110974670D01*
G36*
X194445613Y-110963681D02*
G01*
X194843369Y-110979410D01*
X195071886Y-111016402D01*
X195177459Y-111083476D01*
X195206384Y-111189449D01*
X195207065Y-111222253D01*
X195185198Y-111352721D01*
X195084480Y-111430914D01*
X194852240Y-111469999D01*
X194435803Y-111483146D01*
X194159642Y-111484109D01*
X193112220Y-111484109D01*
X193112220Y-112793387D01*
X194028715Y-112793387D01*
X194510361Y-112800452D01*
X194786289Y-112832311D01*
X194912490Y-112904961D01*
X194944954Y-113034399D01*
X194945209Y-113055243D01*
X194920483Y-113192856D01*
X194808978Y-113271693D01*
X194554702Y-113307750D01*
X194101667Y-113317026D01*
X194028715Y-113317099D01*
X193112220Y-113317099D01*
X193112220Y-114757305D01*
X194225106Y-114757305D01*
X194766225Y-114762178D01*
X195096752Y-114784828D01*
X195267888Y-114837304D01*
X195330837Y-114931651D01*
X195337993Y-115019161D01*
X195321420Y-115133759D01*
X195241522Y-115208981D01*
X195053034Y-115253058D01*
X194710689Y-115274218D01*
X194169220Y-115280694D01*
X193897787Y-115281016D01*
X192457581Y-115281016D01*
X192457581Y-110960398D01*
X193832323Y-110960398D01*
X194445613Y-110963681D01*
G37*
X194445613Y-110963681D02*
X194843369Y-110979410D01*
X195071886Y-111016402D01*
X195177459Y-111083476D01*
X195206384Y-111189449D01*
X195207065Y-111222253D01*
X195185198Y-111352721D01*
X195084480Y-111430914D01*
X194852240Y-111469999D01*
X194435803Y-111483146D01*
X194159642Y-111484109D01*
X193112220Y-111484109D01*
X193112220Y-112793387D01*
X194028715Y-112793387D01*
X194510361Y-112800452D01*
X194786289Y-112832311D01*
X194912490Y-112904961D01*
X194944954Y-113034399D01*
X194945209Y-113055243D01*
X194920483Y-113192856D01*
X194808978Y-113271693D01*
X194554702Y-113307750D01*
X194101667Y-113317026D01*
X194028715Y-113317099D01*
X193112220Y-113317099D01*
X193112220Y-114757305D01*
X194225106Y-114757305D01*
X194766225Y-114762178D01*
X195096752Y-114784828D01*
X195267888Y-114837304D01*
X195330837Y-114931651D01*
X195337993Y-115019161D01*
X195321420Y-115133759D01*
X195241522Y-115208981D01*
X195053034Y-115253058D01*
X194710689Y-115274218D01*
X194169220Y-115280694D01*
X193897787Y-115281016D01*
X192457581Y-115281016D01*
X192457581Y-110960398D01*
X193832323Y-110960398D01*
X194445613Y-110963681D01*
G36*
X189624917Y-111026357D02*
G01*
X190306072Y-111234393D01*
X190806953Y-111599745D01*
X191151967Y-112137651D01*
X191296322Y-112557052D01*
X191372589Y-113304083D01*
X191204674Y-113999131D01*
X190805982Y-114599796D01*
X190586232Y-114803051D01*
X190324553Y-114997025D01*
X190072936Y-115120226D01*
X189756018Y-115193175D01*
X189298433Y-115236393D01*
X188919581Y-115256850D01*
X187744179Y-115313046D01*
X187744179Y-114793779D01*
X188398818Y-114793779D01*
X189070017Y-114714285D01*
X189528680Y-114626836D01*
X189925995Y-114495791D01*
X190057820Y-114427345D01*
X190418841Y-114037498D01*
X190601902Y-113465093D01*
X190624591Y-113120707D01*
X190542732Y-112481745D01*
X190284539Y-112018103D01*
X189831090Y-111710382D01*
X189163461Y-111539187D01*
X189070017Y-111527129D01*
X188398818Y-111447635D01*
X188398818Y-114793779D01*
X187744179Y-114793779D01*
X187744179Y-110960398D01*
X188739082Y-110960398D01*
X189624917Y-111026357D01*
G37*
X189624917Y-111026357D02*
X190306072Y-111234393D01*
X190806953Y-111599745D01*
X191151967Y-112137651D01*
X191296322Y-112557052D01*
X191372589Y-113304083D01*
X191204674Y-113999131D01*
X190805982Y-114599796D01*
X190586232Y-114803051D01*
X190324553Y-114997025D01*
X190072936Y-115120226D01*
X189756018Y-115193175D01*
X189298433Y-115236393D01*
X188919581Y-115256850D01*
X187744179Y-115313046D01*
X187744179Y-114793779D01*
X188398818Y-114793779D01*
X189070017Y-114714285D01*
X189528680Y-114626836D01*
X189925995Y-114495791D01*
X190057820Y-114427345D01*
X190418841Y-114037498D01*
X190601902Y-113465093D01*
X190624591Y-113120707D01*
X190542732Y-112481745D01*
X190284539Y-112018103D01*
X189831090Y-111710382D01*
X189163461Y-111539187D01*
X189070017Y-111527129D01*
X188398818Y-111447635D01*
X188398818Y-114793779D01*
X187744179Y-114793779D01*
X187744179Y-110960398D01*
X188739082Y-110960398D01*
X189624917Y-111026357D01*
G36*
X185298007Y-111080153D02*
G01*
X185650665Y-111254985D01*
X186169436Y-111679727D01*
X186476109Y-112137932D01*
X186613005Y-112710120D01*
X186631292Y-113120707D01*
X186572642Y-113794555D01*
X186368478Y-114308257D01*
X185976479Y-114742335D01*
X185650665Y-114986429D01*
X185103590Y-115218961D01*
X184459301Y-115285261D01*
X183824228Y-115183707D01*
X183455095Y-115019868D01*
X182942732Y-114584712D01*
X182632831Y-114014157D01*
X182511086Y-113279513D01*
X182509772Y-113210894D01*
X183161667Y-113210894D01*
X183282565Y-113787367D01*
X183424877Y-114074459D01*
X183815603Y-114499596D01*
X184300074Y-114705978D01*
X184821787Y-114689307D01*
X185324240Y-114445291D01*
X185551137Y-114236075D01*
X185774888Y-113936903D01*
X185882367Y-113615519D01*
X185911142Y-113156380D01*
X185911189Y-113128687D01*
X185813798Y-112465657D01*
X185535037Y-111956679D01*
X185095025Y-111630635D01*
X184806315Y-111542438D01*
X184264412Y-111554976D01*
X183802922Y-111775881D01*
X183447919Y-112157362D01*
X183225476Y-112651629D01*
X183161667Y-113210894D01*
X182509772Y-113210894D01*
X182508044Y-113120707D01*
X182596007Y-112352004D01*
X182869436Y-111752785D01*
X183342636Y-111294359D01*
X183455095Y-111221546D01*
X184023967Y-111006010D01*
X184673748Y-110959419D01*
X185298007Y-111080153D01*
G37*
X185298007Y-111080153D02*
X185650665Y-111254985D01*
X186169436Y-111679727D01*
X186476109Y-112137932D01*
X186613005Y-112710120D01*
X186631292Y-113120707D01*
X186572642Y-113794555D01*
X186368478Y-114308257D01*
X185976479Y-114742335D01*
X185650665Y-114986429D01*
X185103590Y-115218961D01*
X184459301Y-115285261D01*
X183824228Y-115183707D01*
X183455095Y-115019868D01*
X182942732Y-114584712D01*
X182632831Y-114014157D01*
X182511086Y-113279513D01*
X182509772Y-113210894D01*
X183161667Y-113210894D01*
X183282565Y-113787367D01*
X183424877Y-114074459D01*
X183815603Y-114499596D01*
X184300074Y-114705978D01*
X184821787Y-114689307D01*
X185324240Y-114445291D01*
X185551137Y-114236075D01*
X185774888Y-113936903D01*
X185882367Y-113615519D01*
X185911142Y-113156380D01*
X185911189Y-113128687D01*
X185813798Y-112465657D01*
X185535037Y-111956679D01*
X185095025Y-111630635D01*
X184806315Y-111542438D01*
X184264412Y-111554976D01*
X183802922Y-111775881D01*
X183447919Y-112157362D01*
X183225476Y-112651629D01*
X183161667Y-113210894D01*
X182509772Y-113210894D01*
X182508044Y-113120707D01*
X182596007Y-112352004D01*
X182869436Y-111752785D01*
X183342636Y-111294359D01*
X183455095Y-111221546D01*
X184023967Y-111006010D01*
X184673748Y-110959419D01*
X185298007Y-111080153D01*
G36*
X180996431Y-111006917D02*
G01*
X181402231Y-111140354D01*
X181583112Y-111352734D01*
X181590570Y-111415525D01*
X181533908Y-111613539D01*
X181334899Y-111678493D01*
X180950015Y-111621058D01*
X180850929Y-111596847D01*
X180225591Y-111549723D01*
X179698038Y-111726001D01*
X179297881Y-112096256D01*
X179054733Y-112631062D01*
X178998206Y-113300994D01*
X179009348Y-113426756D01*
X179183746Y-114020565D01*
X179539417Y-114437591D01*
X180054451Y-114666234D01*
X180706938Y-114694893D01*
X181215577Y-114594901D01*
X181480713Y-114560191D01*
X181605725Y-114686293D01*
X181630714Y-114765747D01*
X181614141Y-115000458D01*
X181380135Y-115155418D01*
X181375277Y-115157275D01*
X180849890Y-115268901D01*
X180236486Y-115272614D01*
X179652532Y-115176065D01*
X179265405Y-115019868D01*
X178753041Y-114584712D01*
X178443141Y-114014157D01*
X178321395Y-113279513D01*
X178318353Y-113120707D01*
X178418623Y-112326880D01*
X178712113Y-111703440D01*
X179187846Y-111261845D01*
X179834842Y-111013551D01*
X180388095Y-110960887D01*
X180996431Y-111006917D01*
G37*
X180996431Y-111006917D02*
X181402231Y-111140354D01*
X181583112Y-111352734D01*
X181590570Y-111415525D01*
X181533908Y-111613539D01*
X181334899Y-111678493D01*
X180950015Y-111621058D01*
X180850929Y-111596847D01*
X180225591Y-111549723D01*
X179698038Y-111726001D01*
X179297881Y-112096256D01*
X179054733Y-112631062D01*
X178998206Y-113300994D01*
X179009348Y-113426756D01*
X179183746Y-114020565D01*
X179539417Y-114437591D01*
X180054451Y-114666234D01*
X180706938Y-114694893D01*
X181215577Y-114594901D01*
X181480713Y-114560191D01*
X181605725Y-114686293D01*
X181630714Y-114765747D01*
X181614141Y-115000458D01*
X181380135Y-115155418D01*
X181375277Y-115157275D01*
X180849890Y-115268901D01*
X180236486Y-115272614D01*
X179652532Y-115176065D01*
X179265405Y-115019868D01*
X178753041Y-114584712D01*
X178443141Y-114014157D01*
X178321395Y-113279513D01*
X178318353Y-113120707D01*
X178418623Y-112326880D01*
X178712113Y-111703440D01*
X179187846Y-111261845D01*
X179834842Y-111013551D01*
X180388095Y-110960887D01*
X180996431Y-111006917D01*
G36*
X202306924Y-116628017D02*
G01*
X206383014Y-116735407D01*
X210293896Y-116917492D01*
X214083181Y-117176807D01*
X217794480Y-117515889D01*
X221471404Y-117937274D01*
X221752154Y-117972925D01*
X222546723Y-118078601D01*
X223423499Y-118202161D01*
X224345315Y-118337650D01*
X225275006Y-118479112D01*
X226175404Y-118620592D01*
X227009344Y-118756135D01*
X227739659Y-118879784D01*
X228329183Y-118985586D01*
X228740749Y-119067583D01*
X228937191Y-119119822D01*
X228947053Y-119125815D01*
X228852678Y-119186422D01*
X228542873Y-119310243D01*
X228053203Y-119485867D01*
X227419236Y-119701879D01*
X226676537Y-119946867D01*
X225860672Y-120209418D01*
X225007208Y-120478120D01*
X224151710Y-120741559D01*
X223329744Y-120988323D01*
X222576878Y-121207000D01*
X221928676Y-121386175D01*
X221785416Y-121423910D01*
X218505780Y-122198583D01*
X215023257Y-122872415D01*
X211379099Y-123439238D01*
X207614562Y-123892885D01*
X203770899Y-124227186D01*
X202473560Y-124311368D01*
X201643506Y-124349326D01*
X200599662Y-124379303D01*
X199389972Y-124401339D01*
X198062380Y-124415470D01*
X196664827Y-124421734D01*
X195245258Y-124420169D01*
X193851616Y-124410811D01*
X192531845Y-124393698D01*
X191333887Y-124368868D01*
X190305686Y-124336358D01*
X189577168Y-124301295D01*
X186354942Y-124056884D01*
X183111612Y-123713120D01*
X179897972Y-123277982D01*
X176764816Y-122759450D01*
X173762938Y-122165503D01*
X170943132Y-121504121D01*
X169741601Y-121185092D01*
X168628228Y-120870971D01*
X167616060Y-120572518D01*
X166728785Y-120297659D01*
X165990096Y-120054320D01*
X165423682Y-119850428D01*
X165053234Y-119693909D01*
X164902442Y-119592688D01*
X164910200Y-119568640D01*
X165125095Y-119495272D01*
X165566785Y-119390879D01*
X166202767Y-119260932D01*
X167000535Y-119110900D01*
X167927585Y-118946255D01*
X168951412Y-118772466D01*
X170039512Y-118595003D01*
X171159381Y-118419337D01*
X171944630Y-118301179D01*
X187351395Y-118301179D01*
X187370962Y-118658444D01*
X187465588Y-118787481D01*
X187689158Y-118721062D01*
X187875106Y-118619676D01*
X188327252Y-118467097D01*
X188854192Y-118431985D01*
X189249170Y-118506605D01*
X189496255Y-118725918D01*
X189623973Y-119085886D01*
X189597212Y-119479236D01*
X189581996Y-119523472D01*
X189434725Y-119738141D01*
X189132846Y-120066386D01*
X188725523Y-120457333D01*
X188411618Y-120734555D01*
X187941954Y-121140953D01*
X187637864Y-121430100D01*
X187463217Y-121651732D01*
X187381882Y-121855583D01*
X187357730Y-122091386D01*
X187356126Y-122187460D01*
X187351395Y-122743903D01*
X191017374Y-122743903D01*
X191017374Y-121696480D01*
X188750093Y-121696480D01*
X189819080Y-120681789D01*
X190282585Y-120237503D01*
X190327744Y-120190810D01*
X192066257Y-120190810D01*
X192155996Y-121078596D01*
X192410737Y-121806567D01*
X192808766Y-122356960D01*
X193328370Y-122712014D01*
X193947835Y-122853965D01*
X194645448Y-122765051D01*
X195035724Y-122619940D01*
X195542170Y-122287462D01*
X195891288Y-121806753D01*
X196096016Y-121150100D01*
X196169295Y-120289790D01*
X196169891Y-120190810D01*
X196113100Y-119321721D01*
X195932097Y-118658075D01*
X195698746Y-118301179D01*
X197301911Y-118301179D01*
X197321478Y-118658444D01*
X197416103Y-118787481D01*
X197639674Y-118721062D01*
X197825622Y-118619676D01*
X198277767Y-118467097D01*
X198804707Y-118431985D01*
X199199685Y-118506605D01*
X199446771Y-118725918D01*
X199574489Y-119085886D01*
X199547728Y-119479236D01*
X199532512Y-119523472D01*
X199385241Y-119738141D01*
X199083361Y-120066386D01*
X198676039Y-120457333D01*
X198362133Y-120734555D01*
X197892469Y-121140953D01*
X197588379Y-121430100D01*
X197413732Y-121651732D01*
X197332398Y-121855583D01*
X197308245Y-122091386D01*
X197306642Y-122187460D01*
X197301911Y-122743903D01*
X200967890Y-122743903D01*
X200967890Y-121696480D01*
X198700609Y-121696480D01*
X199769596Y-120681789D01*
X200233101Y-120237503D01*
X200538514Y-119921717D01*
X200718755Y-119683811D01*
X200806740Y-119473166D01*
X200835389Y-119239163D01*
X200837773Y-119039240D01*
X200798594Y-118575019D01*
X200678648Y-118301179D01*
X202277168Y-118301179D01*
X202296735Y-118658444D01*
X202391361Y-118787481D01*
X202614932Y-118721062D01*
X202800880Y-118619676D01*
X203253025Y-118467097D01*
X203779965Y-118431985D01*
X204174943Y-118506605D01*
X204422028Y-118725918D01*
X204549746Y-119085886D01*
X204522986Y-119479236D01*
X204507769Y-119523472D01*
X204360498Y-119738141D01*
X204058619Y-120066386D01*
X203651297Y-120457333D01*
X203337391Y-120734555D01*
X202867727Y-121140953D01*
X202563637Y-121430100D01*
X202388990Y-121651732D01*
X202307655Y-121855583D01*
X202283503Y-122091386D01*
X202281900Y-122187460D01*
X202277168Y-122743903D01*
X205943148Y-122743903D01*
X205943148Y-121696480D01*
X203675866Y-121696480D01*
X204744854Y-120681789D01*
X205208359Y-120237503D01*
X205513772Y-119921717D01*
X205694012Y-119683811D01*
X205781998Y-119473166D01*
X205810647Y-119239163D01*
X205813030Y-119039240D01*
X205773852Y-118575019D01*
X205633262Y-118254049D01*
X205499951Y-118099113D01*
X205016115Y-117779892D01*
X204370913Y-117590710D01*
X203640166Y-117550648D01*
X203404991Y-117571886D01*
X202862908Y-117646715D01*
X202530056Y-117725123D01*
X202355464Y-117840069D01*
X202288159Y-118024512D01*
X202277168Y-118301179D01*
X200678648Y-118301179D01*
X200658004Y-118254049D01*
X200524693Y-118099113D01*
X200040857Y-117779892D01*
X199395656Y-117590710D01*
X198664908Y-117550648D01*
X198429733Y-117571886D01*
X197887651Y-117646715D01*
X197554799Y-117725123D01*
X197380206Y-117840069D01*
X197312901Y-118024512D01*
X197301911Y-118301179D01*
X195698746Y-118301179D01*
X195610940Y-118166887D01*
X195133685Y-117815177D01*
X194987632Y-117744964D01*
X194271037Y-117543683D01*
X193617207Y-117582017D01*
X193049063Y-117840777D01*
X192589529Y-118300772D01*
X192261525Y-118942811D01*
X192087973Y-119747702D01*
X192066257Y-120190810D01*
X190327744Y-120190810D01*
X190587999Y-119921717D01*
X190768239Y-119683811D01*
X190856224Y-119473166D01*
X190884873Y-119239163D01*
X190887257Y-119039240D01*
X190848079Y-118575019D01*
X190707488Y-118254049D01*
X190574177Y-118099113D01*
X190090342Y-117779892D01*
X189445140Y-117590710D01*
X188714393Y-117550648D01*
X188479218Y-117571886D01*
X187937135Y-117646715D01*
X187604283Y-117725123D01*
X187429691Y-117840069D01*
X187362386Y-118024512D01*
X187351395Y-118301179D01*
X171944630Y-118301179D01*
X172278514Y-118250939D01*
X173364406Y-118095277D01*
X174384554Y-117957823D01*
X174782323Y-117907245D01*
X178536231Y-117484258D01*
X182341527Y-117146068D01*
X186239833Y-116890321D01*
X190272768Y-116714662D01*
X194481954Y-116616737D01*
X198022014Y-116592783D01*
X202306924Y-116628017D01*
G37*
X202306924Y-116628017D02*
X206383014Y-116735407D01*
X210293896Y-116917492D01*
X214083181Y-117176807D01*
X217794480Y-117515889D01*
X221471404Y-117937274D01*
X221752154Y-117972925D01*
X222546723Y-118078601D01*
X223423499Y-118202161D01*
X224345315Y-118337650D01*
X225275006Y-118479112D01*
X226175404Y-118620592D01*
X227009344Y-118756135D01*
X227739659Y-118879784D01*
X228329183Y-118985586D01*
X228740749Y-119067583D01*
X228937191Y-119119822D01*
X228947053Y-119125815D01*
X228852678Y-119186422D01*
X228542873Y-119310243D01*
X228053203Y-119485867D01*
X227419236Y-119701879D01*
X226676537Y-119946867D01*
X225860672Y-120209418D01*
X225007208Y-120478120D01*
X224151710Y-120741559D01*
X223329744Y-120988323D01*
X222576878Y-121207000D01*
X221928676Y-121386175D01*
X221785416Y-121423910D01*
X218505780Y-122198583D01*
X215023257Y-122872415D01*
X211379099Y-123439238D01*
X207614562Y-123892885D01*
X203770899Y-124227186D01*
X202473560Y-124311368D01*
X201643506Y-124349326D01*
X200599662Y-124379303D01*
X199389972Y-124401339D01*
X198062380Y-124415470D01*
X196664827Y-124421734D01*
X195245258Y-124420169D01*
X193851616Y-124410811D01*
X192531845Y-124393698D01*
X191333887Y-124368868D01*
X190305686Y-124336358D01*
X189577168Y-124301295D01*
X186354942Y-124056884D01*
X183111612Y-123713120D01*
X179897972Y-123277982D01*
X176764816Y-122759450D01*
X173762938Y-122165503D01*
X170943132Y-121504121D01*
X169741601Y-121185092D01*
X168628228Y-120870971D01*
X167616060Y-120572518D01*
X166728785Y-120297659D01*
X165990096Y-120054320D01*
X165423682Y-119850428D01*
X165053234Y-119693909D01*
X164902442Y-119592688D01*
X164910200Y-119568640D01*
X165125095Y-119495272D01*
X165566785Y-119390879D01*
X166202767Y-119260932D01*
X167000535Y-119110900D01*
X167927585Y-118946255D01*
X168951412Y-118772466D01*
X170039512Y-118595003D01*
X171159381Y-118419337D01*
X171944630Y-118301179D01*
X187351395Y-118301179D01*
X187370962Y-118658444D01*
X187465588Y-118787481D01*
X187689158Y-118721062D01*
X187875106Y-118619676D01*
X188327252Y-118467097D01*
X188854192Y-118431985D01*
X189249170Y-118506605D01*
X189496255Y-118725918D01*
X189623973Y-119085886D01*
X189597212Y-119479236D01*
X189581996Y-119523472D01*
X189434725Y-119738141D01*
X189132846Y-120066386D01*
X188725523Y-120457333D01*
X188411618Y-120734555D01*
X187941954Y-121140953D01*
X187637864Y-121430100D01*
X187463217Y-121651732D01*
X187381882Y-121855583D01*
X187357730Y-122091386D01*
X187356126Y-122187460D01*
X187351395Y-122743903D01*
X191017374Y-122743903D01*
X191017374Y-121696480D01*
X188750093Y-121696480D01*
X189819080Y-120681789D01*
X190282585Y-120237503D01*
X190327744Y-120190810D01*
X192066257Y-120190810D01*
X192155996Y-121078596D01*
X192410737Y-121806567D01*
X192808766Y-122356960D01*
X193328370Y-122712014D01*
X193947835Y-122853965D01*
X194645448Y-122765051D01*
X195035724Y-122619940D01*
X195542170Y-122287462D01*
X195891288Y-121806753D01*
X196096016Y-121150100D01*
X196169295Y-120289790D01*
X196169891Y-120190810D01*
X196113100Y-119321721D01*
X195932097Y-118658075D01*
X195698746Y-118301179D01*
X197301911Y-118301179D01*
X197321478Y-118658444D01*
X197416103Y-118787481D01*
X197639674Y-118721062D01*
X197825622Y-118619676D01*
X198277767Y-118467097D01*
X198804707Y-118431985D01*
X199199685Y-118506605D01*
X199446771Y-118725918D01*
X199574489Y-119085886D01*
X199547728Y-119479236D01*
X199532512Y-119523472D01*
X199385241Y-119738141D01*
X199083361Y-120066386D01*
X198676039Y-120457333D01*
X198362133Y-120734555D01*
X197892469Y-121140953D01*
X197588379Y-121430100D01*
X197413732Y-121651732D01*
X197332398Y-121855583D01*
X197308245Y-122091386D01*
X197306642Y-122187460D01*
X197301911Y-122743903D01*
X200967890Y-122743903D01*
X200967890Y-121696480D01*
X198700609Y-121696480D01*
X199769596Y-120681789D01*
X200233101Y-120237503D01*
X200538514Y-119921717D01*
X200718755Y-119683811D01*
X200806740Y-119473166D01*
X200835389Y-119239163D01*
X200837773Y-119039240D01*
X200798594Y-118575019D01*
X200678648Y-118301179D01*
X202277168Y-118301179D01*
X202296735Y-118658444D01*
X202391361Y-118787481D01*
X202614932Y-118721062D01*
X202800880Y-118619676D01*
X203253025Y-118467097D01*
X203779965Y-118431985D01*
X204174943Y-118506605D01*
X204422028Y-118725918D01*
X204549746Y-119085886D01*
X204522986Y-119479236D01*
X204507769Y-119523472D01*
X204360498Y-119738141D01*
X204058619Y-120066386D01*
X203651297Y-120457333D01*
X203337391Y-120734555D01*
X202867727Y-121140953D01*
X202563637Y-121430100D01*
X202388990Y-121651732D01*
X202307655Y-121855583D01*
X202283503Y-122091386D01*
X202281900Y-122187460D01*
X202277168Y-122743903D01*
X205943148Y-122743903D01*
X205943148Y-121696480D01*
X203675866Y-121696480D01*
X204744854Y-120681789D01*
X205208359Y-120237503D01*
X205513772Y-119921717D01*
X205694012Y-119683811D01*
X205781998Y-119473166D01*
X205810647Y-119239163D01*
X205813030Y-119039240D01*
X205773852Y-118575019D01*
X205633262Y-118254049D01*
X205499951Y-118099113D01*
X205016115Y-117779892D01*
X204370913Y-117590710D01*
X203640166Y-117550648D01*
X203404991Y-117571886D01*
X202862908Y-117646715D01*
X202530056Y-117725123D01*
X202355464Y-117840069D01*
X202288159Y-118024512D01*
X202277168Y-118301179D01*
X200678648Y-118301179D01*
X200658004Y-118254049D01*
X200524693Y-118099113D01*
X200040857Y-117779892D01*
X199395656Y-117590710D01*
X198664908Y-117550648D01*
X198429733Y-117571886D01*
X197887651Y-117646715D01*
X197554799Y-117725123D01*
X197380206Y-117840069D01*
X197312901Y-118024512D01*
X197301911Y-118301179D01*
X195698746Y-118301179D01*
X195610940Y-118166887D01*
X195133685Y-117815177D01*
X194987632Y-117744964D01*
X194271037Y-117543683D01*
X193617207Y-117582017D01*
X193049063Y-117840777D01*
X192589529Y-118300772D01*
X192261525Y-118942811D01*
X192087973Y-119747702D01*
X192066257Y-120190810D01*
X190327744Y-120190810D01*
X190587999Y-119921717D01*
X190768239Y-119683811D01*
X190856224Y-119473166D01*
X190884873Y-119239163D01*
X190887257Y-119039240D01*
X190848079Y-118575019D01*
X190707488Y-118254049D01*
X190574177Y-118099113D01*
X190090342Y-117779892D01*
X189445140Y-117590710D01*
X188714393Y-117550648D01*
X188479218Y-117571886D01*
X187937135Y-117646715D01*
X187604283Y-117725123D01*
X187429691Y-117840069D01*
X187362386Y-118024512D01*
X187351395Y-118301179D01*
X171944630Y-118301179D01*
X172278514Y-118250939D01*
X173364406Y-118095277D01*
X174384554Y-117957823D01*
X174782323Y-117907245D01*
X178536231Y-117484258D01*
X182341527Y-117146068D01*
X186239833Y-116890321D01*
X190272768Y-116714662D01*
X194481954Y-116616737D01*
X198022014Y-116592783D01*
X202306924Y-116628017D01*
D11*
%TO.C,J1*%
X147590000Y-99330000D02*
X148920000Y-99330000D01*
X147590000Y-100660000D02*
X147590000Y-99330000D01*
X150190000Y-99330000D02*
X152790000Y-99330000D01*
X150190000Y-101930000D02*
X150190000Y-99330000D01*
X147590000Y-101930000D02*
X150190000Y-101930000D01*
X152790000Y-99330000D02*
X152790000Y-107070000D01*
X147590000Y-101930000D02*
X147590000Y-107070000D01*
X147590000Y-107070000D02*
X152790000Y-107070000D01*
%TO.C,D11*%
X235676000Y-101634000D02*
X235676000Y-101790000D01*
X235676000Y-103950000D02*
X235676000Y-104106000D01*
X238277130Y-103949837D02*
G75*
G02*
X236195039Y-103950000I-1041130J1079837D01*
G01*
X238277130Y-101790163D02*
G75*
G03*
X236195039Y-101790000I-1041130J-1079837D01*
G01*
X238908335Y-103948608D02*
G75*
G02*
X235676000Y-104105516I-1672335J1078608D01*
G01*
X238908335Y-101791392D02*
G75*
G03*
X235676000Y-101634484I-1672335J-1078608D01*
G01*
%TO.C,D10*%
X224017000Y-101761000D02*
X224017000Y-101917000D01*
X224017000Y-104077000D02*
X224017000Y-104233000D01*
X226618130Y-104076837D02*
G75*
G02*
X224536039Y-104077000I-1041130J1079837D01*
G01*
X226618130Y-101917163D02*
G75*
G03*
X224536039Y-101917000I-1041130J-1079837D01*
G01*
X227249335Y-104075608D02*
G75*
G02*
X224017000Y-104232516I-1672335J1078608D01*
G01*
X227249335Y-101918392D02*
G75*
G03*
X224017000Y-101761484I-1672335J-1078608D01*
G01*
%TO.C,D9*%
X212333000Y-101482000D02*
X212333000Y-101638000D01*
X212333000Y-103798000D02*
X212333000Y-103954000D01*
X214934130Y-103797837D02*
G75*
G02*
X212852039Y-103798000I-1041130J1079837D01*
G01*
X214934130Y-101638163D02*
G75*
G03*
X212852039Y-101638000I-1041130J-1079837D01*
G01*
X215565335Y-103796608D02*
G75*
G02*
X212333000Y-103953516I-1672335J1078608D01*
G01*
X215565335Y-101639392D02*
G75*
G03*
X212333000Y-101482484I-1672335J-1078608D01*
G01*
%TO.C,D8*%
X201056000Y-101329000D02*
X201056000Y-101485000D01*
X201056000Y-103645000D02*
X201056000Y-103801000D01*
X203657130Y-103644837D02*
G75*
G02*
X201575039Y-103645000I-1041130J1079837D01*
G01*
X203657130Y-101485163D02*
G75*
G03*
X201575039Y-101485000I-1041130J-1079837D01*
G01*
X204288335Y-103643608D02*
G75*
G02*
X201056000Y-103800516I-1672335J1078608D01*
G01*
X204288335Y-101486392D02*
G75*
G03*
X201056000Y-101329484I-1672335J-1078608D01*
G01*
%TO.C,D7*%
X189651000Y-101380000D02*
X189651000Y-101536000D01*
X189651000Y-103696000D02*
X189651000Y-103852000D01*
X192252130Y-103695837D02*
G75*
G02*
X190170039Y-103696000I-1041130J1079837D01*
G01*
X192252130Y-101536163D02*
G75*
G03*
X190170039Y-101536000I-1041130J-1079837D01*
G01*
X192883335Y-103694608D02*
G75*
G02*
X189651000Y-103851516I-1672335J1078608D01*
G01*
X192883335Y-101537392D02*
G75*
G03*
X189651000Y-101380484I-1672335J-1078608D01*
G01*
%TO.C,D6*%
X178653000Y-101355000D02*
X178653000Y-101511000D01*
X178653000Y-103671000D02*
X178653000Y-103827000D01*
X181254130Y-103670837D02*
G75*
G02*
X179172039Y-103671000I-1041130J1079837D01*
G01*
X181254130Y-101511163D02*
G75*
G03*
X179172039Y-101511000I-1041130J-1079837D01*
G01*
X181885335Y-103669608D02*
G75*
G02*
X178653000Y-103826516I-1672335J1078608D01*
G01*
X181885335Y-101512392D02*
G75*
G03*
X178653000Y-101355484I-1672335J-1078608D01*
G01*
%TO.C,D5*%
X166588000Y-101177000D02*
X166588000Y-101333000D01*
X166588000Y-103493000D02*
X166588000Y-103649000D01*
X169189130Y-103492837D02*
G75*
G02*
X167107039Y-103493000I-1041130J1079837D01*
G01*
X169189130Y-101333163D02*
G75*
G03*
X167107039Y-101333000I-1041130J-1079837D01*
G01*
X169820335Y-103491608D02*
G75*
G02*
X166588000Y-103648516I-1672335J1078608D01*
G01*
X169820335Y-101334392D02*
G75*
G03*
X166588000Y-101177484I-1672335J-1078608D01*
G01*
%TO.C,D4*%
X155107000Y-101685000D02*
X155107000Y-101841000D01*
X155107000Y-104001000D02*
X155107000Y-104157000D01*
X157708130Y-104000837D02*
G75*
G02*
X155626039Y-104001000I-1041130J1079837D01*
G01*
X157708130Y-101841163D02*
G75*
G03*
X155626039Y-101841000I-1041130J-1079837D01*
G01*
X158339335Y-103999608D02*
G75*
G02*
X155107000Y-104156516I-1672335J1078608D01*
G01*
X158339335Y-101842392D02*
G75*
G03*
X155107000Y-101685484I-1672335J-1078608D01*
G01*
%TD*%
M02*
