%TF.GenerationSoftware,KiCad,Pcbnew,5.1.10-88a1d61d58~88~ubuntu20.04.1*%
%TF.CreationDate,2021-09-11T09:55:26-04:00*%
%TF.ProjectId,SAO-Alien,53414f2d-416c-4696-956e-2e6b69636164,rev?*%
%TF.SameCoordinates,Original*%
%TF.FileFunction,Copper,L1,Top*%
%TF.FilePolarity,Positive*%
%FSLAX46Y46*%
G04 Gerber Fmt 4.6, Leading zero omitted, Abs format (unit mm)*
G04 Created by KiCad (PCBNEW 5.1.10-88a1d61d58~88~ubuntu20.04.1) date 2021-09-11 09:55:26*
%MOMM*%
%LPD*%
G01*
G04 APERTURE LIST*
%TA.AperFunction,ComponentPad*%
%ADD10O,1.700000X1.700000*%
%TD*%
%TA.AperFunction,ComponentPad*%
%ADD11R,1.700000X1.700000*%
%TD*%
%TA.AperFunction,Conductor*%
%ADD12C,0.500000*%
%TD*%
%TA.AperFunction,Conductor*%
%ADD13C,0.254000*%
%TD*%
%TA.AperFunction,Conductor*%
%ADD14C,0.100000*%
%TD*%
G04 APERTURE END LIST*
D10*
%TO.P,J1,6*%
%TO.N,N/C*%
X130606800Y-93705680D03*
%TO.P,J1,5*%
X133146800Y-93705680D03*
%TO.P,J1,4*%
X130606800Y-91165680D03*
%TO.P,J1,3*%
X133146800Y-91165680D03*
%TO.P,J1,2*%
%TO.N,GND*%
X130606800Y-88625680D03*
D11*
%TO.P,J1,1*%
%TO.N,+3V3*%
X133146800Y-88625680D03*
%TD*%
D12*
%TO.N,GND*%
X130606800Y-88625680D02*
X130606800Y-85359240D01*
%TD*%
D13*
%TO.N,GND*%
X139625151Y-67530588D02*
X139877415Y-67687019D01*
X141645503Y-69450366D01*
X142756827Y-70968450D01*
X142829112Y-71351341D01*
X142874137Y-71802618D01*
X142885808Y-72297674D01*
X142862850Y-72834536D01*
X142857624Y-72886091D01*
X142025350Y-76644858D01*
X141999995Y-76722049D01*
X141846788Y-77155171D01*
X141708326Y-77522252D01*
X140349613Y-80204952D01*
X138163874Y-82925767D01*
X134533493Y-86330191D01*
X128958653Y-86404921D01*
X128462560Y-85810915D01*
X128462436Y-85780385D01*
X128464400Y-85731563D01*
X128462180Y-85717462D01*
X128462122Y-85703189D01*
X128452393Y-85655296D01*
X128444794Y-85607028D01*
X128439867Y-85593634D01*
X128437025Y-85579644D01*
X128418138Y-85534564D01*
X128401270Y-85488710D01*
X128377516Y-85449865D01*
X128374794Y-85444847D01*
X128359837Y-85417137D01*
X128359449Y-85416561D01*
X128344064Y-85388201D01*
X128324306Y-85364427D01*
X128307026Y-85338792D01*
X128284114Y-85316065D01*
X128283674Y-85315536D01*
X128261455Y-85293590D01*
X128227881Y-85260287D01*
X128215565Y-85247301D01*
X128207651Y-85240448D01*
X128200213Y-85233101D01*
X128183926Y-85219902D01*
X128140464Y-85182264D01*
X128136202Y-85177938D01*
X128116714Y-85161698D01*
X128097533Y-85145087D01*
X128092574Y-85141580D01*
X128029136Y-85088713D01*
X128028275Y-85087846D01*
X128004918Y-85068532D01*
X127981773Y-85049243D01*
X127980768Y-85048560D01*
X127870912Y-84957716D01*
X127436898Y-84582820D01*
X127066996Y-84139911D01*
X127058548Y-84130750D01*
X125396553Y-82497044D01*
X124991105Y-82022540D01*
X124546675Y-81472717D01*
X124132428Y-80928457D01*
X123755387Y-80398006D01*
X123477096Y-79976166D01*
X123252706Y-79598633D01*
X123025754Y-79170793D01*
X122798244Y-78697621D01*
X122573957Y-78187858D01*
X122356208Y-77649802D01*
X122148115Y-77091632D01*
X121952636Y-76521377D01*
X121772641Y-75947032D01*
X121610957Y-75376673D01*
X121470328Y-74818402D01*
X121353280Y-74279775D01*
X121274344Y-73843779D01*
X121207098Y-73370621D01*
X121164627Y-72925362D01*
X121163745Y-72906059D01*
X123423936Y-72906059D01*
X123479816Y-73784899D01*
X123482176Y-73802486D01*
X123583776Y-74295246D01*
X123587910Y-74310454D01*
X123857150Y-75102934D01*
X123866811Y-75124522D01*
X124288451Y-75871282D01*
X124299788Y-75888075D01*
X124782388Y-76492595D01*
X124798100Y-76509016D01*
X125560100Y-77174496D01*
X125582141Y-77189957D01*
X126389861Y-77636997D01*
X126418188Y-77648471D01*
X127713588Y-77998991D01*
X127738423Y-78003126D01*
X128510583Y-78053926D01*
X128526842Y-78053953D01*
X129177082Y-78013313D01*
X129199044Y-78009994D01*
X129681644Y-77893154D01*
X129690467Y-77890678D01*
X130325467Y-77687478D01*
X130344160Y-77679809D01*
X131106160Y-77293729D01*
X131135652Y-77273061D01*
X131152052Y-77254330D01*
X131164483Y-77232759D01*
X131172466Y-77209177D01*
X131175695Y-77184491D01*
X131176820Y-77149230D01*
X132918202Y-77149230D01*
X132921522Y-77178818D01*
X132929529Y-77202392D01*
X132941980Y-77223951D01*
X132958398Y-77242666D01*
X132978152Y-77257819D01*
X133166112Y-77374659D01*
X133172346Y-77378293D01*
X133507626Y-77561173D01*
X133525894Y-77569341D01*
X134211694Y-77813181D01*
X134231861Y-77818533D01*
X135054821Y-77965853D01*
X135076375Y-77967837D01*
X135858695Y-77972917D01*
X135879014Y-77971415D01*
X136402254Y-77890135D01*
X136416638Y-77887038D01*
X136985598Y-77729558D01*
X136996794Y-77725892D01*
X137545434Y-77517612D01*
X137559943Y-77511036D01*
X138047623Y-77251956D01*
X138063143Y-77242213D01*
X138596543Y-76851053D01*
X138610771Y-76838911D01*
X139098451Y-76356311D01*
X139110314Y-76342779D01*
X139572594Y-75733179D01*
X139583664Y-75715819D01*
X139908784Y-75101139D01*
X139916915Y-75082184D01*
X140150595Y-74386224D01*
X140154907Y-74369826D01*
X140261587Y-73816106D01*
X140263827Y-73795760D01*
X140284147Y-73094720D01*
X140283768Y-73080580D01*
X140232968Y-72465900D01*
X140230024Y-72447272D01*
X140148744Y-72101832D01*
X140142953Y-72083544D01*
X140131446Y-72061466D01*
X140115853Y-72042058D01*
X140096774Y-72026064D01*
X140074940Y-72014100D01*
X139729500Y-71866780D01*
X139716069Y-71861925D01*
X139172509Y-71699365D01*
X139155663Y-71695553D01*
X138535903Y-71599033D01*
X138518697Y-71597542D01*
X137690657Y-71582302D01*
X137669319Y-71583709D01*
X136897159Y-71700549D01*
X136876942Y-71705327D01*
X136094622Y-71959327D01*
X136076432Y-71966836D01*
X135324592Y-72347836D01*
X135305469Y-72359769D01*
X134558709Y-72923649D01*
X134540282Y-72940667D01*
X133895122Y-73667107D01*
X133883902Y-73681761D01*
X133563862Y-74169441D01*
X133553688Y-74188216D01*
X133233648Y-74919736D01*
X133228664Y-74933136D01*
X133055944Y-75491936D01*
X133052127Y-75507862D01*
X132925127Y-76244462D01*
X132923282Y-76265310D01*
X132918202Y-77149230D01*
X131176820Y-77149230D01*
X131190935Y-76706971D01*
X131190804Y-76695875D01*
X131150164Y-75964355D01*
X131146309Y-75939578D01*
X130811029Y-74644178D01*
X130800701Y-74617301D01*
X130363821Y-73779101D01*
X130350035Y-73758047D01*
X129521995Y-72731887D01*
X129499479Y-72710129D01*
X128803519Y-72186889D01*
X128789569Y-72177769D01*
X128032649Y-71751049D01*
X128012788Y-71742005D01*
X127083148Y-71411805D01*
X127060303Y-71406011D01*
X126379583Y-71299331D01*
X126360588Y-71297802D01*
X125395388Y-71292722D01*
X125374089Y-71294407D01*
X124540969Y-71431567D01*
X124522945Y-71435906D01*
X123664425Y-71710226D01*
X123635046Y-71723960D01*
X123615432Y-71739293D01*
X123599186Y-71758159D01*
X123586933Y-71779831D01*
X123579143Y-71803477D01*
X123492783Y-72189557D01*
X123490313Y-72205017D01*
X123424273Y-72885737D01*
X123423936Y-72906059D01*
X121163745Y-72906059D01*
X121144065Y-72475666D01*
X121141593Y-72247075D01*
X121150598Y-71817733D01*
X121178085Y-71444918D01*
X121200503Y-71287435D01*
X121772255Y-70235411D01*
X122058802Y-69876013D01*
X122466483Y-69503134D01*
X124874540Y-67437646D01*
X130322916Y-65592960D01*
X134409213Y-65592960D01*
X139625151Y-67530588D01*
%TA.AperFunction,Conductor*%
D14*
G36*
X139625151Y-67530588D02*
G01*
X139877415Y-67687019D01*
X141645503Y-69450366D01*
X142756827Y-70968450D01*
X142829112Y-71351341D01*
X142874137Y-71802618D01*
X142885808Y-72297674D01*
X142862850Y-72834536D01*
X142857624Y-72886091D01*
X142025350Y-76644858D01*
X141999995Y-76722049D01*
X141846788Y-77155171D01*
X141708326Y-77522252D01*
X140349613Y-80204952D01*
X138163874Y-82925767D01*
X134533493Y-86330191D01*
X128958653Y-86404921D01*
X128462560Y-85810915D01*
X128462436Y-85780385D01*
X128464400Y-85731563D01*
X128462180Y-85717462D01*
X128462122Y-85703189D01*
X128452393Y-85655296D01*
X128444794Y-85607028D01*
X128439867Y-85593634D01*
X128437025Y-85579644D01*
X128418138Y-85534564D01*
X128401270Y-85488710D01*
X128377516Y-85449865D01*
X128374794Y-85444847D01*
X128359837Y-85417137D01*
X128359449Y-85416561D01*
X128344064Y-85388201D01*
X128324306Y-85364427D01*
X128307026Y-85338792D01*
X128284114Y-85316065D01*
X128283674Y-85315536D01*
X128261455Y-85293590D01*
X128227881Y-85260287D01*
X128215565Y-85247301D01*
X128207651Y-85240448D01*
X128200213Y-85233101D01*
X128183926Y-85219902D01*
X128140464Y-85182264D01*
X128136202Y-85177938D01*
X128116714Y-85161698D01*
X128097533Y-85145087D01*
X128092574Y-85141580D01*
X128029136Y-85088713D01*
X128028275Y-85087846D01*
X128004918Y-85068532D01*
X127981773Y-85049243D01*
X127980768Y-85048560D01*
X127870912Y-84957716D01*
X127436898Y-84582820D01*
X127066996Y-84139911D01*
X127058548Y-84130750D01*
X125396553Y-82497044D01*
X124991105Y-82022540D01*
X124546675Y-81472717D01*
X124132428Y-80928457D01*
X123755387Y-80398006D01*
X123477096Y-79976166D01*
X123252706Y-79598633D01*
X123025754Y-79170793D01*
X122798244Y-78697621D01*
X122573957Y-78187858D01*
X122356208Y-77649802D01*
X122148115Y-77091632D01*
X121952636Y-76521377D01*
X121772641Y-75947032D01*
X121610957Y-75376673D01*
X121470328Y-74818402D01*
X121353280Y-74279775D01*
X121274344Y-73843779D01*
X121207098Y-73370621D01*
X121164627Y-72925362D01*
X121163745Y-72906059D01*
X123423936Y-72906059D01*
X123479816Y-73784899D01*
X123482176Y-73802486D01*
X123583776Y-74295246D01*
X123587910Y-74310454D01*
X123857150Y-75102934D01*
X123866811Y-75124522D01*
X124288451Y-75871282D01*
X124299788Y-75888075D01*
X124782388Y-76492595D01*
X124798100Y-76509016D01*
X125560100Y-77174496D01*
X125582141Y-77189957D01*
X126389861Y-77636997D01*
X126418188Y-77648471D01*
X127713588Y-77998991D01*
X127738423Y-78003126D01*
X128510583Y-78053926D01*
X128526842Y-78053953D01*
X129177082Y-78013313D01*
X129199044Y-78009994D01*
X129681644Y-77893154D01*
X129690467Y-77890678D01*
X130325467Y-77687478D01*
X130344160Y-77679809D01*
X131106160Y-77293729D01*
X131135652Y-77273061D01*
X131152052Y-77254330D01*
X131164483Y-77232759D01*
X131172466Y-77209177D01*
X131175695Y-77184491D01*
X131176820Y-77149230D01*
X132918202Y-77149230D01*
X132921522Y-77178818D01*
X132929529Y-77202392D01*
X132941980Y-77223951D01*
X132958398Y-77242666D01*
X132978152Y-77257819D01*
X133166112Y-77374659D01*
X133172346Y-77378293D01*
X133507626Y-77561173D01*
X133525894Y-77569341D01*
X134211694Y-77813181D01*
X134231861Y-77818533D01*
X135054821Y-77965853D01*
X135076375Y-77967837D01*
X135858695Y-77972917D01*
X135879014Y-77971415D01*
X136402254Y-77890135D01*
X136416638Y-77887038D01*
X136985598Y-77729558D01*
X136996794Y-77725892D01*
X137545434Y-77517612D01*
X137559943Y-77511036D01*
X138047623Y-77251956D01*
X138063143Y-77242213D01*
X138596543Y-76851053D01*
X138610771Y-76838911D01*
X139098451Y-76356311D01*
X139110314Y-76342779D01*
X139572594Y-75733179D01*
X139583664Y-75715819D01*
X139908784Y-75101139D01*
X139916915Y-75082184D01*
X140150595Y-74386224D01*
X140154907Y-74369826D01*
X140261587Y-73816106D01*
X140263827Y-73795760D01*
X140284147Y-73094720D01*
X140283768Y-73080580D01*
X140232968Y-72465900D01*
X140230024Y-72447272D01*
X140148744Y-72101832D01*
X140142953Y-72083544D01*
X140131446Y-72061466D01*
X140115853Y-72042058D01*
X140096774Y-72026064D01*
X140074940Y-72014100D01*
X139729500Y-71866780D01*
X139716069Y-71861925D01*
X139172509Y-71699365D01*
X139155663Y-71695553D01*
X138535903Y-71599033D01*
X138518697Y-71597542D01*
X137690657Y-71582302D01*
X137669319Y-71583709D01*
X136897159Y-71700549D01*
X136876942Y-71705327D01*
X136094622Y-71959327D01*
X136076432Y-71966836D01*
X135324592Y-72347836D01*
X135305469Y-72359769D01*
X134558709Y-72923649D01*
X134540282Y-72940667D01*
X133895122Y-73667107D01*
X133883902Y-73681761D01*
X133563862Y-74169441D01*
X133553688Y-74188216D01*
X133233648Y-74919736D01*
X133228664Y-74933136D01*
X133055944Y-75491936D01*
X133052127Y-75507862D01*
X132925127Y-76244462D01*
X132923282Y-76265310D01*
X132918202Y-77149230D01*
X131176820Y-77149230D01*
X131190935Y-76706971D01*
X131190804Y-76695875D01*
X131150164Y-75964355D01*
X131146309Y-75939578D01*
X130811029Y-74644178D01*
X130800701Y-74617301D01*
X130363821Y-73779101D01*
X130350035Y-73758047D01*
X129521995Y-72731887D01*
X129499479Y-72710129D01*
X128803519Y-72186889D01*
X128789569Y-72177769D01*
X128032649Y-71751049D01*
X128012788Y-71742005D01*
X127083148Y-71411805D01*
X127060303Y-71406011D01*
X126379583Y-71299331D01*
X126360588Y-71297802D01*
X125395388Y-71292722D01*
X125374089Y-71294407D01*
X124540969Y-71431567D01*
X124522945Y-71435906D01*
X123664425Y-71710226D01*
X123635046Y-71723960D01*
X123615432Y-71739293D01*
X123599186Y-71758159D01*
X123586933Y-71779831D01*
X123579143Y-71803477D01*
X123492783Y-72189557D01*
X123490313Y-72205017D01*
X123424273Y-72885737D01*
X123423936Y-72906059D01*
X121163745Y-72906059D01*
X121144065Y-72475666D01*
X121141593Y-72247075D01*
X121150598Y-71817733D01*
X121178085Y-71444918D01*
X121200503Y-71287435D01*
X121772255Y-70235411D01*
X122058802Y-69876013D01*
X122466483Y-69503134D01*
X124874540Y-67437646D01*
X130322916Y-65592960D01*
X134409213Y-65592960D01*
X139625151Y-67530588D01*
G37*
%TD.AperFunction*%
%TD*%
M02*
