%TF.GenerationSoftware,KiCad,Pcbnew,5.1.10-88a1d61d58~88~ubuntu20.04.1*%
%TF.CreationDate,2021-09-11T09:55:26-04:00*%
%TF.ProjectId,SAO-Alien,53414f2d-416c-4696-956e-2e6b69636164,rev?*%
%TF.SameCoordinates,Original*%
%TF.FileFunction,Legend,Bot*%
%TF.FilePolarity,Positive*%
%FSLAX46Y46*%
G04 Gerber Fmt 4.6, Leading zero omitted, Abs format (unit mm)*
G04 Created by KiCad (PCBNEW 5.1.10-88a1d61d58~88~ubuntu20.04.1) date 2021-09-11 09:55:26*
%MOMM*%
%LPD*%
G01*
G04 APERTURE LIST*
%ADD10C,0.120000*%
%ADD11C,0.150000*%
G04 APERTURE END LIST*
D10*
%TO.C,R2*%
X135645536Y-82093480D02*
X137099664Y-82093480D01*
X135645536Y-80273480D02*
X137099664Y-80273480D01*
%TO.C,R1*%
X128372224Y-82083320D02*
X126918096Y-82083320D01*
X128372224Y-80263320D02*
X126918096Y-80263320D01*
%TO.C,J1*%
X134476800Y-87295680D02*
X133146800Y-87295680D01*
X134476800Y-88625680D02*
X134476800Y-87295680D01*
X131876800Y-87295680D02*
X129276800Y-87295680D01*
X131876800Y-89895680D02*
X131876800Y-87295680D01*
X134476800Y-89895680D02*
X131876800Y-89895680D01*
X129276800Y-87295680D02*
X129276800Y-95035680D01*
X134476800Y-89895680D02*
X134476800Y-95035680D01*
X134476800Y-95035680D02*
X129276800Y-95035680D01*
%TO.C,D2*%
X134097760Y-73861160D02*
X137982760Y-73861160D01*
X134097760Y-76781160D02*
X134097760Y-73861160D01*
X137982760Y-76781160D02*
X134097760Y-76781160D01*
%TO.C,D1*%
X130082560Y-76786240D02*
X126197560Y-76786240D01*
X130082560Y-73866240D02*
X130082560Y-76786240D01*
X126197560Y-73866240D02*
X130082560Y-73866240D01*
%TO.C,R2*%
D11*
X136539266Y-83455860D02*
X136872600Y-82979670D01*
X137110695Y-83455860D02*
X137110695Y-82455860D01*
X136729742Y-82455860D01*
X136634504Y-82503480D01*
X136586885Y-82551099D01*
X136539266Y-82646337D01*
X136539266Y-82789194D01*
X136586885Y-82884432D01*
X136634504Y-82932051D01*
X136729742Y-82979670D01*
X137110695Y-82979670D01*
X136158314Y-82551099D02*
X136110695Y-82503480D01*
X136015457Y-82455860D01*
X135777361Y-82455860D01*
X135682123Y-82503480D01*
X135634504Y-82551099D01*
X135586885Y-82646337D01*
X135586885Y-82741575D01*
X135634504Y-82884432D01*
X136205933Y-83455860D01*
X135586885Y-83455860D01*
%TO.C,R1*%
X127811826Y-79805700D02*
X128145160Y-79329510D01*
X128383255Y-79805700D02*
X128383255Y-78805700D01*
X128002302Y-78805700D01*
X127907064Y-78853320D01*
X127859445Y-78900939D01*
X127811826Y-78996177D01*
X127811826Y-79139034D01*
X127859445Y-79234272D01*
X127907064Y-79281891D01*
X128002302Y-79329510D01*
X128383255Y-79329510D01*
X126859445Y-79805700D02*
X127430874Y-79805700D01*
X127145160Y-79805700D02*
X127145160Y-78805700D01*
X127240398Y-78948558D01*
X127335636Y-79043796D01*
X127430874Y-79091415D01*
%TO.C,J1*%
X132210133Y-85748060D02*
X132210133Y-86462346D01*
X132257752Y-86605203D01*
X132352990Y-86700441D01*
X132495847Y-86748060D01*
X132591085Y-86748060D01*
X131210133Y-86748060D02*
X131781561Y-86748060D01*
X131495847Y-86748060D02*
X131495847Y-85748060D01*
X131591085Y-85890918D01*
X131686323Y-85986156D01*
X131781561Y-86033775D01*
%TO.C,D2*%
X137120855Y-77918540D02*
X137120855Y-76918540D01*
X136882760Y-76918540D01*
X136739902Y-76966160D01*
X136644664Y-77061398D01*
X136597045Y-77156636D01*
X136549426Y-77347112D01*
X136549426Y-77489969D01*
X136597045Y-77680445D01*
X136644664Y-77775683D01*
X136739902Y-77870921D01*
X136882760Y-77918540D01*
X137120855Y-77918540D01*
X136168474Y-77013779D02*
X136120855Y-76966160D01*
X136025617Y-76918540D01*
X135787521Y-76918540D01*
X135692283Y-76966160D01*
X135644664Y-77013779D01*
X135597045Y-77109017D01*
X135597045Y-77204255D01*
X135644664Y-77347112D01*
X136216093Y-77918540D01*
X135597045Y-77918540D01*
%TO.C,D1*%
X128535655Y-73633620D02*
X128535655Y-72633620D01*
X128297560Y-72633620D01*
X128154702Y-72681240D01*
X128059464Y-72776478D01*
X128011845Y-72871716D01*
X127964226Y-73062192D01*
X127964226Y-73205049D01*
X128011845Y-73395525D01*
X128059464Y-73490763D01*
X128154702Y-73586001D01*
X128297560Y-73633620D01*
X128535655Y-73633620D01*
X127011845Y-73633620D02*
X127583274Y-73633620D01*
X127297560Y-73633620D02*
X127297560Y-72633620D01*
X127392798Y-72776478D01*
X127488036Y-72871716D01*
X127583274Y-72919335D01*
%TD*%
M02*
