%TF.GenerationSoftware,KiCad,Pcbnew,5.1.10-88a1d61d58~88~ubuntu20.04.1*%
%TF.CreationDate,2021-09-11T09:55:26-04:00*%
%TF.ProjectId,SAO-Alien,53414f2d-416c-4696-956e-2e6b69636164,rev?*%
%TF.SameCoordinates,Original*%
%TF.FileFunction,Soldermask,Bot*%
%TF.FilePolarity,Negative*%
%FSLAX46Y46*%
G04 Gerber Fmt 4.6, Leading zero omitted, Abs format (unit mm)*
G04 Created by KiCad (PCBNEW 5.1.10-88a1d61d58~88~ubuntu20.04.1) date 2021-09-11 09:55:26*
%MOMM*%
%LPD*%
G01*
G04 APERTURE LIST*
%ADD10O,1.700000X1.700000*%
%ADD11R,1.700000X1.700000*%
%ADD12O,1.800000X2.400000*%
G04 APERTURE END LIST*
%TO.C,R2*%
G36*
G01*
X134172600Y-81808481D02*
X134172600Y-80558479D01*
G75*
G02*
X134422599Y-80308480I249999J0D01*
G01*
X135222601Y-80308480D01*
G75*
G02*
X135472600Y-80558479I0J-249999D01*
G01*
X135472600Y-81808481D01*
G75*
G02*
X135222601Y-82058480I-249999J0D01*
G01*
X134422599Y-82058480D01*
G75*
G02*
X134172600Y-81808481I0J249999D01*
G01*
G37*
G36*
G01*
X137272600Y-81808481D02*
X137272600Y-80558479D01*
G75*
G02*
X137522599Y-80308480I249999J0D01*
G01*
X138322601Y-80308480D01*
G75*
G02*
X138572600Y-80558479I0J-249999D01*
G01*
X138572600Y-81808481D01*
G75*
G02*
X138322601Y-82058480I-249999J0D01*
G01*
X137522599Y-82058480D01*
G75*
G02*
X137272600Y-81808481I0J249999D01*
G01*
G37*
%TD*%
%TO.C,R1*%
G36*
G01*
X126745160Y-80548319D02*
X126745160Y-81798321D01*
G75*
G02*
X126495161Y-82048320I-249999J0D01*
G01*
X125695159Y-82048320D01*
G75*
G02*
X125445160Y-81798321I0J249999D01*
G01*
X125445160Y-80548319D01*
G75*
G02*
X125695159Y-80298320I249999J0D01*
G01*
X126495161Y-80298320D01*
G75*
G02*
X126745160Y-80548319I0J-249999D01*
G01*
G37*
G36*
G01*
X129845160Y-80548319D02*
X129845160Y-81798321D01*
G75*
G02*
X129595161Y-82048320I-249999J0D01*
G01*
X128795159Y-82048320D01*
G75*
G02*
X128545160Y-81798321I0J249999D01*
G01*
X128545160Y-80548319D01*
G75*
G02*
X128795159Y-80298320I249999J0D01*
G01*
X129595161Y-80298320D01*
G75*
G02*
X129845160Y-80548319I0J-249999D01*
G01*
G37*
%TD*%
D10*
%TO.C,J1*%
X130606800Y-93705680D03*
X133146800Y-93705680D03*
X130606800Y-91165680D03*
X133146800Y-91165680D03*
X130606800Y-88625680D03*
D11*
X133146800Y-88625680D03*
%TD*%
D12*
%TO.C,D2*%
X136382760Y-75321160D03*
G36*
G01*
X137457760Y-76006160D02*
X137457760Y-74636160D01*
G75*
G02*
X137647760Y-74446160I190000J0D01*
G01*
X138217760Y-74446160D01*
G75*
G02*
X138407760Y-74636160I0J-190000D01*
G01*
X138407760Y-76006160D01*
G75*
G02*
X138217760Y-76196160I-190000J0D01*
G01*
X137647760Y-76196160D01*
G75*
G02*
X137457760Y-76006160I0J190000D01*
G01*
G37*
G36*
G01*
X134357760Y-76006160D02*
X134357760Y-74636160D01*
G75*
G02*
X134547760Y-74446160I190000J0D01*
G01*
X135117760Y-74446160D01*
G75*
G02*
X135307760Y-74636160I0J-190000D01*
G01*
X135307760Y-76006160D01*
G75*
G02*
X135117760Y-76196160I-190000J0D01*
G01*
X134547760Y-76196160D01*
G75*
G02*
X134357760Y-76006160I0J190000D01*
G01*
G37*
%TD*%
%TO.C,D1*%
X127797560Y-75326240D03*
G36*
G01*
X126722560Y-74641240D02*
X126722560Y-76011240D01*
G75*
G02*
X126532560Y-76201240I-190000J0D01*
G01*
X125962560Y-76201240D01*
G75*
G02*
X125772560Y-76011240I0J190000D01*
G01*
X125772560Y-74641240D01*
G75*
G02*
X125962560Y-74451240I190000J0D01*
G01*
X126532560Y-74451240D01*
G75*
G02*
X126722560Y-74641240I0J-190000D01*
G01*
G37*
G36*
G01*
X129822560Y-74641240D02*
X129822560Y-76011240D01*
G75*
G02*
X129632560Y-76201240I-190000J0D01*
G01*
X129062560Y-76201240D01*
G75*
G02*
X128872560Y-76011240I0J190000D01*
G01*
X128872560Y-74641240D01*
G75*
G02*
X129062560Y-74451240I190000J0D01*
G01*
X129632560Y-74451240D01*
G75*
G02*
X129822560Y-74641240I0J-190000D01*
G01*
G37*
%TD*%
M02*
